<svg width="64" height="64" viewBox="0 0 64 64" fill="none" xmlns="http://www.w3.org/2000/svg">
<path d="M46 62H18C15.794 62 14 60.206 14 58V6C14 3.794 15.794 2 18 2H46C48.206 2 50 3.794 50 6V58C50 60.206 48.206 62 46 62ZM18 5C17.4477 5 17 5.44772 17 6V58C17 58.5523 17.4477 59 18 59H46.002C46.5543 59 47.002 58.5523 47.002 58L47 5.99996C47 5.44769 46.5523 5 46 5H18Z" fill="#F3F3F3"/>
<path d="M35.5277 13H28.4737C26.1857 13 24.1297 12.73 23.1057 10.684L18.7637 2H45.2357L40.8937 10.684C39.8717 12.73 37.8137 13 35.5277 13ZM24.2357 5L25.6837 8.894C26.0237 9.576 26.7077 10 27.4717 10H36.5257C37.2877 10 37.9737 9.576 38.3157 8.894L39.7637 5H24.2357Z" fill="#F3F3F3"/>
<path d="M25.7399 30.03H38.8655H39.2519C39.528 30.03 39.7519 30.2539 39.7519 30.53V30.9164V41.1136V41.5C39.7519 41.7761 39.528 42 39.2519 42H38.8655H25.7399H25.3535C25.0774 42 24.8535 41.7761 24.8535 41.5V41.1136V30.9164V30.53C24.8535 30.2539 25.0774 30.03 25.3535 30.03H25.7399ZM37.9792 32.3028C37.9792 32.0266 37.7553 31.8028 37.4792 31.8028H27.1263C26.8501 31.8028 26.6263 32.0266 26.6263 32.3028V39.7272C26.6263 40.0034 26.8501 40.2272 27.1263 40.2272H37.4792C37.7553 40.2272 37.9792 40.0034 37.9792 39.7272V32.3028Z" fill="url(#paint0_linear_357_496)"/>
<path d="M28.5267 30.0301H36.0799V27.1513C36.0799 26.3607 35.7558 25.6411 35.2336 25.119C34.7115 24.5968 33.9919 24.2726 33.2013 24.2726H31.4053C30.6146 24.2726 29.8951 24.5968 29.3729 25.119C28.8508 25.6411 28.5267 26.3607 28.5267 27.1513L28.5267 30.0301ZM36.9663 31.8029H27.6403H26.7539V30.9165V27.1513C26.7539 25.8713 27.277 24.7081 28.1195 23.8656C28.9622 23.0229 30.1253 22.4999 31.4053 22.4999H33.2013C34.4813 22.4999 35.6444 23.0229 36.487 23.8656C37.3296 24.7081 37.8527 25.8713 37.8527 27.1513V30.9165V31.8029H36.9663Z" fill="url(#paint1_linear_357_496)"/>
<path d="M32.6888 36.2852C32.9649 36.2852 33.1888 36.509 33.1888 36.7852V37.5537C33.1888 37.8298 32.9649 38.0537 32.6888 38.0537H31.916C31.6399 38.0537 31.416 37.8298 31.416 37.5537V36.7852C31.416 36.509 31.6399 36.2852 31.916 36.2852H32.6888Z" fill="url(#paint2_linear_357_496)"/>
<path d="M32.3025 33.0898C32.8659 33.0898 33.3761 33.3183 33.7454 33.6876C34.1147 34.0569 34.3432 34.5671 34.3432 35.1306C34.3432 35.694 34.1147 36.2042 33.7454 36.5736C33.3761 36.9429 32.8659 37.1714 32.3025 37.1714C31.739 37.1714 31.2288 36.9429 30.8595 36.5736C30.4902 36.2042 30.2617 35.694 30.2617 35.1306C30.2617 34.5671 30.4902 34.0569 30.8595 33.6876C31.2288 33.3183 31.739 33.0898 32.3025 33.0898ZM32.492 34.941C32.4436 34.8926 32.3765 34.8626 32.3025 34.8626C32.2284 34.8626 32.1613 34.8926 32.1129 34.941C32.0645 34.9894 32.0345 35.0565 32.0345 35.1306C32.0345 35.2047 32.0645 35.2718 32.1129 35.3202C32.1613 35.3686 32.2284 35.3986 32.3025 35.3986C32.3765 35.3986 32.4436 35.3686 32.492 35.3202C32.5405 35.2718 32.5705 35.2047 32.5705 35.1306C32.5705 35.0565 32.5405 34.9894 32.492 34.941Z" fill="url(#paint3_linear_357_496)"/>
<defs>
<linearGradient id="paint0_linear_357_496" x1="25.826" y1="29.0436" x2="39.4121" y2="39.5499" gradientUnits="userSpaceOnUse">
<stop stop-color="#D8AE5E"/>
<stop offset="1" stop-color="#F2D7A5"/>
</linearGradient>
<linearGradient id="paint1_linear_357_496" x1="27.4784" y1="21.7332" x2="37.9168" y2="29.4707" gradientUnits="userSpaceOnUse">
<stop stop-color="#D8AE5E"/>
<stop offset="1" stop-color="#F2D7A5"/>
</linearGradient>
<linearGradient id="paint2_linear_357_496" x1="31.5317" y1="36.1394" x2="33.3931" y2="37.2987" gradientUnits="userSpaceOnUse">
<stop stop-color="#D8AE5E"/>
<stop offset="1" stop-color="#F2D7A5"/>
</linearGradient>
<linearGradient id="paint3_linear_357_496" x1="30.5281" y1="32.7535" x2="34.8194" y2="35.4197" gradientUnits="userSpaceOnUse">
<stop stop-color="#D8AE5E"/>
<stop offset="1" stop-color="#F2D7A5"/>
</linearGradient>
</defs>
</svg>
