<svg width="64" height="64" viewBox="0 0 64 64" fill="none" xmlns="http://www.w3.org/2000/svg">
<g id="Frame" clip-path="url(#clip0_144_3766)">
<g id="Layer_x0020_1">
<g id="_247806360">
<path id="_247807368" d="M14.4885 52.344H41.0313C41.3415 52.344 41.5926 52.5951 41.5926 52.9056L41.5929 55.6404C41.5929 59.6304 44.8393 62.8774 48.8294 62.8774H52.266C56.2564 62.8774 59.5031 59.6304 59.5031 55.6404V52.9056C59.5031 52.9038 59.5031 52.9038 59.5031 52.9038L59.6472 1.24238L20.9744 1.12264C20.9674 1.12264 20.9606 1.12264 20.9541 1.12264C19.2437 1.12264 17.6289 1.79351 16.4048 3.01448C15.1691 4.24519 14.4885 5.87836 14.4885 7.60913V52.344ZM52.266 64H48.8294C44.22 64 40.47 60.2501 40.47 55.6404V53.4666H13.9273C13.6174 53.4666 13.366 53.2155 13.366 52.9056V7.60913C13.366 5.57718 14.1638 3.66379 15.6121 2.21915C17.0481 0.787798 18.9445 0 20.9538 0H20.9778L60.2117 0.121506C60.5216 0.122687 60.7722 0.374411 60.7716 0.684303L60.6257 52.9068V55.6404C60.6257 60.2501 56.8754 64 52.266 64Z" fill="#F3F3F3"/>
<path id="_247807056" d="M48.6161 63.9943H13.5372C7.85301 63.9943 3.22839 59.37 3.22839 53.6847V52.9056C3.22839 52.5951 3.47967 52.344 3.78971 52.344H13.9273C14.2373 52.344 14.4885 52.5951 14.4885 52.9056C14.4885 53.2155 14.2373 53.4666 13.9273 53.4666H4.35118V53.6847C4.35118 58.7502 8.47191 62.871 13.5372 62.871H48.6161C48.926 62.871 49.1774 63.1228 49.1774 63.4327C49.1774 63.7426 48.926 63.9943 48.6161 63.9943Z" fill="#F3F3F3"/>
<path id="_247807080" d="M51.6045 46.8469H23.5318C23.2218 46.8469 22.9703 46.5957 22.9703 46.2858C22.9703 45.9759 23.2218 45.7244 23.5318 45.7244H51.6045C51.9145 45.7244 52.1658 45.9759 52.1658 46.2858C52.1658 46.5957 51.9145 46.8469 51.6045 46.8469Z" fill="url(#paint0_linear_144_3766)"/>
<path id="_247807344" d="M36.3686 4.19979C29.8749 4.19979 24.5922 9.4817 24.5922 15.9756C24.5922 22.4697 29.8749 27.7515 36.3686 27.7515C42.8622 27.7515 48.145 22.4697 48.145 15.9756C48.145 9.4817 42.8622 4.19979 36.3686 4.19979ZM36.3686 28.8741C29.256 28.8741 23.4696 23.0882 23.4696 15.9756C23.4696 8.86353 29.256 3.07715 36.3686 3.07715C43.4812 3.07715 49.2676 8.86353 49.2676 15.9756C49.2676 23.0882 43.4812 28.8741 36.3686 28.8741Z" fill="#F3F3F3"/>
<path id="_247807200" d="M36.3686 7.35912C31.6176 7.35912 27.7525 11.2246 27.7525 15.9756C27.7525 20.7273 31.6176 24.5923 36.3686 24.5923C41.1196 24.5923 44.9844 20.7273 44.9844 15.9756C44.9844 11.2246 41.1196 7.35912 36.3686 7.35912ZM36.3686 25.715C30.9985 25.715 26.6298 21.3453 26.6298 15.9756C26.6298 10.606 30.9985 6.23633 36.3686 6.23633C41.7385 6.23633 46.1072 10.606 46.1072 15.9756C46.1072 21.3453 41.7385 25.715 36.3686 25.715Z" fill="#F3F3F3"/>
<path id="_247807512" d="M36.3686 18.863C36.4847 18.863 36.601 18.8996 36.6994 18.9718L39.556 21.056L38.4568 17.695C38.3812 17.4625 38.4639 17.2084 38.6615 17.0647L41.5262 14.9922L37.9902 14.9991C37.9897 14.9991 37.9906 14.9991 37.9902 14.9991C37.7464 14.9991 37.5297 14.8434 37.455 14.6107L36.3686 11.2451L35.2825 14.6107C35.2078 14.8434 34.9918 14.9991 34.7483 14.9991C34.7479 14.9991 34.7486 14.9991 34.7483 14.9991L31.211 14.9922L34.0758 17.0647C34.2735 17.2084 34.356 17.4625 34.2804 17.695L33.181 21.056L36.0378 18.9718C36.1364 18.8996 36.2525 18.863 36.3686 18.863ZM40.6302 23.0955C40.5142 23.0955 40.3978 23.0589 40.2994 22.9872L36.3686 20.1206L32.4378 22.9872C32.2411 23.1309 31.974 23.1321 31.7769 22.9884C31.58 22.8454 31.4978 22.5908 31.5734 22.3599L33.0859 17.7346L29.1441 14.8822C28.9467 14.7405 28.8639 14.4864 28.9393 14.2537C29.0145 14.0229 29.23 13.8666 29.4732 13.8666L34.3398 13.8753L35.8343 9.24523C35.909 9.01432 36.125 8.8562 36.3686 8.8562C36.6121 8.8562 36.8281 9.01432 36.9028 9.24523L38.3973 13.8753L43.2631 13.8666C43.5065 13.8666 43.7227 14.0229 43.7979 14.2537C43.8732 14.4864 43.7906 14.7405 43.593 14.8822L39.6514 17.7346L41.1639 22.3599C41.2395 22.5908 41.1573 22.8454 40.9602 22.9884C40.8619 23.0605 40.7461 23.0955 40.6302 23.0955Z" fill="url(#paint1_linear_144_3766)"/>
<path id="_247807152" d="M32.9174 43.3471C32.6748 43.3471 32.4596 43.1906 32.384 42.9598L30.51 37.2303L25.3681 40.843C25.172 40.9801 24.9099 40.9791 24.7158 40.839C24.5218 40.6983 24.4382 40.4494 24.5085 40.2204L28.8508 25.9859C28.9412 25.6888 29.2549 25.5218 29.5515 25.6126C29.848 25.7033 30.0151 26.0161 29.9246 26.3132L26.0587 38.9867L30.4853 35.8769C30.6309 35.7746 30.8162 35.7467 30.9851 35.8025C31.1539 35.8595 31.2863 35.9925 31.3415 36.1605L32.8988 40.9221L36.8069 28.1114C36.8973 27.8142 37.211 27.648 37.5078 27.7382C37.8041 27.8288 37.9712 28.1421 37.8807 28.4387L33.4545 42.9493C33.3829 43.1836 33.1678 43.3441 32.923 43.3471C32.9212 43.3471 32.9192 43.3471 32.9174 43.3471Z" fill="#F3F3F3"/>
<path id="_247807584" d="M44.2084 42.4407C44.0179 42.4407 43.8362 42.3443 43.7322 42.1781L36.3357 30.3161C36.1718 30.0527 36.2521 29.7062 36.5151 29.5429C36.7782 29.3789 37.1245 29.4592 37.2887 29.7224L43.7442 40.0757L44.0161 35.0742C44.0256 34.8963 44.1192 34.7334 44.2677 34.6357C44.4161 34.5381 44.602 34.516 44.7694 34.5777L49.8499 36.4357L43.3854 26.0761C43.2213 25.8133 43.3017 25.4668 43.5647 25.3029C43.8273 25.1378 44.174 25.218 44.3381 25.4814L51.6669 37.2265C51.7937 37.4299 51.7775 37.6915 51.6265 37.8769C51.4754 38.0624 51.223 38.1328 50.998 38.0507L45.096 35.8915L44.7689 41.9106C44.7557 42.156 44.5854 42.3635 44.3482 42.4233C44.3018 42.4368 44.2547 42.4407 44.2084 42.4407Z" fill="#F3F3F3"/>
<path id="_247807656" d="M51.6045 50.3469H23.5318C23.2218 50.3469 22.9703 50.0956 22.9703 49.7857C22.9703 49.4754 23.2218 49.2241 23.5318 49.2241H51.6045C51.9145 49.2241 52.1658 49.4754 52.1658 49.7857C52.1658 50.0956 51.9145 50.3469 51.6045 50.3469Z" fill="url(#paint2_linear_144_3766)"/>
</g>
</g>
</g>
<defs>
<linearGradient id="paint0_linear_144_3766" x1="24.8762" y1="45.6319" x2="25.0384" y2="48.2546" gradientUnits="userSpaceOnUse">
<stop stop-color="#D8AE5E"/>
<stop offset="1" stop-color="#F2D7A5"/>
</linearGradient>
<linearGradient id="paint1_linear_144_3766" x1="29.8853" y1="7.68277" x2="45.1531" y2="17.6181" gradientUnits="userSpaceOnUse">
<stop stop-color="#D8AE5E"/>
<stop offset="1" stop-color="#F2D7A5"/>
</linearGradient>
<linearGradient id="paint2_linear_144_3766" x1="24.8762" y1="49.1316" x2="25.0385" y2="51.755" gradientUnits="userSpaceOnUse">
<stop stop-color="#D8AE5E"/>
<stop offset="1" stop-color="#F2D7A5"/>
</linearGradient>
<clipPath id="clip0_144_3766">
<rect width="64" height="64" fill="white"/>
</clipPath>
</defs>
</svg>
