<svg width="48" height="48" viewBox="0 0 48 48" fill="none" xmlns="http://www.w3.org/2000/svg">
<g clip-path="url(#clip0_502_650)">
<path d="M0.844116 8.9414C0.844116 8.57897 1.13793 8.28515 1.50037 8.28515H14.8525C15.215 8.28515 15.5088 8.57897 15.5088 8.9414C15.5088 9.30384 15.215 9.59765 14.8525 9.59765H1.50037C1.13793 9.59765 0.844116 9.30384 0.844116 8.9414ZM1.50037 2.15634H23.2277C23.5901 2.15634 23.8839 1.86253 23.8839 1.50009C23.8839 1.13765 23.5901 0.843842 23.2277 0.843842H1.50037C1.13793 0.843842 0.844116 1.13765 0.844116 1.50009C0.844116 1.86253 1.13793 2.15634 1.50037 2.15634ZM1.50037 17.0391H10.5341C10.8966 17.0391 11.1904 16.7452 11.1904 16.3828C11.1904 16.0204 10.8966 15.7266 10.5341 15.7266H1.50037C1.13793 15.7266 0.844116 16.0204 0.844116 16.3828C0.844116 16.7452 1.13793 17.0391 1.50037 17.0391ZM1.50037 24.4805H8.59921C8.96165 24.4805 9.25546 24.1867 9.25546 23.8242C9.25546 23.4618 8.96165 23.168 8.59921 23.168H1.50037C1.13793 23.168 0.844116 23.4618 0.844116 23.8242C0.844116 24.1867 1.13793 24.4805 1.50037 24.4805ZM14.8969 31.2656C14.8969 30.9032 14.6031 30.6094 14.2406 30.6094H1.50037C1.13793 30.6094 0.844116 30.9032 0.844116 31.2656C0.844116 31.6281 1.13793 31.9219 1.50037 31.9219H14.2406C14.6031 31.9219 14.8969 31.6281 14.8969 31.2656ZM46.8276 8.15869L42.1444 16.8995C41.6668 17.8741 40.6652 18.479 39.58 18.4447L35.1859 18.5974L33.1282 26.2764L35.907 28.2523C36.5539 28.7111 36.9921 29.3934 37.1406 30.1733L39.6899 43.5171C40.006 45.1777 38.9124 46.7856 37.2523 47.1017C37.0596 47.1383 36.8674 47.1561 36.678 47.1561C35.236 47.1562 33.9475 46.1314 33.6681 44.6639L31.3556 32.5162L27.0514 29.4557L25.6314 34.3452C25.4112 35.107 24.9111 35.7457 24.2236 36.1425L12.463 42.9427C11.9815 43.2206 11.4549 43.3528 10.9353 43.3528C9.87505 43.3528 8.84287 42.8032 8.27568 41.821C7.43071 40.3573 7.93396 38.4791 9.39758 37.6342L20.1066 31.4512L22.226 24.1533C22.2271 23.6722 22.2977 23.1466 22.438 22.5743C22.4391 22.5698 22.4403 22.5652 22.4415 22.5607L24.2052 15.9784L20.5182 15.9836L16.5921 23.3113C16.2428 23.9613 15.6621 24.4357 14.9564 24.648C14.2506 24.8603 13.5045 24.7851 12.8553 24.4362C12.2061 24.0874 11.7317 23.5066 11.5193 22.8008C11.307 22.0951 11.3822 21.3489 11.731 20.6998L16.4141 11.9592C16.8917 10.9844 17.8941 10.3789 18.9786 10.4137L26.2446 10.1614C26.3089 10.1589 26.3725 10.1663 26.4344 10.1826L33.6429 12.08C34.437 12.2889 35.027 12.601 35.4314 13.0269L38.0301 12.894L41.9665 5.54709C42.3158 4.89712 42.8965 4.42275 43.6023 4.2104C44.308 3.99806 45.0542 4.07325 45.7034 4.42219C47.0434 5.14247 47.5476 6.81862 46.8276 8.15869ZM25.9183 28.6504L23.6675 27.05C23.3847 26.8519 23.1442 26.6297 22.9448 26.3834L21.2931 32.0708C21.2459 32.2334 21.1377 32.3715 20.9911 32.4562L10.0536 38.771C9.64818 39.0051 9.35821 39.3829 9.23709 39.8351C9.11596 40.2874 9.17812 40.7596 9.41212 41.1651C9.8954 42.002 10.9694 42.2897 11.8062 41.8065L23.5668 35.0062C23.9595 34.7796 24.2448 34.4152 24.3705 33.9802L25.9183 28.6504ZM34.5264 15.9874C34.71 15.3043 34.8997 14.598 34.6229 14.1205C34.4298 13.7874 33.9876 13.5279 33.3087 13.3492L26.1936 11.4764L19.0011 11.7262C18.9846 11.7268 18.9682 11.7267 18.9519 11.7262C18.3758 11.7037 17.8406 12.0239 17.5893 12.5436C17.5853 12.5517 17.5812 12.5599 17.5769 12.5678L12.8873 21.3205C12.7041 21.6617 12.6646 22.0529 12.776 22.4228C12.8873 22.7929 13.1361 23.0974 13.4764 23.2803C13.8168 23.4633 14.208 23.5027 14.5779 23.3914C14.948 23.28 15.2525 23.0313 15.4354 22.691L19.5463 15.0183C19.6604 14.8054 19.8822 14.6723 20.1238 14.672L25.0595 14.6649C25.2633 14.6649 25.4565 14.7596 25.5807 14.9213C25.7051 15.0832 25.7471 15.2938 25.6942 15.4911L23.7107 22.8937C23.2356 24.8379 23.8046 25.5438 24.4241 25.9778L32.3307 31.5998C32.4687 31.6979 32.5634 31.8457 32.5951 32.012L34.957 44.4187C35.1378 45.3681 36.0575 45.9935 37.0064 45.8126C37.9556 45.6319 38.5809 44.7125 38.4003 43.7632L35.851 30.4194C35.7663 29.974 35.5161 29.5847 35.1468 29.3227L31.9957 27.0821C31.7723 26.9233 31.6713 26.6422 31.7421 26.3775L34.507 16.0587L34.5264 15.9874ZM45.082 5.5784C44.7416 5.3954 44.3504 5.35594 43.9805 5.46731C43.6104 5.57869 43.3059 5.8274 43.123 6.16772L39.0121 13.8404C38.9035 14.0431 38.6968 14.1742 38.4672 14.1859L36.0469 14.3097C36.1465 15.011 35.957 15.7221 35.7941 16.328L35.7753 16.3982L35.5412 17.2718L39.5575 17.1323C39.5738 17.1317 39.5902 17.1318 39.6066 17.1324C40.1839 17.1559 40.7181 16.8347 40.9693 16.315C40.9732 16.3069 40.9774 16.2988 40.9817 16.2907L45.6712 7.53806C46.049 6.83484 45.7846 5.95603 45.082 5.5784ZM28.0157 6.69619C27.3523 4.22044 28.8268 1.66669 31.3026 1.00331C33.778 0.340123 36.3321 1.81434 36.9955 4.29009C37.6589 6.76594 36.1844 9.31969 33.7086 9.98306C33.3073 10.0906 32.9038 10.142 32.5067 10.142C30.4545 10.142 28.5715 8.7705 28.0157 6.69619ZM29.2835 6.35644C29.7595 8.13309 31.5922 9.19115 33.369 8.71519C35.1456 8.23912 36.2038 6.4064 35.7277 4.62965C35.3288 3.14109 33.9775 2.1569 32.5049 2.1569C32.2198 2.1569 31.9304 2.19375 31.6422 2.2709C29.8656 2.74706 28.8074 4.57978 29.2835 6.35644Z" fill="#F3F3F3"/>
<path d="M8.59921 24.4805H1.50037C1.13793 24.4805 0.844116 24.1867 0.844116 23.8242C0.844116 23.4618 1.13793 23.168 1.50037 23.168H8.59921C8.96165 23.168 9.25546 23.4618 9.25546 23.8242C9.25546 24.1867 8.96165 24.4805 8.59921 24.4805Z" fill="url(#paint0_linear_502_650)"/>
<path d="M14.2406 30.6094C14.6031 30.6094 14.8969 30.9032 14.8969 31.2657C14.8969 31.6281 14.6031 31.9219 14.2406 31.9219H1.50037C1.13793 31.9219 0.844116 31.6281 0.844116 31.2657C0.844116 30.9032 1.13793 30.6094 1.50037 30.6094H14.2406Z" fill="url(#paint1_linear_502_650)"/>
</g>
<defs>
<linearGradient id="paint0_linear_502_650" x1="2.3481" y1="-1.71719" x2="30.0464" y2="11.041" gradientUnits="userSpaceOnUse">
<stop stop-color="#D8AE5E"/>
<stop offset="1" stop-color="#F2D7A5"/>
</linearGradient>
<linearGradient id="paint1_linear_502_650" x1="2.3481" y1="-1.71719" x2="30.0464" y2="11.041" gradientUnits="userSpaceOnUse">
<stop stop-color="#D8AE5E"/>
<stop offset="1" stop-color="#F2D7A5"/>
</linearGradient>
<clipPath id="clip0_502_650">
<rect width="48" height="48" fill="white"/>
</clipPath>
</defs>
</svg>
