<svg width="64" height="64" viewBox="0 0 64 64" fill="none" xmlns="http://www.w3.org/2000/svg">
<g clip-path="url(#clip0_152_3883)">
<path d="M34.1337 17.0667C31.8131 17.0667 29.5446 17.7548 27.615 19.0441C25.6855 20.3333 24.1816 22.1658 23.2935 24.3098C22.4055 26.4538 22.1731 28.813 22.6258 31.089C23.0786 33.3651 24.1961 35.4558 25.837 37.0967C27.4779 38.7376 29.5686 39.8551 31.8447 40.3079C34.1207 40.7606 36.4799 40.5282 38.6239 39.6402C40.7679 38.7521 42.6004 37.2482 43.8896 35.3187C45.1789 33.3891 45.8671 31.1206 45.8671 28.8C45.8634 25.6892 44.626 22.707 42.4264 20.5073C40.2268 18.3077 37.2445 17.0703 34.1337 17.0667ZM34.1337 38.4C32.235 38.4 30.379 37.837 28.8003 36.7821C27.2215 35.7272 25.9911 34.2279 25.2645 32.4737C24.5379 30.7196 24.3478 28.7893 24.7182 26.9271C25.0886 25.0649 26.0029 23.3543 27.3455 22.0118C28.6881 20.6692 30.3986 19.7549 32.2609 19.3844C34.1231 19.014 36.0533 19.2041 37.8075 19.9307C39.5617 20.6573 41.061 21.8878 42.1158 23.4665C43.1707 25.0452 43.7337 26.9013 43.7337 28.8C43.7309 31.3452 42.7186 33.7854 40.9188 35.5851C39.1191 37.3848 36.6789 38.3972 34.1337 38.4Z" fill="url(#paint0_linear_152_3883)"/>
<path d="M56.5333 15.2075C56.5658 14.5637 56.4291 13.9227 56.1369 13.3481C55.8447 12.7736 55.4071 12.2855 54.8678 11.9326C54.3284 11.5796 53.7061 11.374 53.0626 11.3363C52.4191 11.2985 51.777 11.4299 51.2 11.7173V5.33333C51.1983 3.91937 50.6359 2.5638 49.636 1.56397C48.6362 0.564141 47.2806 0.00169371 45.8667 0L22.4 0C20.986 0.00169371 19.6305 0.564141 18.6306 1.56397C17.6308 2.5638 17.0684 3.91937 17.0667 5.33333V18.7243C16.424 18.3417 15.6908 18.1377 14.9429 18.1333C14.0942 18.1333 13.2803 18.4705 12.6802 19.0706C12.0801 19.6707 11.7429 20.4846 11.7429 21.3333V29.8667C11.6896 32.1935 11.3108 34.5014 10.6176 36.7232C10.0082 38.6485 9.66581 40.6483 9.6 42.6667C9.60225 44.3073 9.77346 45.9433 10.1109 47.5488C10.5004 49.452 10.6902 51.3907 10.6773 53.3333C10.5287 56.0591 9.54476 58.673 7.8592 60.8203C7.63954 61.1177 7.50686 61.4703 7.47597 61.8387C7.44508 62.2071 7.51719 62.5769 7.68426 62.9067C7.85133 63.2365 8.10677 63.5134 8.42208 63.7065C8.73739 63.8995 9.10015 64.0012 9.46987 64H28.6795C29.1973 64.0015 29.7103 63.9002 30.1887 63.7021C30.6671 63.504 31.1015 63.213 31.4667 62.8459L34.5749 59.7333H45.8667C47.2806 59.7316 48.6362 59.1692 49.636 58.1694C50.6359 57.1695 51.1983 55.814 51.2 54.4V43.3995L55.3451 39.5595C55.8072 39.1331 56.1536 38.5965 56.3518 37.9998C56.55 37.4031 56.5936 36.7659 56.4785 36.1478C56.3634 35.5297 56.0934 34.9509 55.6937 34.4656C55.294 33.9802 54.7777 33.6042 54.1931 33.3728L55.3451 32.3061C55.8072 31.8798 56.1536 31.3432 56.3518 30.7465C56.55 30.1498 56.5936 29.5126 56.4785 28.8945C56.3634 28.2764 56.0934 27.6976 55.6937 27.2122C55.294 26.7269 54.7777 26.3509 54.1931 26.1195L55.3451 25.0528C55.8066 24.6262 56.1525 24.0895 56.3504 23.493C56.5483 22.8964 56.5918 22.2594 56.4767 21.6415C56.3616 21.0236 56.0918 20.4449 55.6925 19.9596C55.2931 19.4742 54.7773 19.098 54.1931 18.8661L55.3451 17.7995C55.7065 17.4689 55.9978 17.0691 56.2019 16.6239C56.4061 16.1787 56.5187 15.697 56.5333 15.2075ZM27.7333 2.13333H40.5333V3.2C40.5333 3.4829 40.421 3.75421 40.2209 3.95425C40.0209 4.15429 39.7496 4.26667 39.4667 4.26667H28.8C28.5171 4.26667 28.2458 4.15429 28.0458 3.95425C27.8457 3.75421 27.7333 3.4829 27.7333 3.2V2.13333ZM29.9573 61.3333C29.7898 61.5024 29.5904 61.6366 29.3707 61.7282C29.151 61.8197 28.9154 61.8668 28.6773 61.8667H9.7376C11.6198 59.4085 12.6935 56.4271 12.8107 53.3333C12.8227 51.2612 12.6211 49.1934 12.2091 47.1627C11.8979 45.6841 11.7385 44.1776 11.7333 42.6667C11.8058 40.8358 12.1241 39.0229 12.6795 37.2768C13.4207 34.8743 13.8238 32.3803 13.8773 29.8667V21.3333C13.8773 21.0504 13.9897 20.7791 14.1898 20.5791C14.3898 20.379 14.6611 20.2667 14.944 20.2667C15.5079 20.2695 16.0478 20.4955 16.4456 20.8953C16.8434 21.295 17.0667 21.8361 17.0667 22.4V54.4C17.0684 55.814 17.6308 57.1695 18.6306 58.1694C19.6305 59.1692 20.986 59.7316 22.4 59.7333H31.5595L29.9573 61.3333ZM49.0667 54.4C49.0667 55.2487 48.7295 56.0626 48.1294 56.6627C47.5293 57.2629 46.7154 57.6 45.8667 57.6H22.4C21.5513 57.6 20.7374 57.2629 20.1373 56.6627C19.5371 56.0626 19.2 55.2487 19.2 54.4V5.33333C19.2 4.48464 19.5371 3.67071 20.1373 3.07059C20.7374 2.47048 21.5513 2.13333 22.4 2.13333H25.6V3.2C25.6 4.04869 25.9371 4.86263 26.5373 5.46274C27.1374 6.06286 27.9513 6.4 28.8 6.4H39.4667C40.3154 6.4 41.1293 6.06286 41.7294 5.46274C42.3295 4.86263 42.6667 4.04869 42.6667 3.2V2.13333H45.8667C46.7154 2.13333 47.5293 2.47048 48.1294 3.07059C48.7295 3.67071 49.0667 4.48464 49.0667 5.33333V54.4ZM52.8768 35.232C53.0845 35.24 53.2885 35.2892 53.477 35.3765C53.6656 35.4638 53.835 35.5876 53.9755 35.7408C54.2571 36.0526 54.4064 36.4617 54.3917 36.8816C54.377 37.3015 54.1994 37.6992 53.8965 37.9904L51.2 40.4907V36.1461L51.7333 35.6469C51.887 35.5055 52.0671 35.396 52.2634 35.3247C52.4597 35.2535 52.6682 35.222 52.8768 35.232ZM52.8768 27.9787C53.0842 27.9859 53.2881 28.0342 53.4767 28.1208C53.6653 28.2074 53.8348 28.3306 53.9755 28.4832C54.2594 28.7937 54.4102 29.2031 54.3954 29.6236C54.3806 30.044 54.2015 30.4419 53.8965 30.7317L51.2 33.2373V28.8928L51.7333 28.3957C51.8872 28.2548 52.0675 28.1459 52.2638 28.0752C52.4601 28.0045 52.6684 27.9735 52.8768 27.984V27.9787ZM53.8965 23.4795L51.2 25.984V21.6384L51.7333 21.1435C52.0428 20.8591 52.4524 20.709 52.8723 20.7262C53.2922 20.7434 53.6882 20.9265 53.9733 21.2352C54.2553 21.5467 54.4049 21.9557 54.3906 22.3756C54.3763 22.7954 54.1991 23.1933 53.8965 23.4848V23.4795ZM53.8965 16.2261L51.2 18.7307V14.3851L51.7333 13.8891C52.0445 13.6024 52.4569 13.451 52.8797 13.4683C53.3024 13.4856 53.701 13.6701 53.9877 13.9813C54.2745 14.2925 54.4258 14.7049 54.4085 15.1276C54.3912 15.5504 54.2067 15.949 53.8955 16.2357L53.8965 16.2261Z" fill="#F3F3F3"/>
<path d="M37.5578 23.8783L31.6623 31.458L30.6202 30.417C30.419 30.2227 30.1496 30.1151 29.8699 30.1176C29.5902 30.12 29.3227 30.2322 29.1249 30.43C28.9272 30.6277 28.815 30.8953 28.8125 31.1749C28.8101 31.4546 28.9176 31.7241 29.1119 31.9252L31.0074 33.8207C31.2074 34.0208 31.4787 34.1332 31.7615 34.1332H31.8287C31.9795 34.1241 32.1267 34.0828 32.2602 34.0122C32.3938 33.9415 32.5107 33.8431 32.6031 33.7236L39.241 25.1903C39.3307 25.0801 39.3975 24.9532 39.4374 24.8169C39.4774 24.6805 39.4897 24.5376 39.4736 24.3965C39.4576 24.2553 39.4135 24.1188 39.344 23.9949C39.2745 23.8711 39.181 23.7623 39.0689 23.6751C38.9568 23.5878 38.8284 23.5238 38.6912 23.4869C38.5541 23.45 38.4109 23.4408 38.2701 23.4599C38.1294 23.479 37.9939 23.5261 37.8715 23.5983C37.7492 23.6705 37.6425 23.7664 37.5578 23.8804V23.8783Z" fill="url(#paint1_linear_152_3883)"/>
<path d="M40.5327 53.3335H27.7327C27.4498 53.3335 27.1785 53.4459 26.9784 53.6459C26.7784 53.846 26.666 54.1173 26.666 54.4002C26.666 54.6831 26.7784 54.9544 26.9784 55.1544C27.1785 55.3544 27.4498 55.4668 27.7327 55.4668H40.5327C40.8156 55.4668 41.0869 55.3544 41.2869 55.1544C41.487 54.9544 41.5993 54.6831 41.5993 54.4002C41.5993 54.1173 41.487 53.846 41.2869 53.6459C41.0869 53.4459 40.8156 53.3335 40.5327 53.3335Z" fill="#F3F3F3"/>
</g>
<defs>
<linearGradient id="paint0_linear_152_3883" x1="23.9322" y1="15.1328" x2="48.6048" y2="30.4622" gradientUnits="userSpaceOnUse">
<stop stop-color="#D8AE5E"/>
<stop offset="1" stop-color="#F2D7A5"/>
</linearGradient>
<linearGradient id="paint1_linear_152_3883" x1="29.5089" y1="22.5698" x2="40.7339" y2="29.5342" gradientUnits="userSpaceOnUse">
<stop stop-color="#D8AE5E"/>
<stop offset="1" stop-color="#F2D7A5"/>
</linearGradient>
<clipPath id="clip0_152_3883">
<rect width="64" height="64" fill="white"/>
</clipPath>
</defs>
</svg>
