<svg width="32" height="32" viewBox="0 0 32 32" fill="none" xmlns="http://www.w3.org/2000/svg">
<path d="M28.7293 5.18162L16.4793 0.0955547C16.1724 -0.0318203 15.8275 -0.0318828 15.5207 0.0955547L3.27069 5.18162C2.80413 5.37537 2.5 5.83087 2.5 6.33606V12.5189C2.5 21.0322 7.64556 28.6901 15.5276 31.9073C15.8304 32.0309 16.1696 32.0309 16.4724 31.9073C24.3543 28.6902 29.5 21.0322 29.5 12.5189V6.33606C29.5 5.83087 29.1959 5.37537 28.7293 5.18162ZM27 12.5189C27 19.7561 22.75 26.4184 16 29.3922C9.43038 26.4978 5 19.9522 5 12.5189V7.17056L16 2.60343L27 7.17056V12.5189ZM14.6184 16.7322L19.9911 11.3596C20.4792 10.8714 21.2707 10.8714 21.7589 11.3596C22.2471 11.8477 22.247 12.6392 21.7588 13.1273L15.5022 19.3839C15.014 19.8721 14.2226 19.8719 13.7345 19.3839L10.2411 15.8905C9.75294 15.4023 9.75294 14.6109 10.2411 14.1227C10.7293 13.6346 11.5208 13.6346 12.0089 14.1227L14.6184 16.7322Z" fill="url(#paint0_linear_108_64_1)"/>
<defs>
<linearGradient id="paint0_linear_108_64_1" x1="4.2625" y1="-2.63703" x2="35.1264" y2="13.5428" gradientUnits="userSpaceOnUse">
<stop stop-color="#D8AE5E"/>
<stop offset="1" stop-color="#F2D7A5"/>
</linearGradient>
</defs>
</svg>
