<svg width="952" height="952" viewBox="0 0 952 952" fill="none" xmlns="http://www.w3.org/2000/svg">
<g opacity="0.25">
<path d="M854.785 378.897C880.691 480.101 865.653 585.34 812.353 675.224C759.128 765.089 674.06 828.885 572.841 854.795C471.622 880.705 366.364 865.629 276.507 812.39C186.65 759.151 122.897 674.082 96.9905 572.878C71.0843 471.675 86.1419 366.511 139.422 276.552C192.647 186.687 277.716 122.891 378.935 96.981C480.153 71.0709 585.337 86.1658 675.194 139.405C765.145 192.699 828.879 277.694 854.785 378.897ZM99.9059 572.132C125.602 672.514 188.865 756.913 278.065 809.763C367.265 862.613 471.699 877.582 572.095 851.882C672.492 826.183 756.889 762.877 809.744 673.743C862.579 584.535 877.51 480.12 851.814 379.738C826.118 279.356 762.855 194.957 673.655 142.107C584.456 89.2565 480.04 74.3628 379.644 100.062C279.247 125.762 194.85 189.068 141.995 278.201C89.1407 367.335 74.21 471.75 99.9059 572.132Z" fill="url(#paint0_linear_504_795)"/>
<path d="M835.796 383.757C860.402 479.882 846.083 579.843 795.529 665.204C744.975 750.566 664.099 811.14 567.964 835.749C471.828 860.357 371.871 846.074 286.445 795.52C201.094 744.948 140.508 664.161 115.902 568.036C91.2956 471.912 105.614 371.951 156.243 286.57C206.798 201.209 287.673 140.635 383.808 116.026C479.944 91.4173 579.901 105.701 665.252 156.274C750.603 206.846 811.19 287.633 835.796 383.757ZM118.892 567.271C143.307 662.649 203.403 742.765 288.097 792.949C372.79 843.132 471.924 857.309 567.312 832.891C662.7 808.474 742.829 748.409 792.994 663.705C843.159 579 857.37 479.862 832.955 384.484C808.54 289.107 748.444 208.99 663.75 158.807C579.056 108.623 479.923 94.4468 384.535 118.864C289.147 143.282 209.017 203.346 158.853 288.051C108.688 372.756 94.4961 471.968 118.892 567.271Z" fill="url(#paint1_linear_504_795)"/>
<path d="M816.883 388.599C840.189 479.645 826.684 574.384 778.726 655.261C730.767 736.138 654.254 793.526 563.127 816.853C472 840.179 377.324 826.613 296.479 778.707C215.634 730.801 158.215 654.297 134.89 563.176C111.565 472.056 125.089 377.392 173.047 296.515C221.006 215.637 297.519 158.25 388.571 134.942C479.623 111.634 574.374 125.182 655.219 173.088C736.158 221.049 793.577 297.553 816.883 388.599ZM137.805 562.43C160.92 652.729 217.774 728.582 297.962 776.099C378.15 823.616 472.077 837.056 562.382 813.94C652.686 790.824 728.528 733.926 776.097 653.705C823.611 573.579 837.008 479.664 813.893 389.365C790.778 299.066 733.924 223.213 653.736 175.696C573.548 128.179 479.621 114.739 389.317 137.855C299.012 160.971 223.17 217.869 175.601 298.089C128.181 378.271 114.691 472.131 137.805 562.43Z" fill="url(#paint2_linear_504_795)"/>
<path d="M797.897 393.46C819.922 479.502 807.118 568.888 761.849 645.336C716.636 721.691 644.335 775.931 558.292 797.957C472.249 819.982 382.873 807.207 306.44 761.912C230.026 716.692 175.83 644.377 153.805 558.335C131.78 472.293 144.584 382.907 189.853 306.459C235.14 230.085 307.367 175.864 393.41 153.838C479.453 131.813 568.829 144.588 645.262 189.883C721.695 235.178 775.891 307.493 797.897 393.46ZM156.795 557.57C178.61 642.79 232.316 714.435 307.998 759.285C383.68 804.136 472.306 816.784 557.527 794.969C642.748 773.154 714.397 719.478 759.221 643.781C804.045 568.083 816.721 479.446 794.907 394.225C773.092 309.005 719.386 237.36 643.704 192.51C568.041 147.734 479.471 134.992 394.175 156.826C308.954 178.641 237.305 232.317 192.481 308.014C147.657 383.712 134.98 472.35 156.795 557.57Z" fill="url(#paint3_linear_504_795)"/>
<path d="M778.981 398.301C821.75 565.38 720.567 736.122 553.489 778.891C386.411 821.66 215.634 720.534 172.865 553.455C130.096 386.375 231.205 215.652 398.283 172.883C565.361 130.115 736.212 231.221 778.981 398.301ZM175.78 552.708C218.148 718.219 387.235 818.345 552.743 775.978C718.251 733.611 818.414 564.483 776.066 399.047C733.717 233.611 564.611 133.41 399.103 175.777C233.595 218.144 133.432 387.272 175.78 552.708Z" fill="url(#paint4_linear_504_795)"/>
<g opacity="0.75">
<path d="M759.994 403.162C800.087 559.785 705.265 719.906 548.578 760.015C391.891 800.124 231.816 705.331 191.704 548.633C151.593 391.936 246.434 231.889 403.121 191.781C559.808 151.672 719.902 246.539 759.994 403.162ZM194.695 547.868C234.386 702.922 392.771 796.715 547.813 757.027C702.856 717.339 796.77 558.963 757.079 403.908C717.388 248.854 559.003 155.061 403.96 194.749C248.918 234.437 155.023 392.888 194.695 547.868Z" fill="url(#paint5_linear_504_795)"/>
</g>
<g opacity="0.75">
<path d="M741.005 408.022C778.421 554.188 689.942 703.613 543.721 741.043C397.499 778.473 248.126 690.013 210.691 543.772C173.275 397.606 261.754 248.181 407.976 210.751C554.197 173.321 703.59 261.855 741.005 408.022ZM213.681 543.007C250.696 687.605 398.473 775.12 543.05 738.111C687.626 701.102 775.179 553.347 738.165 408.749C701.15 264.151 553.373 176.636 408.796 213.645C264.219 250.654 176.686 398.483 213.681 543.007Z" fill="url(#paint6_linear_504_795)"/>
</g>
<g opacity="0.75">
<path d="M722.094 412.863C756.833 548.573 674.696 687.302 538.941 722.053C403.185 756.804 264.494 674.602 229.755 538.892C195.015 403.182 277.152 264.453 412.908 229.702C548.664 194.951 687.355 277.152 722.094 412.863ZM232.595 538.165C266.933 672.307 404.009 753.489 538.12 719.159C672.231 684.829 753.442 547.77 719.104 413.628C684.766 279.486 547.69 198.304 413.579 232.634C279.468 266.964 198.277 404.098 232.595 538.165Z" fill="url(#paint7_linear_504_795)"/>
</g>
<g opacity="0.45">
<path d="M703.105 417.723C735.187 543.051 659.298 671.029 534.008 703.101C408.718 735.173 280.654 659.323 248.592 534.07C216.529 408.816 292.398 280.764 417.688 248.692C542.978 216.62 671.042 292.469 703.105 417.723ZM251.582 533.304C283.243 656.989 409.617 731.839 533.263 700.188C656.908 668.537 731.851 542.155 700.189 418.469C668.528 294.784 542.154 219.935 418.434 251.605C294.714 283.275 219.921 409.619 251.582 533.304Z" fill="url(#paint8_linear_504_795)"/>
</g>
<g opacity="0.45">
<path d="M684.192 422.564C713.597 537.436 644.071 654.792 529.246 684.185C414.422 713.578 297.06 644.062 267.655 529.19C238.25 414.318 307.776 296.962 422.6 267.569C537.425 238.176 654.806 307.767 684.192 422.564ZM270.495 528.463C299.48 641.691 415.152 710.207 528.407 681.217C641.661 652.226 710.186 536.558 681.202 423.33C652.217 310.101 536.545 241.585 423.29 270.576C310.036 299.567 241.511 415.234 270.495 528.463Z" fill="url(#paint9_linear_504_795)"/>
</g>
<g opacity="0.25">
<path d="M665.205 427.425C691.933 531.841 628.75 638.501 524.316 665.234C419.958 691.948 313.222 628.784 286.494 524.368C259.766 419.953 322.949 313.293 427.383 286.56C531.835 259.902 638.496 323.085 665.205 427.425ZM289.484 523.603C315.792 626.375 420.837 688.539 523.551 662.246C626.265 635.953 688.523 530.963 662.215 428.191C635.907 325.419 530.862 263.255 428.148 289.547C325.434 315.84 263.176 420.831 289.484 523.603Z" fill="url(#paint10_linear_504_795)"/>
</g>
<g opacity="0.25">
<path d="M646.216 432.285C670.267 526.244 613.426 622.208 519.458 646.262C425.491 670.316 329.532 613.466 305.48 519.507C281.428 425.548 338.27 329.584 432.237 305.53C526.205 281.476 622.183 338.401 646.216 432.285ZM308.47 518.741C332.101 611.057 426.464 666.963 518.787 643.33C611.11 619.697 667.006 525.328 643.375 433.012C619.744 340.696 525.381 284.791 433.058 308.423C340.735 332.056 284.839 426.425 308.47 518.741Z" fill="url(#paint11_linear_504_795)"/>
</g>
<g opacity="0.25">
<path d="M627.303 437.126C648.678 520.629 598.104 605.916 514.677 627.272C431.175 648.646 345.918 598.13 324.543 514.627C303.112 431.218 353.667 345.857 437.094 324.501C520.596 303.126 605.947 353.699 627.303 437.126ZM327.384 513.9C348.338 595.759 431.999 645.332 513.856 624.378C595.714 603.424 645.267 519.751 624.312 437.892C603.358 356.033 519.697 306.46 437.839 327.414C355.982 348.368 306.429 432.041 327.384 513.9Z" fill="url(#paint12_linear_504_795)"/>
</g>
<g opacity="0.15">
<path d="M608.315 441.988C627.013 515.034 582.782 589.625 509.746 608.32C436.71 627.016 362.061 582.777 343.381 509.806C324.702 436.834 368.914 362.169 441.95 343.473C514.986 324.777 589.636 369.016 608.315 441.988ZM346.372 509.04C364.649 580.443 437.609 623.682 509.075 605.388C580.467 587.114 623.752 514.118 605.474 442.715C587.196 371.312 514.237 328.073 442.771 346.367C371.304 364.661 328.094 437.637 346.372 509.04Z" fill="url(#paint13_linear_504_795)"/>
</g>
<g opacity="0.15">
<path d="M589.405 446.831C605.427 509.42 567.557 573.39 504.987 589.407C442.417 605.423 378.469 567.517 362.447 504.927C346.426 442.338 384.295 378.368 446.865 362.352C509.455 346.409 573.383 384.241 589.405 446.831ZM365.288 504.2C380.889 565.147 443.147 602.053 504.148 586.438C565.148 570.823 602.016 508.542 586.415 447.596C570.814 386.65 508.556 349.743 447.555 365.358C386.63 380.954 349.687 443.254 365.288 504.2Z" fill="url(#paint14_linear_504_795)"/>
</g>
<g opacity="0.15">
<path d="M570.414 451.689C583.759 503.823 552.232 557.096 500.053 570.453C447.948 583.791 394.628 552.237 381.283 500.103C367.938 447.97 399.464 394.697 451.644 381.34C503.842 368.058 557.069 399.556 570.414 451.689ZM384.273 499.338C397.197 549.828 448.828 580.382 499.288 567.465C549.823 554.529 580.348 502.945 567.424 452.455C554.499 401.965 502.868 371.411 452.408 384.328C401.948 397.244 371.348 448.848 384.273 499.338Z" fill="url(#paint15_linear_504_795)"/>
</g>
<g opacity="0.15">
<path d="M551.502 456.531C562.171 498.208 536.912 540.805 495.273 551.463C453.56 562.141 411.015 536.901 400.347 495.224C389.678 453.548 414.937 410.951 456.576 400.293C498.215 389.634 540.834 414.855 551.502 456.531ZM403.262 494.478C413.51 534.511 454.459 558.807 494.527 548.55C534.596 538.294 558.854 497.386 548.587 457.278C538.339 417.244 497.391 392.949 457.322 403.205C417.272 413.537 393.015 454.445 403.262 494.478Z" fill="url(#paint16_linear_504_795)"/>
</g>
<g opacity="0.15">
<path d="M532.515 461.392C540.507 492.612 521.59 524.513 490.342 532.511C459.095 540.51 427.177 521.622 419.186 490.402C411.194 459.182 430.11 427.281 461.358 419.283C492.606 411.284 524.523 430.172 532.515 461.392ZM422.176 489.637C429.747 519.214 459.994 537.176 489.597 529.598C519.2 522.021 537.115 491.809 529.525 462.157C521.954 432.58 491.707 414.618 462.104 422.195C432.501 429.773 414.605 460.06 422.176 489.637Z" fill="url(#paint17_linear_504_795)"/>
</g>
<g opacity="0.15">
<path d="M513.526 466.253C518.841 487.017 506.268 508.221 485.486 513.541C464.704 518.861 443.488 506.306 438.173 485.542C432.858 464.779 445.432 443.574 466.214 438.254C486.996 432.935 508.211 445.49 513.526 466.253ZM441.164 484.777C446.058 503.897 465.603 515.527 484.815 510.609C503.952 505.71 515.58 486.101 510.685 466.981C505.791 447.86 486.246 436.23 467.034 441.148C447.822 446.066 436.269 465.656 441.164 484.777Z" fill="url(#paint18_linear_504_795)"/>
</g>
</g>
<defs>
<linearGradient id="paint0_linear_504_795" x1="400.814" y1="573.599" x2="463.164" y2="480.707" gradientUnits="userSpaceOnUse">
<stop stop-color="#D8AE5E" stop-opacity="0.75"/>
<stop offset="0.195" stop-color="#F2D7A5" stop-opacity="0.5"/>
<stop offset="1" stop-color="#F2D7A5" stop-opacity="0.05"/>
</linearGradient>
<linearGradient id="paint1_linear_504_795" x1="404.525" y1="568.702" x2="463.738" y2="480.459" gradientUnits="userSpaceOnUse">
<stop stop-color="#D8AE5E" stop-opacity="0.75"/>
<stop offset="0.195" stop-color="#F2D7A5" stop-opacity="0.5"/>
<stop offset="1" stop-color="#F2D7A5" stop-opacity="0.05"/>
</linearGradient>
<linearGradient id="paint2_linear_504_795" x1="408.32" y1="563.816" x2="464.425" y2="480.217" gradientUnits="userSpaceOnUse">
<stop stop-color="#D8AE5E" stop-opacity="0.75"/>
<stop offset="0.195" stop-color="#F2D7A5" stop-opacity="0.5"/>
<stop offset="1" stop-color="#F2D7A5" stop-opacity="0.05"/>
</linearGradient>
<linearGradient id="paint3_linear_504_795" x1="412.042" y1="558.95" x2="465.039" y2="479.995" gradientUnits="userSpaceOnUse">
<stop stop-color="#D8AE5E" stop-opacity="0.75"/>
<stop offset="0.195" stop-color="#F2D7A5" stop-opacity="0.5"/>
<stop offset="1" stop-color="#F2D7A5" stop-opacity="0.05"/>
</linearGradient>
<linearGradient id="paint4_linear_504_795" x1="415.873" y1="554.022" x2="465.735" y2="479.724" gradientUnits="userSpaceOnUse">
<stop stop-color="#D8AE5E" stop-opacity="0.75"/>
<stop offset="0.195" stop-color="#F2D7A5" stop-opacity="0.5"/>
<stop offset="1" stop-color="#F2D7A5" stop-opacity="0.05"/>
</linearGradient>
<linearGradient id="paint5_linear_504_795" x1="419.548" y1="549.168" x2="466.3" y2="479.506" gradientUnits="userSpaceOnUse">
<stop stop-color="#D8AE5E" stop-opacity="0.75"/>
<stop offset="0.195" stop-color="#F2D7A5" stop-opacity="0.5"/>
<stop offset="1" stop-color="#F2D7A5" stop-opacity="0.05"/>
</linearGradient>
<linearGradient id="paint6_linear_504_795" x1="423.31" y1="544.274" x2="466.941" y2="479.267" gradientUnits="userSpaceOnUse">
<stop stop-color="#D8AE5E" stop-opacity="0.75"/>
<stop offset="0.195" stop-color="#F2D7A5" stop-opacity="0.5"/>
<stop offset="1" stop-color="#F2D7A5" stop-opacity="0.05"/>
</linearGradient>
<linearGradient id="paint7_linear_504_795" x1="427.149" y1="539.361" x2="467.659" y2="479.009" gradientUnits="userSpaceOnUse">
<stop stop-color="#D8AE5E" stop-opacity="0.75"/>
<stop offset="0.195" stop-color="#F2D7A5" stop-opacity="0.5"/>
<stop offset="1" stop-color="#F2D7A5" stop-opacity="0.05"/>
</linearGradient>
<linearGradient id="paint8_linear_504_795" x1="430.817" y1="534.491" x2="468.204" y2="478.778" gradientUnits="userSpaceOnUse">
<stop stop-color="#D8AE5E" stop-opacity="0.75"/>
<stop offset="0.195" stop-color="#F2D7A5" stop-opacity="0.5"/>
<stop offset="1" stop-color="#F2D7A5" stop-opacity="0.05"/>
</linearGradient>
<linearGradient id="paint9_linear_504_795" x1="434.659" y1="529.593" x2="468.939" y2="478.532" gradientUnits="userSpaceOnUse">
<stop stop-color="#D8AE5E" stop-opacity="0.75"/>
<stop offset="0.195" stop-color="#F2D7A5" stop-opacity="0.5"/>
<stop offset="1" stop-color="#F2D7A5" stop-opacity="0.05"/>
</linearGradient>
<linearGradient id="paint10_linear_504_795" x1="438.33" y1="524.724" x2="469.486" y2="478.302" gradientUnits="userSpaceOnUse">
<stop stop-color="#D8AE5E" stop-opacity="0.75"/>
<stop offset="0.195" stop-color="#F2D7A5" stop-opacity="0.5"/>
<stop offset="1" stop-color="#F2D7A5" stop-opacity="0.05"/>
</linearGradient>
<linearGradient id="paint11_linear_504_795" x1="442.091" y1="519.83" x2="470.126" y2="478.062" gradientUnits="userSpaceOnUse">
<stop stop-color="#D8AE5E" stop-opacity="0.75"/>
<stop offset="0.195" stop-color="#F2D7A5" stop-opacity="0.5"/>
<stop offset="1" stop-color="#F2D7A5" stop-opacity="0.05"/>
</linearGradient>
<linearGradient id="paint12_linear_504_795" x1="445.929" y1="514.918" x2="470.843" y2="477.804" gradientUnits="userSpaceOnUse">
<stop stop-color="#D8AE5E" stop-opacity="0.75"/>
<stop offset="0.195" stop-color="#F2D7A5" stop-opacity="0.5"/>
<stop offset="1" stop-color="#F2D7A5" stop-opacity="0.05"/>
</linearGradient>
<linearGradient id="paint13_linear_504_795" x1="449.599" y1="510.049" x2="471.389" y2="477.574" gradientUnits="userSpaceOnUse">
<stop stop-color="#D8AE5E" stop-opacity="0.75"/>
<stop offset="0.195" stop-color="#F2D7A5" stop-opacity="0.5"/>
<stop offset="1" stop-color="#F2D7A5" stop-opacity="0.05"/>
</linearGradient>
<linearGradient id="paint14_linear_504_795" x1="453.444" y1="505.153" x2="472.127" y2="477.33" gradientUnits="userSpaceOnUse">
<stop stop-color="#D8AE5E" stop-opacity="0.75"/>
<stop offset="0.195" stop-color="#F2D7A5" stop-opacity="0.5"/>
<stop offset="1" stop-color="#F2D7A5" stop-opacity="0.05"/>
</linearGradient>
<linearGradient id="paint15_linear_504_795" x1="457.111" y1="500.281" x2="472.67" y2="477.098" gradientUnits="userSpaceOnUse">
<stop stop-color="#D8AE5E" stop-opacity="0.75"/>
<stop offset="0.195" stop-color="#F2D7A5" stop-opacity="0.5"/>
<stop offset="1" stop-color="#F2D7A5" stop-opacity="0.05"/>
</linearGradient>
<linearGradient id="paint16_linear_504_795" x1="460.95" y1="495.37" x2="473.388" y2="476.84" gradientUnits="userSpaceOnUse">
<stop stop-color="#D8AE5E" stop-opacity="0.75"/>
<stop offset="0.195" stop-color="#F2D7A5" stop-opacity="0.5"/>
<stop offset="1" stop-color="#F2D7A5" stop-opacity="0.05"/>
</linearGradient>
<linearGradient id="paint17_linear_504_795" x1="464.62" y1="490.5" x2="473.935" y2="476.609" gradientUnits="userSpaceOnUse">
<stop stop-color="#D8AE5E" stop-opacity="0.75"/>
<stop offset="0.195" stop-color="#F2D7A5" stop-opacity="0.5"/>
<stop offset="1" stop-color="#F2D7A5" stop-opacity="0.05"/>
</linearGradient>
<linearGradient id="paint18_linear_504_795" x1="468.383" y1="485.607" x2="474.576" y2="476.371" gradientUnits="userSpaceOnUse">
<stop stop-color="#D8AE5E" stop-opacity="0.75"/>
<stop offset="0.195" stop-color="#F2D7A5" stop-opacity="0.5"/>
<stop offset="1" stop-color="#F2D7A5" stop-opacity="0.05"/>
</linearGradient>
</defs>
</svg>
