<svg width="24" height="24" viewBox="0 0 24 24" fill="none" xmlns="http://www.w3.org/2000/svg">
<g id="Frame 125">
<path id="Vector" d="M15.8373 6.4408L9.20567 14.2454L8.03341 13.1735C7.80711 12.9734 7.50403 12.8627 7.18943 12.8652C6.87483 12.8677 6.57389 12.9832 6.35143 13.1869C6.12897 13.3905 6.00278 13.666 6.00005 13.9539C5.99731 14.2419 6.11825 14.5193 6.33681 14.7265L8.46896 16.6782C8.69392 16.8842 8.99906 16.9999 9.31725 17H9.39284C9.56249 16.9906 9.72797 16.9481 9.8782 16.8753C10.0284 16.8026 10.16 16.7013 10.2639 16.5782L17.7306 7.79173C17.8315 7.6783 17.9066 7.54757 17.9516 7.40721C17.9965 7.26685 18.0104 7.11969 17.9923 6.97436C17.9743 6.82903 17.9247 6.68846 17.8466 6.5609C17.7684 6.43334 17.6631 6.32136 17.537 6.23154C17.4109 6.14171 17.2665 6.07584 17.1122 6.0378C16.9579 5.99976 16.7969 5.99031 16.6386 6.01001C16.4802 6.0297 16.3278 6.07815 16.1902 6.1525C16.0526 6.22686 15.9326 6.32562 15.8373 6.443V6.4408Z" fill="url(#paint0_linear_182_6412)"/>
</g>
<defs>
<linearGradient id="paint0_linear_182_6412" x1="6.78333" y1="5.09352" x2="18.7656" y2="13.2151" gradientUnits="userSpaceOnUse">
<stop stop-color="#D8AE5E"/>
<stop offset="1" stop-color="#F2D7A5"/>
</linearGradient>
</defs>
</svg>
