<?xml version="1.0" encoding="UTF-8"?>
<svg xmlns="http://www.w3.org/2000/svg" width="48" height="48" viewBox="0 0 48 48" fill="none">
  <path d="M43.4599 24.0001C43.4547 28.3944 41.9654 32.6582 39.2334 36.1001C36.5014 39.542 32.687 41.9602 28.4085 42.9627C24.13 43.9651 19.6383 43.4931 15.6617 41.6231C11.6851 39.7531 8.45671 36.5947 6.49994 32.6601C6.39108 32.4822 6.32051 32.2836 6.29273 32.0769C6.26495 31.8702 6.28057 31.66 6.33859 31.4597C6.39662 31.2594 6.49578 31.0734 6.62973 30.9135C6.76369 30.7537 6.9295 30.6236 7.11658 30.5314C7.30366 30.4393 7.5079 30.3872 7.71626 30.3784C7.92462 30.3696 8.13252 30.4044 8.32668 30.4805C8.52085 30.5566 8.69701 30.6723 8.84393 30.8203C8.99084 30.9683 9.10528 31.1453 9.17994 31.3401C10.7793 34.5786 13.3959 37.2037 16.6293 38.8135C19.8626 40.4233 23.5344 40.929 27.0825 40.2533C30.6307 39.5777 33.8596 37.7578 36.2749 35.0723C38.6903 32.3868 40.159 28.9837 40.4561 25.384C40.7532 21.7844 39.8625 18.1865 37.9202 15.1413C35.9779 12.0961 33.0911 9.77139 29.7018 8.52304C26.3125 7.27469 22.6074 7.17153 19.1539 8.22935C15.7004 9.28716 12.6887 11.4477 10.5799 14.3801L13.8599 13.3801C14.049 13.3215 14.2478 13.3009 14.4449 13.3196C14.642 13.3382 14.8334 13.3956 15.0082 13.4886C15.1829 13.5816 15.3376 13.7082 15.4632 13.8612C15.5888 14.0142 15.6828 14.1905 15.7399 14.3801C15.8527 14.762 15.8112 15.1729 15.6242 15.5244C15.4372 15.876 15.1197 16.1401 14.7399 16.2601L8.39994 18.2601C8.25392 18.2796 8.10596 18.2796 7.95994 18.2601C7.63946 18.2552 7.32847 18.1505 7.07034 17.9605C6.81222 17.7704 6.61981 17.5046 6.51994 17.2001L4.51994 10.8601C4.46347 10.6657 4.44584 10.4621 4.46805 10.261C4.49025 10.0598 4.55187 9.86496 4.64937 9.6876C4.74687 9.51024 4.87835 9.35382 5.0363 9.22728C5.19425 9.10073 5.37559 9.00653 5.56994 8.95006C5.7643 8.8936 5.96787 8.87596 6.16904 8.89817C6.37022 8.92038 6.56504 8.98199 6.7424 9.07949C6.91976 9.17699 7.07618 9.30847 7.20273 9.46642C7.32928 9.62438 7.42347 9.80571 7.47994 10.0001L8.23994 12.5401C10.6611 9.21958 14.0704 6.74985 17.9801 5.48412C21.8897 4.21839 26.0996 4.22152 30.0074 5.49305C33.9152 6.76459 37.3208 9.23939 39.737 12.5635C42.1532 15.8875 43.4563 19.8906 43.4599 24.0001ZM23.9999 12.5001C23.6037 12.5052 23.2252 12.6649 22.945 12.9451C22.6648 13.2253 22.5051 13.6039 22.4999 14.0001V15.4401C21.4413 15.6181 20.4718 16.143 19.7441 16.9323C19.0164 17.7216 18.5718 18.7304 18.4801 19.8C18.3885 20.8696 18.6551 21.9394 19.238 22.8409C19.8209 23.7425 20.6869 24.4246 21.6999 24.7801L25.2799 26.0601C25.6935 26.2022 26.043 26.487 26.2657 26.8634C26.4883 27.2398 26.5696 27.6833 26.495 28.1142C26.4204 28.5451 26.1947 28.9354 25.8584 29.215C25.5221 29.4946 25.0973 29.6453 24.6599 29.6401H23.8599C22.7676 29.6409 21.6957 29.3436 20.7599 28.7801C20.4178 28.5732 20.0075 28.5107 19.6193 28.6064C19.2311 28.702 18.8968 28.9479 18.6899 29.2901C18.4831 29.6322 18.4206 30.0425 18.5162 30.4307C18.6119 30.8189 18.8578 31.1532 19.1999 31.3601C20.2156 31.9581 21.3353 32.3585 22.4999 32.5401V34.0001C22.4999 34.3979 22.658 34.7794 22.9393 35.0607C23.2206 35.342 23.6021 35.5001 23.9999 35.5001C24.3978 35.5001 24.7793 35.342 25.0606 35.0607C25.3419 34.7794 25.4999 34.3979 25.4999 34.0001V32.5601C26.5586 32.3821 27.5281 31.8571 28.2558 31.0678C28.9835 30.2786 29.4281 29.2697 29.5198 28.2001C29.6114 27.1305 29.3448 26.0607 28.7619 25.1592C28.179 24.2577 27.3129 23.5755 26.2999 23.2201L22.7199 22.0001C22.3063 21.8579 21.9569 21.5731 21.7342 21.1967C21.5115 20.8203 21.4302 20.3769 21.5049 19.9459C21.5795 19.515 21.8052 19.1248 22.1415 18.8451C22.4777 18.5655 22.9026 18.4148 23.3399 18.4201H24.1399C25.2323 18.4192 26.3042 18.7166 27.2399 19.2801C27.5821 19.4869 27.9924 19.5494 28.3806 19.4538C28.7688 19.3581 29.1031 19.1122 29.3099 18.7701C29.5168 18.4279 29.5793 18.0176 29.4837 17.6294C29.388 17.2412 29.1421 16.9069 28.7999 16.7001C27.7842 16.102 26.6645 15.7017 25.4999 15.5201V14.0001C25.4948 13.6039 25.3351 13.2253 25.0549 12.9451C24.7747 12.6649 24.3962 12.5052 23.9999 12.5001Z" fill="#F3F3F3"></path>
  <path d="M22.945 12.9451C23.2252 12.6649 23.6037 12.5052 23.9999 12.5001C24.3962 12.5052 24.7747 12.6649 25.0549 12.9451C25.3351 13.2253 25.4948 13.6039 25.4999 14.0001V15.5201C26.6645 15.7017 27.7842 16.102 28.7999 16.7001C29.1421 16.9069 29.388 17.2412 29.4837 17.6294C29.5793 18.0176 29.5168 18.4279 29.3099 18.7701C29.1031 19.1122 28.7688 19.3581 28.3806 19.4538C27.9924 19.5494 27.5821 19.4869 27.2399 19.2801C26.3042 18.7166 25.2323 18.4192 24.1399 18.4201H23.3399C22.9026 18.4148 22.4777 18.5655 22.1415 18.8451C21.8052 19.1248 21.5795 19.515 21.5049 19.9459C21.4302 20.3769 21.5115 20.8203 21.7342 21.1967C21.9569 21.5731 22.3063 21.8579 22.7199 22.0001L26.2999 23.2201C27.3129 23.5755 28.179 24.2577 28.7619 25.1592C29.3448 26.0607 29.6114 27.1305 29.5198 28.2001C29.4281 29.2697 28.9835 30.2786 28.2558 31.0678C27.5281 31.8571 26.5586 32.3821 25.4999 32.5601V34.0001C25.4999 34.3979 25.3419 34.7794 25.0606 35.0607C24.7793 35.342 24.3978 35.5001 23.9999 35.5001C23.6021 35.5001 23.2206 35.342 22.9393 35.0607C22.658 34.7794 22.4999 34.3979 22.4999 34.0001V32.5401C21.3353 32.3585 20.2156 31.9581 19.1999 31.3601C18.8578 31.1532 18.6119 30.8189 18.5162 30.4307C18.4206 30.0425 18.4831 29.6322 18.6899 29.2901C18.8968 28.9479 19.2311 28.702 19.6193 28.6064C20.0075 28.5107 20.4178 28.5732 20.7599 28.7801C21.6957 29.3436 22.7676 29.6409 23.8599 29.6401H24.6599C25.0973 29.6453 25.5221 29.4946 25.8584 29.215C26.1947 28.9354 26.4204 28.5451 26.495 28.1142C26.5696 27.6833 26.4883 27.2398 26.2657 26.8634C26.043 26.487 25.6935 26.2022 25.2799 26.0601L21.6999 24.7801C20.6869 24.4246 19.8209 23.7425 19.238 22.8409C18.6551 21.9394 18.3885 20.8696 18.4801 19.8C18.5718 18.7304 19.0164 17.7216 19.7441 16.9323C20.4718 16.143 21.4413 15.6181 22.4999 15.4401V14.0001C22.5051 13.6039 22.6648 13.2253 22.945 12.9451Z" fill="url(#paint0_linear_511_908)"></path>
  <defs>
    <linearGradient id="paint0_linear_511_908" x1="7.00465" y1="1.32818" x2="47.9741" y2="26.8231" gradientUnits="userSpaceOnUse">
      <stop stop-color="#D8AE5E"></stop>
      <stop offset="1" stop-color="#F2D7A5"></stop>
    </linearGradient>
  </defs>
</svg>
