<?xml version="1.0" encoding="UTF-8"?>
<svg xmlns="http://www.w3.org/2000/svg" width="48" height="48" viewBox="0 0 48 48" fill="none">
  <g clip-path="url(#clip0_511_912)">
    <path d="M1.60801 8.80024C1.31838 8.80037 1.03417 8.8788 0.785467 9.02724C0.536762 9.17567 0.332815 9.38858 0.195211 9.64344C0.0583119 9.8941 -0.00837686 10.1771 0.00218366 10.4625C0.0127442 10.7479 0.100162 11.0252 0.255211 11.265C1.12182 12.5132 2.36856 13.4479 3.80961 13.9298C3.4812 14.3713 3.2778 14.893 3.22081 15.4402C3.13005 16.22 3.35166 17.004 3.83721 17.6209C4.32275 18.2377 5.03275 18.6373 5.81201 18.7322C6.87674 18.8578 7.90363 19.2038 8.82721 19.7482C9.6981 20.1975 10.3691 20.9568 10.708 21.8762C11.3051 23.1822 12.1181 24.3782 13.1128 25.4138C13.7972 26.173 14.5665 26.851 15.4056 27.4346C17.5632 29.1074 17.6 32.765 17.6 32.8002C17.1757 32.8002 16.7687 32.9688 16.4686 33.2689C16.1686 33.5689 16 33.9759 16 34.4002V36.2226C15.7576 36.3619 15.556 36.5626 15.4156 36.8044C15.2752 37.0462 15.2009 37.3206 15.2 37.6002V45.6002C15.2 46.2368 15.4529 46.8472 15.903 47.2973C16.353 47.7474 16.9635 48.0002 17.6 48.0002H32.8C33.4365 48.0002 34.047 47.7474 34.4971 47.2973C34.9472 46.8472 35.2 46.2368 35.2 45.6002V37.6002C35.1992 37.3206 35.1248 37.0462 34.9844 36.8044C34.844 36.5626 34.6424 36.3619 34.4 36.2226V34.4002C34.4 33.9759 34.2314 33.5689 33.9314 33.2689C33.6313 32.9688 33.2244 32.8002 32.8 32.8002V29.6002C32.7852 28.6186 33.0133 27.6485 33.464 26.7762C34.1278 25.4156 34.4491 23.9134 34.4 22.4002V10.4002H35.148C35.7514 11.6006 36.676 12.6099 37.8189 13.3161C38.9618 14.0223 40.2782 14.3976 41.6216 14.4002C41.6925 14.4002 41.7637 14.4002 41.8352 14.4002C42.9944 14.3681 44.1305 14.0688 45.1551 13.5257C46.1797 12.9826 47.0651 12.2103 47.7424 11.269C47.8984 11.0289 47.9865 10.751 47.9975 10.4648C48.0084 10.1787 47.9419 9.89487 47.8048 9.64344C47.6672 9.38858 47.4633 9.17567 47.2146 9.02724C46.9659 8.8788 46.6816 8.80037 46.392 8.80024H41.6V5.60024H46.392C46.6798 5.60149 46.9626 5.52508 47.2107 5.37908C47.4587 5.23307 47.6627 5.02287 47.8013 4.77062C47.9399 4.51837 48.0078 4.23342 47.998 3.94578C47.9882 3.65814 47.901 3.37847 47.7456 3.13624C47.0486 2.15823 46.1261 1.3626 45.0563 0.816709C43.9865 0.270823 42.801 -0.0092393 41.6 0.00023748C40.258 -0.00320043 38.9419 0.369805 37.8012 1.07688C36.6606 1.78396 35.7411 2.79676 35.1472 4.00024H33.9552C33.7376 3.61992 33.4437 3.28871 33.092 3.02739C32.7403 2.76607 32.3384 2.5803 31.9114 2.48173C31.4845 2.38317 31.0418 2.37394 30.6111 2.45464C30.1804 2.53533 29.7711 2.7042 29.4088 2.95064C29.2288 2.421 28.9118 1.94841 28.4901 1.58082C28.0685 1.21324 27.5571 0.963737 27.0078 0.85764C26.4586 0.751543 25.891 0.792624 25.3628 0.976715C24.8345 1.16081 24.3644 1.48136 24 1.90584C23.6713 1.52228 23.2555 1.22294 22.7875 1.03282C22.3195 0.842703 21.8128 0.767321 21.3097 0.812972C20.8066 0.858622 20.3217 1.02398 19.8956 1.29524C19.4694 1.56649 19.1143 1.93577 18.86 2.37224C18.4507 2.01806 17.9574 1.77468 17.4272 1.66531C16.8971 1.55595 16.3478 1.58424 15.8317 1.7475C15.3156 1.91077 14.8499 2.20354 14.4791 2.59791C14.1084 2.99227 13.8448 3.47507 13.7136 4.00024H12.8528C12.2589 2.79676 11.3394 1.78396 10.1988 1.07688C9.05813 0.369805 7.74204 -0.00320043 6.40001 0.00023748C5.19923 -0.00933491 4.01383 0.270608 2.94419 0.816358C1.87455 1.36211 0.95219 2.15759 0.255211 3.13544C0.0996196 3.37763 0.0122484 3.65731 0.00230714 3.945C-0.00763411 4.23269 0.0602228 4.51773 0.198725 4.77008C0.337228 5.02243 0.541246 5.23274 0.789274 5.37885C1.0373 5.52495 1.32015 5.60144 1.60801 5.60024H6.40001V8.80024H1.60801ZM13.6 10.4194L13.6048 14.3274C12.958 14.202 12.3225 14.0238 11.7048 13.7946C11.2456 13.6346 10.7448 13.469 10.1848 13.3146C11.3272 12.6096 12.2507 11.6005 12.852 10.4002H13.6C13.6 10.4066 13.6 10.413 13.6 10.4194ZM17.6 34.4002H32.8V36.0002H17.6V34.4002ZM33.6 45.6002C33.6 45.8124 33.5157 46.0159 33.3657 46.1659C33.2157 46.316 33.0122 46.4002 32.8 46.4002H17.6C17.3878 46.4002 17.1844 46.316 17.0343 46.1659C16.8843 46.0159 16.8 45.8124 16.8 45.6002V37.6002H33.6V45.6002ZM32 26.1234C31.4567 27.2008 31.1822 28.3937 31.2 29.6002V32.8002H19.2C19.2 32.6186 19.168 28.3282 16.3448 26.1378C15.5905 25.6126 14.8988 25.0028 14.2832 24.3202C13.3984 23.4014 12.6766 22.3384 12.1488 21.177C11.6712 19.9706 10.7799 18.9736 9.63441 18.3642C8.52125 17.7081 7.28339 17.2915 6.00001 17.141C5.64131 17.0974 5.31449 16.9135 5.09098 16.6295C4.86747 16.3456 4.76545 15.9848 4.80721 15.6258C4.90881 14.7922 5.38721 14.4146 6.35121 14.4026H6.37841H6.41121C8.04491 14.4158 9.66283 14.7237 11.1872 15.3114C12.2106 15.7239 13.2975 15.9569 14.4 16.0002C16.7744 16.0002 24 16.0002 24 24.0002C24 24.2124 24.0843 24.4159 24.2343 24.5659C24.3844 24.716 24.5878 24.8002 24.8 24.8002C25.0122 24.8002 25.2157 24.716 25.3657 24.5659C25.5157 24.4159 25.6 24.2124 25.6 24.0002C25.6 19.7546 23.7528 14.733 15.2072 14.429V13.1578C15.8437 13.5372 16.5941 13.6788 17.3251 13.5574C18.056 13.4359 18.7203 13.0594 19.2 12.4946C19.4964 12.8414 19.8645 13.1197 20.2788 13.3106C20.6931 13.5015 21.1438 13.6003 21.6 13.6003C22.0562 13.6003 22.5069 13.5015 22.9212 13.3106C23.3355 13.1197 23.7036 12.8414 24 12.4946C24.2964 12.8414 24.6645 13.1197 25.0788 13.3106C25.4931 13.5015 25.9439 13.6003 26.4 13.6003C26.8562 13.6003 27.3069 13.5015 27.7212 13.3106C28.1355 13.1197 28.5036 12.8414 28.8 12.4946C29.2807 13.0604 29.9464 13.4373 30.6789 13.5583C31.4113 13.6793 32.1629 13.5366 32.8 13.1554V22.4002C32.8486 23.6887 32.5736 24.9687 32 26.1234ZM35.664 5.60024C35.8233 5.6003 35.9789 5.55282 36.111 5.46389C36.2432 5.37496 36.3457 5.24861 36.4056 5.10104C36.8224 4.06517 37.54 3.17798 38.4659 2.55397C39.3918 1.92995 40.4835 1.59775 41.6 1.60024C42.5329 1.58522 43.4557 1.79555 44.2899 2.21337C45.1242 2.63119 45.8453 3.24417 46.392 4.00024H41.6C41.1757 4.00024 40.7687 4.16881 40.4686 4.46887C40.1686 4.76893 40 5.17589 40 5.60024V8.80024C40 9.22458 40.1686 9.63155 40.4686 9.93161C40.7687 10.2317 41.1757 10.4002 41.6 10.4002H46.4C45.867 11.1281 45.1733 11.7233 44.3728 12.1395C43.5724 12.5557 42.6868 12.7818 41.7848 12.8002C40.6389 12.832 39.5104 12.514 38.5496 11.8886C37.5889 11.2633 36.8413 10.3601 36.4064 9.29944C36.3465 9.15174 36.2438 9.02531 36.1115 8.93636C35.9792 8.84742 35.8234 8.80002 35.664 8.80024H34.4V5.60024H35.664ZM31.2 4.00024C31.6244 4.00024 32.0313 4.16881 32.3314 4.46887C32.6314 4.76893 32.8 5.17589 32.8 5.60024V10.4002C32.8 10.8246 32.6314 11.2315 32.3314 11.5316C32.0313 11.8317 31.6244 12.0002 31.2 12.0002C30.7757 12.0002 30.3687 11.8317 30.0686 11.5316C29.7686 11.2315 29.6 10.8246 29.6 10.4002V5.60024C29.6 5.17589 29.7686 4.76893 30.0686 4.46887C30.3687 4.16881 30.7757 4.00024 31.2 4.00024ZM26.4 2.40024C26.8244 2.40024 27.2313 2.56881 27.5314 2.86887C27.8314 3.16892 28 3.57589 28 4.00024V10.4002C28 10.8246 27.8314 11.2315 27.5314 11.5316C27.2313 11.8317 26.8244 12.0002 26.4 12.0002C25.9757 12.0002 25.5687 11.8317 25.2686 11.5316C24.9686 11.2315 24.8 10.8246 24.8 10.4002V4.00024C24.8 3.57589 24.9686 3.16892 25.2686 2.86887C25.5687 2.56881 25.9757 2.40024 26.4 2.40024ZM20 4.00024C20 3.57589 20.1686 3.16892 20.4686 2.86887C20.7687 2.56881 21.1757 2.40024 21.6 2.40024C22.0244 2.40024 22.4313 2.56881 22.7314 2.86887C23.0314 3.16892 23.2 3.57589 23.2 4.00024V10.4002C23.2 10.8246 23.0314 11.2315 22.7314 11.5316C22.4313 11.8317 22.0244 12.0002 21.6 12.0002C21.1757 12.0002 20.7687 11.8317 20.4686 11.5316C20.1686 11.2315 20 10.8246 20 10.4002V4.00024ZM16.8 3.20024C17.2244 3.20024 17.6313 3.36881 17.9314 3.66887C18.2314 3.96893 18.4 4.37589 18.4 4.80024V10.4002C18.4026 10.8246 18.2364 11.2326 17.9382 11.5344C17.6399 11.8363 17.234 12.0073 16.8096 12.0098C16.3853 12.0124 15.9773 11.8463 15.6754 11.548C15.3736 11.2497 15.2026 10.8438 15.2 10.4194V8.80024V4.80024C15.2 4.37589 15.3686 3.96893 15.6686 3.66887C15.9687 3.36881 16.3757 3.20024 16.8 3.20024ZM6.40001 4.00024H1.60001C2.14878 3.24437 2.87142 2.6317 3.70688 2.21397C4.54233 1.79624 5.46606 1.58574 6.40001 1.60024C7.51656 1.59775 8.60823 1.92995 9.53413 2.55397C10.46 3.17798 11.1777 4.06517 11.5944 5.10104C11.6543 5.24861 11.7569 5.37496 11.889 5.46389C12.0211 5.55282 12.1768 5.6003 12.336 5.60024H13.6V8.80024H12.336C12.1768 8.80018 12.0211 8.84765 11.889 8.93659C11.7569 9.02552 11.6543 9.15186 11.5944 9.29944C11.1629 10.3619 10.4166 11.2668 9.45572 11.8926C8.49483 12.5185 7.3654 12.8352 6.21921 12.8002C5.31756 12.7829 4.43214 12.5573 3.63219 12.1409C2.83224 11.7246 2.13946 11.1288 1.60801 10.4002H6.40001C6.82436 10.4002 7.23132 10.2317 7.53138 9.93161C7.83144 9.63155 8.00001 9.22458 8.00001 8.80024V5.60024C8.00001 5.17589 7.83144 4.76893 7.53138 4.46887C7.23132 4.16881 6.82436 4.00024 6.40001 4.00024Z" fill="#F3F3F3"></path>
    <path d="M33.3657 46.1659C33.5157 46.0159 33.6 45.8124 33.6 45.6002V37.6002H16.8V45.6002C16.8 45.8124 16.8843 46.0159 17.0343 46.1659C17.1844 46.316 17.3878 46.4002 17.6 46.4002H32.8C33.0122 46.4002 33.2157 46.316 33.3657 46.1659Z" fill="url(#paint0_linear_511_912)"></path>
  </g>
  <defs>
    <linearGradient id="paint0_linear_511_912" x1="3.13429" y1="-3.95557" x2="53.6001" y2="27.3979" gradientUnits="userSpaceOnUse">
      <stop stop-color="#D8AE5E"></stop>
      <stop offset="1" stop-color="#F2D7A5"></stop>
    </linearGradient>
    <clipPath id="clip0_511_912">
      <rect width="48" height="48" fill="white"></rect>
    </clipPath>
  </defs>
</svg>
