<?xml version="1.0" encoding="UTF-8"?>
<svg xmlns="http://www.w3.org/2000/svg" width="48" height="48" viewBox="0 0 48 48" fill="none">
  <path d="M38.4536 33.8531C39.2334 33.8843 39.891 33.2777 39.9223 32.4978C40.051 29.2956 39.5394 26.16 38.4015 23.1782C37.2232 20.0902 35.4317 17.3305 33.0769 14.9757C30.7221 12.6209 27.9624 10.8294 24.8744 9.6511C21.8926 8.51324 18.7571 8.00164 15.5548 8.13029C14.775 8.16168 14.1683 8.81917 14.1996 9.59906C14.2144 9.96844 14.3698 10.299 14.6121 10.5413C14.8813 10.8105 15.2579 10.9707 15.6683 10.9543C21.4053 10.7239 27.0222 12.9181 31.0784 16.9742C35.1346 21.0304 37.3288 26.6473 37.0984 32.3844C37.0671 33.1643 37.6738 33.8219 38.4536 33.8531Z" fill="url(#paint0_linear_500_618)"></path>
  <path d="M15.5289 15.0628C20.2378 14.7866 24.8495 16.5393 28.1815 19.8713C31.5135 23.2033 33.266 27.815 32.9899 32.5238C32.9443 33.3029 32.2757 33.8975 31.4966 33.8518C31.1369 33.8307 30.8165 33.6768 30.5804 33.4407C30.3049 33.1652 30.1439 32.7778 30.1685 32.3583C30.3974 28.4545 28.9447 24.6314 26.1829 21.8697C23.4212 19.1079 19.5981 17.6552 15.6943 17.8841C14.9153 17.9298 14.2467 17.3353 14.2009 16.5561C14.1552 15.7772 14.7498 15.1085 15.5289 15.0628Z" fill="url(#paint1_linear_500_618)"></path>
  <path d="M15.4588 22.0137C18.3671 21.6974 21.22 22.7009 23.2859 24.7668C25.3519 26.8328 26.3554 29.6857 26.0391 32.594C25.9547 33.3698 25.2573 33.9305 24.4814 33.846C24.1485 33.8097 23.8553 33.6607 23.6356 33.441C23.3433 33.1487 23.1813 32.7314 23.2294 32.2884C23.4527 30.2357 22.7449 28.2226 21.2875 26.7653C19.8301 25.3079 17.817 24.6001 15.7644 24.8234C14.9884 24.9077 14.2911 24.3472 14.2068 23.5714C14.1223 22.7955 14.6829 22.0982 15.4588 22.0137Z" fill="url(#paint2_linear_500_618)"></path>
  <circle cx="16.5171" cy="31.5358" r="2.82623" transform="rotate(45 16.5171 31.5358)" fill="#F3F3F3"></circle>
  <defs>
    <linearGradient id="paint0_linear_500_618" x1="23.6195" y1="2.78639" x2="24.9142" y2="40.2763" gradientUnits="userSpaceOnUse">
      <stop stop-color="#D8AE5E"></stop>
      <stop offset="1" stop-color="#F2D7A5"></stop>
    </linearGradient>
    <linearGradient id="paint1_linear_500_618" x1="23.6195" y1="2.78639" x2="24.9142" y2="40.2763" gradientUnits="userSpaceOnUse">
      <stop stop-color="#D8AE5E"></stop>
      <stop offset="1" stop-color="#F2D7A5"></stop>
    </linearGradient>
    <linearGradient id="paint2_linear_500_618" x1="23.6195" y1="2.78639" x2="24.9142" y2="40.2763" gradientUnits="userSpaceOnUse">
      <stop stop-color="#D8AE5E"></stop>
      <stop offset="1" stop-color="#F2D7A5"></stop>
    </linearGradient>
  </defs>
</svg>
