<?xml version="1.0" encoding="UTF-8"?>
<svg xmlns="http://www.w3.org/2000/svg" width="64" height="64" viewBox="0 0 64 64" fill="none">
  <path d="M62 24H57.787C57.2954 22.4193 56.6594 20.8872 55.887 19.423L58.866 16.443C59.0535 16.2555 59.1588 16.0012 59.1588 15.736C59.1588 15.4708 59.0535 15.2165 58.866 15.029L48.966 5.129C48.7785 4.94153 48.5242 4.83621 48.259 4.83621C47.9938 4.83621 47.7395 4.94153 47.552 5.129L44.572 8.108C43.1094 7.33736 41.5789 6.70302 40 6.213V2C40 1.73478 39.8946 1.48043 39.7071 1.29289C39.5196 1.10536 39.2652 1 39 1H25C24.7348 1 24.4804 1.10536 24.2929 1.29289C24.1054 1.48043 24 1.73478 24 2V6.213C22.4192 6.70434 20.887 7.34036 19.423 8.113L16.443 5.13C16.2555 4.94253 16.0012 4.83721 15.736 4.83721C15.4708 4.83721 15.2165 4.94253 15.029 5.13L5.129 15.03C4.94153 15.2175 4.83621 15.4718 4.83621 15.737C4.83621 16.0022 4.94153 16.2565 5.129 16.444L8.108 19.424C7.33738 20.888 6.70304 22.4198 6.213 24H2C1.73478 24 1.48043 24.1054 1.29289 24.2929C1.10536 24.4804 1 24.7348 1 25V39C1 39.2652 1.10536 39.5196 1.29289 39.7071C1.48043 39.8946 1.73478 40 2 40H6.213C6.70442 41.5805 7.34044 43.1123 8.113 44.576L5.13 47.556C4.94253 47.7435 4.83721 47.9978 4.83721 48.263C4.83721 48.5282 4.94253 48.7825 5.13 48.97L15.03 58.87C15.2211 59.0507 15.474 59.1513 15.737 59.1513C16 59.1513 16.2529 59.0507 16.444 58.87L19.424 55.891C20.8879 56.6622 22.4197 57.2969 24 57.787V62C24 62.2652 24.1054 62.5196 24.2929 62.7071C24.4804 62.8946 24.7348 63 25 63H39C39.2652 63 39.5196 62.8946 39.7071 62.7071C39.8946 62.5196 40 62.2652 40 62V57.787C41.5808 57.2957 43.113 56.6596 44.577 55.887L47.557 58.866C47.7481 59.0467 48.001 59.1473 48.264 59.1473C48.527 59.1473 48.7799 59.0467 48.971 58.866L58.871 48.966C59.0585 48.7785 59.1638 48.5242 59.1638 48.259C59.1638 47.9938 59.0585 47.7395 58.871 47.552L55.892 44.572C56.6626 43.1094 57.297 41.5789 57.787 40H62C62.2652 40 62.5196 39.8946 62.7071 39.7071C62.8946 39.5196 63 39.2652 63 39V25C63 24.7348 62.8946 24.4804 62.7071 24.2929C62.5196 24.1054 62.2652 24 62 24ZM61 38H57.039C56.8207 38 56.6084 38.0715 56.4345 38.2035C56.2606 38.3355 56.1347 38.5207 56.076 38.731C55.5374 40.6607 54.7675 42.5182 53.783 44.263C53.6753 44.4534 53.633 44.6739 53.6627 44.8907C53.6923 45.1074 53.7922 45.3085 53.947 45.463L56.747 48.263L48.262 56.749L45.462 53.949C45.3075 53.7942 45.1064 53.6943 44.8897 53.6647C44.6729 53.635 44.4524 53.6773 44.262 53.785C42.5167 54.7693 40.6589 55.5392 38.729 56.078C38.5187 56.1367 38.3335 56.2626 38.2015 56.4365C38.0695 56.6104 37.998 56.8227 37.998 57.041V61H26V57.039C26 56.8207 25.9285 56.6084 25.7965 56.4345C25.6645 56.2606 25.4793 56.1347 25.269 56.076C23.3391 55.5372 21.4813 54.7673 19.736 53.783C19.5456 53.6753 19.3251 53.633 19.1083 53.6627C18.8916 53.6923 18.6905 53.7922 18.536 53.947L15.736 56.747L7.251 48.263L10.051 45.463C10.2058 45.3085 10.3057 45.1074 10.3353 44.8907C10.365 44.6739 10.3227 44.4534 10.215 44.263C9.23051 42.5182 8.46059 40.6607 7.922 38.731C7.86337 38.5211 7.73776 38.336 7.56428 38.2041C7.3908 38.0721 7.17896 38.0005 6.961 38H3V26H6.961C7.1793 26 7.3916 25.9285 7.56548 25.7965C7.73936 25.6645 7.86528 25.4793 7.924 25.269C8.46276 23.3391 9.23267 21.4813 10.217 19.736C10.3247 19.5456 10.367 19.3251 10.3373 19.1083C10.3077 18.8916 10.2078 18.6905 10.053 18.536L7.253 15.736L15.738 7.251L18.538 10.051C18.6925 10.2058 18.8936 10.3057 19.1103 10.3353C19.3271 10.365 19.5476 10.3227 19.738 10.215C21.4833 9.23067 23.3411 8.46076 25.271 7.922C25.4806 7.863 25.6651 7.73723 25.7967 7.56379C25.9283 7.39034 25.9997 7.1787 26 6.961V3H38V6.961C38 7.1793 38.0715 7.3916 38.2035 7.56548C38.3355 7.73936 38.5207 7.86528 38.731 7.924C40.6609 8.46276 42.5187 9.23267 44.264 10.217C44.4544 10.3247 44.6749 10.367 44.8917 10.3373C45.1084 10.3077 45.3095 10.2078 45.464 10.053L48.264 7.253L56.749 15.738L53.949 18.538C53.7942 18.6925 53.6943 18.8936 53.6647 19.1103C53.635 19.3271 53.6773 19.5476 53.785 19.738C54.7693 21.4833 55.5392 23.3411 56.078 25.271C56.1367 25.4813 56.2626 25.6665 56.4365 25.7985C56.6104 25.9305 56.8227 26.002 57.041 26.002H61V38Z" fill="#F3F3F3"></path>
  <path d="M31.293 14.2921C27.5657 18.011 22.6873 20.3557 17.455 20.9431L16.89 21.0061C16.6453 21.0332 16.4192 21.1496 16.255 21.333C16.0907 21.5164 16 21.7539 16 22.0001C15.9886 26.8324 17.0699 31.6047 19.1632 35.9601C21.2565 40.3155 24.3075 44.1412 28.088 47.1511L31.375 49.7811C31.5467 49.9187 31.759 49.9959 31.9791 50.0006C32.1991 50.0053 32.4145 49.9373 32.592 49.8071L34.692 48.2691C38.8105 45.2367 42.1601 41.2803 44.4714 36.7179C46.7827 32.1556 47.9913 27.1145 48 22.0001C48 21.7539 47.9092 21.5164 47.745 21.333C47.5808 21.1496 47.3547 21.0332 47.11 21.0061L46.545 20.9431C41.3126 20.3557 36.4342 18.011 32.707 14.2921C32.5159 14.1114 32.2629 14.0107 32 14.0107C31.737 14.0107 31.484 14.1114 31.293 14.2921ZM33.506 46.6551L32.026 47.7411L29.338 45.5901C25.9096 42.8607 23.1195 39.4147 21.1632 35.4935C19.2069 31.5722 18.1317 27.2706 18.013 22.8901C23.2389 22.2319 28.1289 19.958 32 16.3861C35.8716 19.9566 40.7615 22.229 45.987 22.8861C45.8441 27.5348 44.6463 32.0903 42.484 36.2081C40.3218 40.3259 37.2518 43.8982 33.506 46.6551Z" fill="url(#paint0_linear_478_297)"></path>
  <path d="M27.707 31.293C27.5195 31.1056 27.2652 31.0002 27 31.0002C26.7349 31.0002 26.4806 31.1056 26.293 31.293L23.293 34.293C23.1056 34.4806 23.0002 34.7349 23.0002 35C23.0002 35.2652 23.1056 35.5195 23.293 35.707L29.293 41.707C29.4806 41.8945 29.7349 41.9998 30 41.9998C30.2652 41.9998 30.5195 41.8945 30.707 41.707L43.707 28.707C43.8945 28.5195 43.9998 28.2652 43.9998 28C43.9998 27.7349 43.8945 27.4806 43.707 27.293L40.707 24.293C40.5195 24.1056 40.2652 24.0002 40 24.0002C39.7349 24.0002 39.4806 24.1056 39.293 24.293L30 33.586L27.707 31.293ZM40 26.414L41.586 28L30 39.586L25.414 35L27 33.414L29.293 35.707C29.4806 35.8945 29.7349 35.9998 30 35.9998C30.2652 35.9998 30.5195 35.8945 30.707 35.707L40 26.414Z" fill="url(#paint1_linear_478_297)"></path>
  <defs>
    <linearGradient id="paint0_linear_478_297" x1="18.0888" y1="11.0449" x2="53.8174" y2="30.7825" gradientUnits="userSpaceOnUse">
      <stop stop-color="#D8AE5E"></stop>
      <stop offset="1" stop-color="#F2D7A5"></stop>
    </linearGradient>
    <linearGradient id="paint1_linear_478_297" x1="24.371" y1="22.5169" x2="44.4321" y2="37.0585" gradientUnits="userSpaceOnUse">
      <stop stop-color="#D8AE5E"></stop>
      <stop offset="1" stop-color="#F2D7A5"></stop>
    </linearGradient>
  </defs>
</svg>
