<?xml version="1.0" encoding="UTF-8"?>
<svg xmlns="http://www.w3.org/2000/svg" width="49" height="48" viewBox="0 0 49 48" fill="none">
  <g clip-path="url(#clip0_501_627)">
    <path d="M12.9456 31.8544C11.2397 31.8544 9.57214 31.3485 8.15377 30.4008C6.73539 29.4531 5.62991 28.106 4.9771 26.53C4.32429 24.954 4.15349 23.2198 4.48629 21.5467C4.81909 19.8736 5.64054 18.3368 6.84676 17.1306C8.05299 15.9244 9.58982 15.1029 11.2629 14.7701C12.936 14.4373 14.6702 14.6081 16.2462 15.2609C17.8222 15.9137 19.1693 17.0192 20.117 18.4376C21.0647 19.856 21.5706 21.5235 21.5706 23.2294C21.5679 25.5161 20.6584 27.7083 19.0415 29.3253C17.4245 30.9422 15.2322 31.8517 12.9456 31.8544ZM12.9456 16.4794C11.6105 16.4794 10.3055 16.8753 9.19546 17.617C8.08543 18.3587 7.22027 19.4129 6.70937 20.6463C6.19848 21.8797 6.06481 23.2369 6.32526 24.5462C6.58571 25.8556 7.22859 27.0583 8.17259 28.0023C9.11659 28.9463 10.3193 29.5892 11.6287 29.8497C12.9381 30.1101 14.2953 29.9765 15.5287 29.4656C16.7621 28.9547 17.8163 28.0895 18.558 26.9795C19.2997 25.8694 19.6956 24.5644 19.6956 23.2294C19.6936 21.4398 18.9818 19.724 17.7164 18.4585C16.4509 17.1931 14.7352 16.4814 12.9456 16.4794Z" fill="#F3F3F3"></path>
    <path d="M24.4768 47.9979H1.41431C1.16567 47.9979 0.927209 47.8992 0.751394 47.7234C0.575579 47.5475 0.476807 47.3091 0.476807 47.0604L0.476807 42.4479C0.476807 39.141 1.79047 35.9695 4.12882 33.6312C6.46716 31.2929 9.63864 29.9792 12.9456 29.9792C16.2525 29.9792 19.424 31.2929 21.7623 33.6312C24.1006 35.9695 25.4143 39.141 25.4143 42.4479V47.0604C25.4143 47.3091 25.3155 47.5475 25.1397 47.7234C24.9639 47.8992 24.7254 47.9979 24.4768 47.9979ZM2.35181 46.1229H23.5393V42.4479C23.5393 39.6383 22.4232 36.9437 20.4365 34.957C18.4498 32.9703 15.7552 31.8542 12.9456 31.8542C10.1359 31.8542 7.44136 32.9703 5.45464 34.957C3.46793 36.9437 2.35181 39.6383 2.35181 42.4479V46.1229Z" fill="#F3F3F3"></path>
    <path d="M36.0081 17.3142C34.3022 17.3142 32.6346 16.8083 31.2163 15.8606C29.7979 14.9128 28.6924 13.5658 28.0396 11.9898C27.3868 10.4138 27.216 8.67958 27.5488 7.0065C27.8816 5.33341 28.703 3.79658 29.9093 2.59036C31.1155 1.38413 32.6523 0.562676 34.3254 0.229879C35.9985 -0.102919 37.7327 0.0678851 39.3087 0.720691C40.8847 1.3735 42.2318 2.47898 43.1795 3.89736C44.1272 5.31573 44.6331 6.98329 44.6331 8.68915C44.6305 10.9759 43.7209 13.1682 42.104 14.7851C40.4871 16.402 38.2948 17.3116 36.0081 17.3142ZM36.0081 1.93915C34.673 1.93915 33.368 2.33503 32.258 3.07673C31.1479 3.81843 30.2828 4.87264 29.7719 6.10604C29.261 7.33944 29.1273 8.69664 29.3878 10.006C29.6482 11.3154 30.2911 12.5181 31.2351 13.4621C32.1791 14.4061 33.3818 15.049 34.6912 15.3095C36.0006 15.5699 37.3578 15.4362 38.5912 14.9253C39.8246 14.4144 40.8788 13.5493 41.6205 12.4393C42.3622 11.3292 42.7581 10.0242 42.7581 8.68915C42.756 6.89956 42.0442 5.18386 40.7788 3.91843C39.5134 2.653 37.7976 1.94119 36.0081 1.93915Z" fill="url(#paint0_linear_501_627)"></path>
    <path d="M47.5393 33.4579H24.4768C24.2282 33.4579 23.9897 33.3591 23.8139 33.1833C23.6381 33.0075 23.5393 32.769 23.5393 32.5204V27.9079C23.5393 24.601 24.853 21.4295 27.1913 19.0912C29.5297 16.7528 32.7011 15.4391 36.0081 15.4391C39.315 15.4391 42.4865 16.7528 44.8248 19.0912C47.1631 21.4295 48.4768 24.601 48.4768 27.9079V32.5204C48.4768 32.769 48.378 33.0075 48.2022 33.1833C48.0264 33.3591 47.7879 33.4579 47.5393 33.4579ZM25.4143 31.5829H46.6018V27.9079C46.6018 25.0983 45.4857 22.4037 43.499 20.417C41.5123 18.4303 38.8177 17.3141 36.0081 17.3141C33.1984 17.3141 30.5039 18.4303 28.5171 20.417C26.5304 22.4037 25.4143 25.0983 25.4143 27.9079V31.5829Z" fill="url(#paint1_linear_501_627)"></path>
  </g>
  <defs>
    <linearGradient id="paint0_linear_501_627" x1="28.5091" y1="-1.35738" x2="46.6456" y2="9.91103" gradientUnits="userSpaceOnUse">
      <stop stop-color="#D8AE5E"></stop>
      <stop offset="1" stop-color="#F2D7A5"></stop>
    </linearGradient>
    <linearGradient id="paint1_linear_501_627" x1="25.1672" y1="13.9543" x2="46.0597" y2="31.9193" gradientUnits="userSpaceOnUse">
      <stop stop-color="#D8AE5E"></stop>
      <stop offset="1" stop-color="#F2D7A5"></stop>
    </linearGradient>
    <clipPath id="clip0_501_627">
      <rect width="48" height="48" fill="white" transform="translate(0.476807)"></rect>
    </clipPath>
  </defs>
</svg>
