<?xml version="1.0" encoding="UTF-8"?>
<svg xmlns="http://www.w3.org/2000/svg" width="48" height="48" viewBox="0 0 48 48" fill="none">
  <g clip-path="url(#clip0_511_915)">
    <path d="M46.5938 6.02503H40.4688V4.41872C40.4688 1.98225 38.4864 0 36.05 0C33.6092 0 31.6312 1.97428 31.6312 4.41872V6.02494H28.4187V4.41872C28.4188 1.98225 26.4365 0 24 0C21.5591 0 19.5812 1.97437 19.5812 4.41872V6.02494H16.3688V4.41872C16.3688 1.98225 14.3865 0 11.95 0C9.50925 0 7.53122 1.97419 7.53122 4.41872V6.02494H1.40625C0.629625 6.02494 0 6.65456 0 7.43119V46.5938C0 47.3704 0.629625 48 1.40625 48H46.5938C47.3704 48 48 47.3704 48 46.5938V7.43128C48 6.65456 47.3704 6.02503 46.5938 6.02503ZM34.4437 4.41872C34.4437 3.53297 35.1598 2.8125 36.05 2.8125C36.9356 2.8125 37.6563 3.53306 37.6563 4.41872V6.02494H34.4437V4.41872ZM22.3937 4.41872C22.3937 3.53297 23.1098 2.8125 24 2.8125C24.8857 2.8125 25.6063 3.53306 25.6063 4.41872V6.02494H22.3937V4.41872ZM10.3437 4.41872C10.3437 3.53287 11.0599 2.8125 11.95 2.8125C12.8357 2.8125 13.5563 3.53306 13.5563 4.41872V6.02494H10.3437V4.41872ZM45.1875 45.1875H2.8125V17.875H45.1875V45.1875ZM45.1875 15.0625H2.8125V8.83753H7.53122V10.4438C7.53122 11.2204 8.16084 11.85 8.93747 11.85C9.71409 11.85 10.3437 11.2204 10.3437 10.4438V8.83753H19.5812V10.4438C19.5812 11.2204 20.2108 11.85 20.9874 11.85C21.7641 11.85 22.3937 11.2204 22.3937 10.4438V8.83753H31.6312V10.4438C31.6312 11.2204 32.2609 11.85 33.0375 11.85C33.8141 11.85 34.4437 11.2204 34.4437 10.4438V8.83753H45.1875V15.0625Z" fill="#F3F3F3"></path>
    <path d="M16.4688 41.9749C17.2454 41.9749 17.875 41.3453 17.875 40.5687V22.4937C17.875 21.717 17.2454 21.0874 16.4688 21.0874C15.6921 21.0874 15.0625 21.717 15.0625 22.4937V40.5687C15.0625 41.3454 15.6921 41.9749 16.4688 41.9749Z" fill="url(#paint0_linear_511_915)"></path>
    <path d="M28.3165 30.8727L23.9078 34.5472C22.1156 36.0412 21.0876 38.2359 21.0876 40.5687C21.0876 41.3453 21.7172 41.9749 22.4938 41.9749H31.5312C32.3079 41.9749 32.9375 41.3453 32.9375 40.5687C32.9375 39.792 32.3079 39.1624 31.5312 39.1624H24.0997C24.3756 38.2126 24.9295 37.357 25.7082 36.7078L30.1168 33.0334C31.9093 31.5402 32.9374 29.3457 32.9374 27.0124C32.9374 23.7453 30.2795 21.0874 27.0109 21.0874C23.7447 21.0874 21.0874 23.7447 21.0874 27.0109V27.0124C21.0874 27.789 21.717 28.4179 22.4937 28.4179C23.2703 28.4179 23.8999 27.7875 23.8999 27.0109C23.8999 25.2955 25.2955 23.8999 27.0124 23.8999C28.7286 23.8999 30.1248 25.2962 30.1248 27.0124C30.125 28.5082 29.4659 29.9151 28.3165 30.8727Z" fill="url(#paint1_linear_511_915)"></path>
  </g>
  <defs>
    <linearGradient id="paint0_linear_511_915" x1="15.2461" y1="19.3661" x2="19.3161" y2="19.7066" gradientUnits="userSpaceOnUse">
      <stop stop-color="#D8AE5E"></stop>
      <stop offset="1" stop-color="#F2D7A5"></stop>
    </linearGradient>
    <linearGradient id="paint1_linear_511_915" x1="21.8609" y1="19.3661" x2="37.2211" y2="24.7804" gradientUnits="userSpaceOnUse">
      <stop stop-color="#D8AE5E"></stop>
      <stop offset="1" stop-color="#F2D7A5"></stop>
    </linearGradient>
    <clipPath id="clip0_511_915">
      <rect width="48" height="48" fill="white"></rect>
    </clipPath>
  </defs>
</svg>
