<svg width="64" height="64" viewBox="0 0 64 64" fill="none" xmlns="http://www.w3.org/2000/svg">
<path d="M37.319 22.6693C36.967 22.6705 36.6297 22.8109 36.3808 23.0598C36.1319 23.3088 35.9915 23.646 35.9903 23.998V60.002H6.64977V28.0039C6.65047 27.8288 6.61664 27.6552 6.55023 27.4931C6.48382 27.331 6.38612 27.1836 6.26272 27.0593C6.13933 26.935 5.99264 26.8362 5.83106 26.7686C5.66947 26.701 5.49615 26.6659 5.32099 26.6653C5.14501 26.6646 4.97063 26.6988 4.80792 26.7658C4.6452 26.8328 4.49736 26.9314 4.37293 27.0559C4.24849 27.1803 4.14992 27.3281 4.0829 27.4909C4.01588 27.6536 3.98173 27.828 3.98243 28.0039V61.3307C3.98175 61.5067 4.01591 61.681 4.08294 61.8438C4.14997 62.0065 4.24854 62.1543 4.37297 62.2787C4.4974 62.4032 4.64523 62.5018 4.80794 62.5688C4.97065 62.6358 5.14502 62.67 5.32099 62.6693H37.319C37.4942 62.6687 37.6675 62.6336 37.8291 62.566C37.9906 62.4983 38.1373 62.3996 38.2607 62.2753C38.3841 62.151 38.4818 62.0036 38.5482 61.8415C38.6146 61.6794 38.6484 61.5059 38.6478 61.3307V23.998C38.6465 23.646 38.5062 23.3088 38.2572 23.0598C38.0083 22.8109 37.6711 22.6705 37.319 22.6693Z" fill="#F3F3F3"/>
<path d="M21.3151 43.9981C21.1399 43.9987 20.9666 44.0338 20.8051 44.1014C20.6435 44.169 20.4968 44.2678 20.3734 44.3921C20.25 44.5164 20.1523 44.6638 20.0859 44.8258C20.0195 44.9879 19.9857 45.1615 19.9863 45.3366V61.3307C19.9857 61.5059 20.0195 61.6794 20.0859 61.8415C20.1523 62.0036 20.25 62.151 20.3734 62.2753C20.4968 62.3996 20.6435 62.4984 20.805 62.566C20.9666 62.6336 21.1399 62.6687 21.3151 62.6693H31.9844C32.1603 62.67 32.3347 62.6358 32.4974 62.5688C32.6601 62.5018 32.808 62.4032 32.9324 62.2788C33.0568 62.1543 33.1554 62.0065 33.2224 61.8438C33.2895 61.6811 33.3236 61.5067 33.3229 61.3307V45.3366C33.3236 45.1606 33.2894 44.9863 33.2224 44.8236C33.1554 44.6609 33.0568 44.513 32.9324 44.3886C32.8079 44.2642 32.6601 44.1656 32.4974 44.0986C32.3347 44.0315 32.1603 43.9974 31.9844 43.9981H21.3151ZM22.6537 46.6654H30.6556V60.002H22.6537V46.6654Z" fill="#F3F3F3"/>
<path d="M42.4052 44C42.2205 43.9995 42.0374 44.0251 41.8666 44.0754C41.6958 44.1256 41.5406 44.1995 41.41 44.2928C41.2794 44.3861 41.1759 44.497 41.1055 44.619C41.0352 44.741 40.9993 44.8717 41 45.0037V56.9963C40.9993 57.1282 41.0352 57.259 41.1055 57.381C41.1759 57.503 41.2794 57.6138 41.41 57.7072C41.5406 57.8005 41.6958 57.8744 41.8666 57.9246C42.0374 57.9749 42.2205 58.0005 42.4052 58H53.6051C53.789 57.9995 53.9709 57.9732 54.1405 57.9225C54.3101 57.8718 54.4641 57.7977 54.5936 57.7045C54.7232 57.6113 54.8257 57.5008 54.8955 57.3793C54.9652 57.2578 55.0007 57.1276 55 56.9963V45.0037C55.0007 44.8723 54.9652 44.7422 54.8954 44.6207C54.8257 44.4992 54.7232 44.3887 54.5936 44.2954C54.4641 44.2022 54.3101 44.1282 54.1405 44.0775C53.9709 44.0268 53.789 44.0005 53.6051 44H42.4052ZM43.8 46.5H52.2L52.2 55.5H43.8L43.8 46.5Z" fill="url(#paint0_linear_357_526)"/>
<path d="M58.6477 43.9981C58.4726 43.9987 58.2992 44.0338 58.1377 44.1014C57.9761 44.169 57.8294 44.2678 57.706 44.3921C57.5826 44.5164 57.4849 44.6638 57.4185 44.8258C57.3521 44.9879 57.3183 45.1615 57.319 45.3366V60.002H37.319C36.9669 60.0032 36.6297 60.1436 36.3808 60.3925C36.1318 60.6414 35.9915 60.9787 35.9902 61.3307C35.9896 61.5059 36.0234 61.6794 36.0898 61.8415C36.1562 62.0036 36.2539 62.151 36.3773 62.2753C36.5007 62.3996 36.6473 62.4984 36.8089 62.566C36.9705 62.6336 37.1438 62.6687 37.319 62.6693H58.6576C58.8327 62.6687 59.006 62.6336 59.1676 62.566C59.3292 62.4984 59.4759 62.3996 59.5992 62.2753C59.7226 62.151 59.8203 62.0036 59.8867 61.8415C59.9532 61.6794 59.987 61.5059 59.9863 61.3307V45.3366C59.987 45.1606 59.9529 44.9863 59.8858 44.8235C59.8188 44.6608 59.7202 44.513 59.5958 44.3886C59.4713 44.2641 59.3235 44.1656 59.1608 44.0985C58.9981 44.0315 58.8237 43.9974 58.6477 43.9981Z" fill="#F3F3F3"/>
<path d="M31.8958 24.6673C28.2513 25.7176 24.5666 26.923 20.9214 28.063C20.3661 28.2368 19.9876 28.7508 19.9863 29.3326V38.6633C19.9835 39.3999 20.5785 39.9993 21.3151 40.002H31.9844C32.7248 40.0048 33.3258 39.4038 33.3229 38.6633V33.9193C33.3259 33.1788 32.7249 32.5778 31.9844 32.5807C31.2477 32.5832 30.6527 33.1826 30.6556 33.9193V37.3346H22.6537V30.3169L30.6556 27.8169V29.1653C30.6528 29.9019 31.2478 30.5014 31.9844 30.5039C32.7249 30.5068 33.3259 29.9058 33.3229 29.1653V25.996C33.3221 25.2232 32.6667 24.613 31.8958 24.6673Z" fill="url(#paint1_linear_357_526)"/>
<path d="M18.2529 45.3366C18.2536 45.1615 18.2198 44.9879 18.1534 44.8258C18.0869 44.6638 17.9892 44.5164 17.8659 44.3921C17.7425 44.2678 17.5958 44.169 17.4342 44.1014C17.2727 44.0338 17.0994 43.9987 16.9242 43.9981H9.71948C9.5435 43.9974 9.36913 44.0315 9.20642 44.0986C9.04371 44.1656 8.89588 44.2642 8.77144 44.3886C8.647 44.513 8.54843 44.6609 8.48139 44.8236C8.41436 44.9863 8.3802 45.1606 8.38087 45.3366V57.1673C8.38149 57.3425 8.41661 57.5158 8.48422 57.6774C8.55183 57.8389 8.65062 57.9856 8.77492 58.109C8.89923 58.2324 9.04663 58.3301 9.2087 58.3965C9.37076 58.4629 9.54433 58.4967 9.71948 58.4961H16.9242C17.2762 58.4948 17.6135 58.3544 17.8624 58.1055C18.1113 57.8566 18.2517 57.5194 18.2529 57.1673V45.3366ZM15.5856 46.6654V55.8287H11.0482V46.6654H15.5856Z" fill="url(#paint2_linear_357_526)"/>
<path d="M42.6531 49.3327C42.4771 49.332 42.3027 49.3661 42.14 49.4331C41.9773 49.5002 41.8294 49.5987 41.705 49.7232C41.5805 49.8476 41.482 49.9955 41.4149 50.1582C41.3479 50.3209 41.3138 50.4953 41.3145 50.6713C41.3151 50.8464 41.3502 51.0197 41.4178 51.1813C41.4854 51.3429 41.5842 51.4896 41.7085 51.613C41.8328 51.7364 41.9802 51.834 42.1423 51.9005C42.3043 51.9669 42.4779 52.0007 42.6531 52H53.3223C53.6744 51.9988 54.0116 51.8584 54.2606 51.6095C54.5095 51.3606 54.6499 51.0233 54.6511 50.6713C54.6518 50.4961 54.618 50.3225 54.5516 50.1604C54.4852 49.9984 54.3875 49.851 54.2641 49.7267C54.1407 49.6023 53.994 49.5036 53.8324 49.436C53.6708 49.3684 53.4975 49.3332 53.3223 49.3327H42.6531Z" fill="url(#paint3_linear_357_526)"/>
<path d="M26.653 53.3331C26.653 53.6867 26.5125 54.0259 26.2625 54.2759C26.0124 54.526 25.6733 54.6664 25.3197 54.6664C25.1446 54.6664 24.9712 54.632 24.8094 54.565C24.6477 54.4979 24.5007 54.3997 24.3769 54.2759C24.2531 54.1521 24.1548 54.0051 24.0878 53.8434C24.0208 53.6816 23.9863 53.5082 23.9863 53.3331C23.9863 53.158 24.0208 52.9846 24.0878 52.8229C24.1548 52.6611 24.253 52.5141 24.3769 52.3903C24.5007 52.2665 24.6477 52.1682 24.8094 52.1012C24.9712 52.0342 25.1446 51.9998 25.3197 51.9998C25.4948 51.9998 25.6682 52.0342 25.8299 52.1013C25.9917 52.1683 26.1387 52.2665 26.2625 52.3903C26.3863 52.5141 26.4845 52.6611 26.5515 52.8229C26.6185 52.9846 26.653 53.158 26.653 53.3331Z" fill="#F3F3F3"/>
<path d="M39.7694 12.8957C26.8518 15.6227 13.5747 18.3183 2.41701 20.6811C1.70127 20.8358 1.24435 21.539 1.39342 22.2559L2.47608 27.4823C2.62625 28.2067 3.33725 28.6705 4.06071 28.5158C16.8804 25.7971 30.2315 23.089 41.2753 20.75C41.991 20.5953 42.448 19.8922 42.2989 19.1752L41.2162 13.9489C41.0761 13.2783 40.4506 12.823 39.7694 12.8957ZM38.8836 15.7993L39.4249 18.4075C29.0221 20.6033 16.7788 23.1012 4.80875 25.6319L4.26742 23.0237C15.4146 20.6665 26.8365 18.3384 38.8836 15.7993Z" fill="#F3F3F3"/>
<path d="M38.7055 29.3327C38.0524 29.2974 37.4688 29.7373 37.3276 30.376C37.1648 31.0934 37.6143 31.8069 38.3315 31.9705C45.4288 33.5703 52.5276 35.3401 59.6898 36.8917L59.1484 39.5C52.0366 37.9455 44.9465 36.2548 37.8295 34.5984C37.1119 34.4291 36.3931 34.8746 36.2252 35.5925C36.0619 36.3069 36.5059 37.019 37.2193 37.187C44.7575 38.9414 52.3002 40.7757 59.8964 42.4134C60.6198 42.5681 61.3309 42.1044 61.4811 41.3799L62.5638 36.1536C62.7129 35.4366 62.2559 34.7336 61.5401 34.5788C53.5375 32.8711 45.5436 30.8593 38.7055 29.3327Z" fill="#F3F3F3"/>
<path d="M54.6309 1.33069C50.2284 1.33069 46.6289 4.93016 46.6289 9.33265C46.6289 13.7351 50.2284 17.3346 54.6309 17.3346C59.0334 17.3346 62.6328 13.7351 62.6328 9.33265C62.6328 4.93016 59.0334 1.33069 54.6309 1.33069ZM54.6309 3.99803C57.5922 3.99803 59.9655 6.37132 59.9655 9.33265C59.9655 12.294 57.5922 14.6673 54.6309 14.6673C51.6695 14.6673 49.2962 12.294 49.2962 9.33265C49.2962 6.37132 51.6695 3.99803 54.6309 3.99803Z" fill="url(#paint4_linear_357_526)"/>
<defs>
<linearGradient id="paint0_linear_357_526" x1="41.9139" y1="42.8463" x2="56.6333" y2="51.9917" gradientUnits="userSpaceOnUse">
<stop stop-color="#D8AE5E"/>
<stop offset="1" stop-color="#F2D7A5"/>
</linearGradient>
<linearGradient id="paint1_linear_357_526" x1="20.8569" y1="23.4" x2="35.901" y2="31.5274" gradientUnits="userSpaceOnUse">
<stop stop-color="#D8AE5E"/>
<stop offset="1" stop-color="#F2D7A5"/>
</linearGradient>
<linearGradient id="paint2_linear_357_526" x1="9.02529" y1="42.8033" x2="21.2274" y2="47.9656" gradientUnits="userSpaceOnUse">
<stop stop-color="#D8AE5E"/>
<stop offset="1" stop-color="#F2D7A5"/>
</linearGradient>
<linearGradient id="paint3_linear_357_526" x1="42.185" y1="49.1128" x2="44.0098" y2="54.7816" gradientUnits="userSpaceOnUse">
<stop stop-color="#D8AE5E"/>
<stop offset="1" stop-color="#F2D7A5"/>
</linearGradient>
<linearGradient id="paint4_linear_357_526" x1="47.6736" y1="0.0118466" x2="64.5" y2="10.4663" gradientUnits="userSpaceOnUse">
<stop stop-color="#D8AE5E"/>
<stop offset="1" stop-color="#F2D7A5"/>
</linearGradient>
</defs>
</svg>
