<svg width="945" height="945" viewBox="0 0 945 945" fill="none" xmlns="http://www.w3.org/2000/svg">
<g opacity="0.25">
<path d="M852.282 564.145C827.707 665.681 765.077 751.58 675.853 805.977C586.703 860.393 481.652 876.85 380.102 852.273C278.551 827.695 192.652 765.022 138.25 675.864C83.8491 586.706 67.429 481.675 92.003 380.139C116.577 278.604 179.189 192.779 268.432 138.307C357.581 83.8921 462.632 67.4344 564.183 92.0122C665.733 116.59 751.558 179.244 805.959 268.402C860.417 357.653 876.856 462.61 852.282 564.145ZM94.928 380.847C70.5535 481.558 86.855 585.768 140.858 674.274C194.861 762.781 280.084 824.972 380.809 849.35C481.535 873.728 585.763 857.389 674.242 803.446C762.74 749.428 824.889 664.205 849.263 563.494C873.638 462.783 857.336 358.573 803.333 270.067C749.33 181.561 664.09 119.444 563.364 95.0663C462.639 70.6883 358.41 87.0277 269.931 140.971C181.451 194.913 119.303 280.136 94.928 380.847Z" fill="url(#paint0_linear_478_138)"/>
<path d="M833.23 559.533C809.889 655.973 750.37 737.549 665.691 789.239C581.012 840.928 481.176 856.506 384.725 833.163C288.275 809.82 206.685 750.332 154.939 665.624C103.267 580.934 87.636 481.17 110.977 384.73C134.318 288.291 193.837 206.715 278.591 155.043C363.27 103.354 463.106 87.7756 559.557 111.119C656.007 134.462 737.597 193.95 789.268 278.64C840.94 363.33 856.571 463.094 833.23 559.533ZM113.977 385.456C90.8173 481.147 106.33 580.089 157.603 664.127C208.877 748.166 289.789 807.172 385.489 830.334C481.19 853.496 580.129 838.018 664.156 786.725C748.183 735.433 807.221 654.534 830.38 558.844C853.54 463.153 838.027 364.211 786.754 280.173C735.48 196.135 654.568 137.128 558.868 113.966C463.167 90.8046 364.228 106.283 280.201 157.575C196.174 208.867 137.118 289.841 113.977 385.456Z" fill="url(#paint1_linear_478_138)"/>
<path d="M814.255 554.941C792.148 646.286 735.796 723.631 655.512 772.577C575.229 821.523 480.739 836.332 389.314 814.205C297.888 792.078 220.627 735.701 171.685 655.479C122.743 575.257 107.901 480.761 130.027 389.341C152.153 297.922 208.487 220.652 288.77 171.706C369.053 122.76 463.543 107.95 554.894 130.059C646.244 152.169 723.58 208.564 772.522 288.786C821.521 369.101 836.363 463.597 814.255 554.941ZM132.952 390.049C111.026 480.644 125.674 574.301 174.218 653.871C222.762 733.441 299.421 789.355 390.021 811.283C480.621 833.21 574.289 818.519 653.92 769.97C733.458 721.479 789.329 644.81 811.255 554.215C833.182 463.62 818.534 369.964 769.989 290.394C721.445 210.824 644.787 154.909 554.186 132.982C463.586 111.054 369.919 125.746 290.287 174.294C210.806 222.879 154.878 299.454 132.952 390.049Z" fill="url(#paint2_linear_478_138)"/>
<path d="M795.207 550.332C774.314 636.656 721.091 709.602 645.26 755.897C569.522 802.136 480.229 816.141 393.903 795.248C307.578 774.355 234.628 721.163 188.358 645.316C142.07 569.544 128.111 480.259 149.004 393.935C169.896 307.611 223.119 234.665 298.95 188.369C374.763 142.149 463.981 128.126 550.307 149.019C636.632 169.912 709.583 223.104 755.852 298.951C802.122 374.798 816.081 464.083 795.207 550.332ZM152.004 394.661C131.311 480.161 145.151 568.624 190.966 643.726C236.78 718.828 309.128 771.557 394.629 792.251C480.129 812.944 568.582 799.132 643.668 753.291C718.754 707.45 771.514 635.105 792.206 549.606C812.899 464.106 799.059 375.643 753.244 300.541C707.412 225.514 635.157 172.728 549.581 152.016C464.081 131.323 375.628 145.135 300.542 190.976C225.457 236.817 172.697 309.162 152.004 394.661Z" fill="url(#paint3_linear_478_138)"/>
<path d="M776.23 545.738C735.66 713.365 566.227 816.726 398.601 776.156C230.975 735.587 127.557 566.189 168.127 398.562C208.697 230.935 378.054 127.555 545.68 168.125C713.306 208.695 816.799 378.111 776.23 545.738ZM171.052 399.27C130.863 565.323 233.258 733.045 399.308 773.234C565.359 813.422 733.134 711.008 773.305 545.03C813.475 379.051 711.099 211.254 545.048 171.066C378.997 130.877 211.223 233.291 171.052 399.27Z" fill="url(#paint4_linear_478_138)"/>
<g opacity="0.75">
<path d="M757.18 541.128C719.149 698.264 560.316 795.227 403.115 757.181C245.914 719.135 148.979 560.348 187.027 403.137C225.076 245.926 383.892 149.038 541.093 187.085C698.293 225.131 795.211 383.992 757.18 541.128ZM190.027 403.863C152.378 559.426 248.29 716.537 403.841 754.184C559.391 791.831 716.605 695.983 754.255 540.42C791.905 384.858 695.993 227.747 540.442 190.1C384.891 152.453 227.659 248.376 190.027 403.863Z" fill="url(#paint5_linear_478_138)"/>
</g>
<g opacity="0.75">
<path d="M738.129 536.517C702.638 683.162 554.422 773.652 407.721 738.147C261.02 702.642 170.567 554.467 206.077 407.747C241.569 261.101 389.785 170.612 536.485 206.117C683.186 241.622 773.621 389.871 738.129 536.517ZM209.077 408.473C173.966 553.545 263.453 700.137 408.503 735.243C553.554 770.348 700.168 680.899 735.279 535.827C770.39 390.755 680.904 244.163 535.853 209.057C390.802 173.952 244.17 263.476 209.077 408.473Z" fill="url(#paint6_linear_478_138)"/>
</g>
<g opacity="0.75">
<path d="M719.156 531.924C686.203 668.079 548.605 752.096 412.404 719.132C276.203 686.168 192.25 548.531 225.203 412.376C258.156 276.221 395.754 192.204 531.955 225.168C668.156 258.132 752.109 395.769 719.156 531.924ZM228.053 413.065C195.481 547.647 278.485 683.627 413.036 716.192C547.587 748.756 683.584 665.78 716.156 531.198C748.728 396.617 665.724 260.637 531.173 228.072C396.622 195.507 260.607 278.559 228.053 413.065Z" fill="url(#paint7_linear_478_138)"/>
</g>
<g opacity="0.45">
<path d="M700.105 527.313C669.673 653.052 542.635 730.503 416.934 700.08C291.233 669.657 213.688 542.613 244.102 416.949C274.516 291.285 401.572 213.759 527.273 244.182C652.973 274.605 730.519 401.649 700.105 527.313ZM247.102 417.675C217.069 541.766 293.591 667.134 417.641 697.158C541.692 727.181 667.147 650.696 697.18 526.605C727.213 402.515 650.691 277.146 526.565 247.104C402.44 217.063 277.135 293.585 247.102 417.675Z" fill="url(#paint8_linear_478_138)"/>
</g>
<g opacity="0.45">
<path d="M681.13 522.721C653.237 637.969 536.799 709.021 421.598 681.14C306.397 653.259 235.335 536.826 263.227 421.578C291.12 306.329 407.559 235.277 522.76 263.158C637.96 291.04 709.005 407.547 681.13 522.721ZM266.078 422.268C238.584 535.867 308.623 650.624 422.248 678.124C535.874 705.625 650.636 635.594 678.13 521.994C705.624 408.395 635.585 293.638 521.959 266.138C408.334 238.637 293.571 308.668 266.078 422.268Z" fill="url(#paint9_linear_478_138)"/>
</g>
<g opacity="0.25">
<path d="M662.08 518.111C636.727 622.869 530.906 687.448 426.13 662.09C321.429 636.75 256.774 530.911 282.128 426.153C307.482 321.396 413.303 256.816 518.079 282.175C622.836 307.608 687.416 413.428 662.08 518.111ZM285.128 426.879C260.173 529.988 323.805 634.152 426.855 659.092C529.906 684.033 634.125 620.494 659.08 517.385C684.035 414.276 620.404 310.113 517.353 285.172C414.303 260.231 310.083 323.77 285.128 426.879Z" fill="url(#paint10_linear_478_138)"/>
</g>
<g opacity="0.25">
<path d="M643.029 513.499C620.215 607.766 525.011 665.872 430.735 643.055C336.46 620.238 278.362 525.029 301.177 430.762C323.992 336.495 419.196 278.389 513.471 301.206C607.747 324.023 665.826 419.307 643.029 513.499ZM304.177 431.488C281.761 524.107 338.892 617.733 431.518 640.151C524.143 662.568 617.764 605.427 640.179 512.809C662.595 420.191 605.464 326.564 512.839 304.147C420.213 281.729 326.593 338.87 304.177 431.488Z" fill="url(#paint11_linear_478_138)"/>
</g>
<g opacity="0.25">
<path d="M624.054 508.907C603.778 592.683 519.117 644.298 435.417 624.04C351.641 603.764 300.026 519.167 320.302 435.391C340.485 351.672 425.164 299.982 508.865 320.24C592.64 340.515 644.312 425.205 624.054 508.907ZM323.152 436.081C303.275 518.209 353.924 601.223 436.049 621.099C518.175 640.976 601.177 590.308 621.054 508.181C640.931 426.053 590.283 343.038 508.157 323.162C426.032 303.286 343.029 353.953 323.152 436.081Z" fill="url(#paint12_linear_478_138)"/>
</g>
<g opacity="0.15">
<path d="M605.004 504.297C587.267 577.582 513.224 622.724 439.948 604.989C366.673 587.255 321.483 513.177 339.202 439.966C356.921 366.756 430.982 321.539 504.258 339.274C577.533 357.008 622.723 431.086 605.004 504.297ZM342.202 440.692C324.864 512.329 369.03 584.732 440.731 602.085C512.356 619.42 584.816 575.244 602.154 503.607C619.492 431.97 575.326 359.567 503.626 342.214C431.925 324.861 359.54 369.055 342.202 440.692Z" fill="url(#paint13_linear_478_138)"/>
</g>
<g opacity="0.15">
<path d="M586.031 499.707C570.833 562.502 507.389 601.245 444.614 586.052C381.838 570.859 343.132 507.392 358.33 444.598C373.527 381.803 436.971 343.06 499.747 358.253C562.504 373.521 601.229 436.912 586.031 499.707ZM361.18 445.288C346.381 506.434 384.064 568.224 445.264 583.036C506.465 597.848 568.232 560.127 583.031 498.981C597.83 437.835 560.147 376.044 498.946 361.232C437.821 346.438 375.978 384.141 361.18 445.288Z" fill="url(#paint14_linear_478_138)"/>
</g>
<g opacity="0.15">
<path d="M566.979 495.094C554.32 547.397 501.494 579.668 449.143 566.998C396.868 554.346 364.569 501.473 377.228 449.169C389.887 396.865 442.713 364.595 495.063 377.265C547.395 390.01 579.638 442.79 566.979 495.094ZM380.228 449.895C367.968 500.55 399.243 551.748 449.869 564C500.569 576.271 551.719 545.023 563.979 494.367C576.239 443.712 544.963 392.515 494.338 380.262C443.713 368.01 392.488 399.24 380.228 449.895Z" fill="url(#paint15_linear_478_138)"/>
</g>
<g opacity="0.15">
<path d="M548.005 490.502C537.885 532.316 495.601 558.095 453.826 547.984C411.976 537.855 386.234 495.612 396.354 453.799C406.474 411.986 448.758 386.207 490.533 396.318C532.308 406.428 558.125 448.689 548.005 490.502ZM399.279 454.507C389.558 494.672 414.333 535.332 454.533 545.062C494.734 554.791 535.341 530.034 545.08 489.795C554.801 449.63 530.026 408.97 489.826 399.24C449.607 389.586 409 414.343 399.279 454.507Z" fill="url(#paint16_linear_478_138)"/>
</g>
<g opacity="0.15">
<path d="M528.955 485.892C521.374 517.214 489.708 536.52 458.358 528.933C427.008 521.345 407.674 489.696 415.254 458.373C422.835 427.051 454.502 407.745 485.852 415.333C517.202 422.92 536.536 454.569 528.955 485.892ZM418.254 459.099C411.073 488.773 429.365 518.822 459.065 526.01C488.765 533.198 518.755 514.914 525.955 485.166C533.137 455.492 514.845 425.443 485.144 418.255C455.444 411.067 425.436 429.426 418.254 459.099Z" fill="url(#paint17_linear_478_138)"/>
</g>
<g opacity="0.15">
<path d="M509.904 481.282C504.862 502.113 483.813 514.946 462.964 509.9C442.114 504.854 429.262 483.816 434.304 462.985C439.346 442.153 460.395 429.32 481.245 434.366C502.094 439.412 514.946 460.45 509.904 481.282ZM437.304 463.711C432.661 482.894 444.471 502.33 463.746 506.995C482.946 511.642 502.411 499.775 507.054 480.592C511.697 461.409 499.887 441.972 480.612 437.307C461.337 432.642 441.947 444.528 437.304 463.711Z" fill="url(#paint18_linear_478_138)"/>
</g>
</g>
<defs>
<linearGradient id="paint0_linear_478_138" x1="360.016" y1="523.242" x2="458.644" y2="470.432" gradientUnits="userSpaceOnUse">
<stop stop-color="#D8AE5E" stop-opacity="0.75"/>
<stop offset="0.195" stop-color="#F2D7A5" stop-opacity="0.5"/>
<stop offset="1" stop-color="#F2D7A5" stop-opacity="0.05"/>
</linearGradient>
<linearGradient id="paint1_linear_478_138" x1="365.589" y1="520.657" x2="459.267" y2="470.482" gradientUnits="userSpaceOnUse">
<stop stop-color="#D8AE5E" stop-opacity="0.75"/>
<stop offset="0.195" stop-color="#F2D7A5" stop-opacity="0.5"/>
<stop offset="1" stop-color="#F2D7A5" stop-opacity="0.05"/>
</linearGradient>
<linearGradient id="paint2_linear_478_138" x1="371.233" y1="518.121" x2="459.988" y2="470.591" gradientUnits="userSpaceOnUse">
<stop stop-color="#D8AE5E" stop-opacity="0.75"/>
<stop offset="0.195" stop-color="#F2D7A5" stop-opacity="0.5"/>
<stop offset="1" stop-color="#F2D7A5" stop-opacity="0.05"/>
</linearGradient>
<linearGradient id="paint3_linear_478_138" x1="376.802" y1="515.568" x2="460.634" y2="470.683" gradientUnits="userSpaceOnUse">
<stop stop-color="#D8AE5E" stop-opacity="0.75"/>
<stop offset="0.195" stop-color="#F2D7A5" stop-opacity="0.5"/>
<stop offset="1" stop-color="#F2D7A5" stop-opacity="0.05"/>
</linearGradient>
<linearGradient id="paint4_linear_478_138" x1="382.497" y1="513.012" x2="461.376" y2="470.77" gradientUnits="userSpaceOnUse">
<stop stop-color="#D8AE5E" stop-opacity="0.75"/>
<stop offset="0.195" stop-color="#F2D7A5" stop-opacity="0.5"/>
<stop offset="1" stop-color="#F2D7A5" stop-opacity="0.05"/>
</linearGradient>
<linearGradient id="paint5_linear_478_138" x1="388.019" y1="510.448" x2="461.977" y2="470.843" gradientUnits="userSpaceOnUse">
<stop stop-color="#D8AE5E" stop-opacity="0.75"/>
<stop offset="0.195" stop-color="#F2D7A5" stop-opacity="0.5"/>
<stop offset="1" stop-color="#F2D7A5" stop-opacity="0.05"/>
</linearGradient>
<linearGradient id="paint6_linear_478_138" x1="393.636" y1="507.89" x2="462.655" y2="470.932" gradientUnits="userSpaceOnUse">
<stop stop-color="#D8AE5E" stop-opacity="0.75"/>
<stop offset="0.195" stop-color="#F2D7A5" stop-opacity="0.5"/>
<stop offset="1" stop-color="#F2D7A5" stop-opacity="0.05"/>
</linearGradient>
<linearGradient id="paint7_linear_478_138" x1="399.331" y1="505.35" x2="463.411" y2="471.04" gradientUnits="userSpaceOnUse">
<stop stop-color="#D8AE5E" stop-opacity="0.75"/>
<stop offset="0.195" stop-color="#F2D7A5" stop-opacity="0.5"/>
<stop offset="1" stop-color="#F2D7A5" stop-opacity="0.05"/>
</linearGradient>
<linearGradient id="paint8_linear_478_138" x1="404.854" y1="502.769" x2="464" y2="471.091" gradientUnits="userSpaceOnUse">
<stop stop-color="#D8AE5E" stop-opacity="0.75"/>
<stop offset="0.195" stop-color="#F2D7A5" stop-opacity="0.5"/>
<stop offset="1" stop-color="#F2D7A5" stop-opacity="0.05"/>
</linearGradient>
<linearGradient id="paint9_linear_478_138" x1="410.544" y1="500.245" x2="464.765" y2="471.219" gradientUnits="userSpaceOnUse">
<stop stop-color="#D8AE5E" stop-opacity="0.75"/>
<stop offset="0.195" stop-color="#F2D7A5" stop-opacity="0.5"/>
<stop offset="1" stop-color="#F2D7A5" stop-opacity="0.05"/>
</linearGradient>
<linearGradient id="paint10_linear_478_138" x1="416.069" y1="497.666" x2="465.356" y2="471.272" gradientUnits="userSpaceOnUse">
<stop stop-color="#D8AE5E" stop-opacity="0.75"/>
<stop offset="0.195" stop-color="#F2D7A5" stop-opacity="0.5"/>
<stop offset="1" stop-color="#F2D7A5" stop-opacity="0.05"/>
</linearGradient>
<linearGradient id="paint11_linear_478_138" x1="421.687" y1="495.106" x2="466.034" y2="471.361" gradientUnits="userSpaceOnUse">
<stop stop-color="#D8AE5E" stop-opacity="0.75"/>
<stop offset="0.195" stop-color="#F2D7A5" stop-opacity="0.5"/>
<stop offset="1" stop-color="#F2D7A5" stop-opacity="0.05"/>
</linearGradient>
<linearGradient id="paint12_linear_478_138" x1="427.38" y1="492.567" x2="466.787" y2="471.469" gradientUnits="userSpaceOnUse">
<stop stop-color="#D8AE5E" stop-opacity="0.75"/>
<stop offset="0.195" stop-color="#F2D7A5" stop-opacity="0.5"/>
<stop offset="1" stop-color="#F2D7A5" stop-opacity="0.05"/>
</linearGradient>
<linearGradient id="paint13_linear_478_138" x1="432.904" y1="489.988" x2="467.378" y2="471.522" gradientUnits="userSpaceOnUse">
<stop stop-color="#D8AE5E" stop-opacity="0.75"/>
<stop offset="0.195" stop-color="#F2D7A5" stop-opacity="0.5"/>
<stop offset="1" stop-color="#F2D7A5" stop-opacity="0.05"/>
</linearGradient>
<linearGradient id="paint14_linear_478_138" x1="438.596" y1="487.466" x2="468.144" y2="471.653" gradientUnits="userSpaceOnUse">
<stop stop-color="#D8AE5E" stop-opacity="0.75"/>
<stop offset="0.195" stop-color="#F2D7A5" stop-opacity="0.5"/>
<stop offset="1" stop-color="#F2D7A5" stop-opacity="0.05"/>
</linearGradient>
<linearGradient id="paint15_linear_478_138" x1="444.119" y1="484.883" x2="468.733" y2="471.702" gradientUnits="userSpaceOnUse">
<stop stop-color="#D8AE5E" stop-opacity="0.75"/>
<stop offset="0.195" stop-color="#F2D7A5" stop-opacity="0.5"/>
<stop offset="1" stop-color="#F2D7A5" stop-opacity="0.05"/>
</linearGradient>
<linearGradient id="paint16_linear_478_138" x1="449.813" y1="482.345" x2="469.488" y2="471.812" gradientUnits="userSpaceOnUse">
<stop stop-color="#D8AE5E" stop-opacity="0.75"/>
<stop offset="0.195" stop-color="#F2D7A5" stop-opacity="0.5"/>
<stop offset="1" stop-color="#F2D7A5" stop-opacity="0.05"/>
</linearGradient>
<linearGradient id="paint17_linear_478_138" x1="455.338" y1="479.765" x2="470.079" y2="471.864" gradientUnits="userSpaceOnUse">
<stop stop-color="#D8AE5E" stop-opacity="0.75"/>
<stop offset="0.195" stop-color="#F2D7A5" stop-opacity="0.5"/>
<stop offset="1" stop-color="#F2D7A5" stop-opacity="0.05"/>
</linearGradient>
<linearGradient id="paint18_linear_478_138" x1="460.956" y1="477.208" x2="470.757" y2="471.954" gradientUnits="userSpaceOnUse">
<stop stop-color="#D8AE5E" stop-opacity="0.75"/>
<stop offset="0.195" stop-color="#F2D7A5" stop-opacity="0.5"/>
<stop offset="1" stop-color="#F2D7A5" stop-opacity="0.05"/>
</linearGradient>
</defs>
</svg>
