<svg width="64" height="64" viewBox="0 0 64 64" fill="none" xmlns="http://www.w3.org/2000/svg">
<g id="Frame">
<g id="Group 6">
<path id="Vector" d="M32.931 38.6896H32.162C34.6469 37.1981 36.5919 34.9096 37.643 32.1724H38.0517C40.3616 32.1724 42.2414 30.2926 42.2414 27.9827C42.2414 25.832 40.6065 24.0752 38.5172 23.8405V23.7931H40.3793C40.8942 23.7931 41.3103 23.376 41.3103 22.862V19.1379C41.3103 18.624 40.8942 18.2069 40.3793 18.2069H39.4054C39.0023 12.2389 34.7726 7.15641 29.0393 5.64161L29.1994 4.35679C29.233 4.09144 29.1501 3.82516 28.9741 3.62499C28.7972 3.42482 28.5431 3.3103 28.2759 3.3103H22.6897C22.4224 3.3103 22.1683 3.42482 21.9914 3.62499C21.8154 3.82516 21.7326 4.09144 21.7661 4.35679L21.9271 5.64254C16.1892 7.15641 11.9632 12.2305 11.5601 18.2069H10.5862C10.0713 18.2069 9.65517 18.624 9.65517 19.1379V22.862C9.65517 23.376 10.0713 23.7931 10.5862 23.7931H12.4483V23.8405C10.359 24.0752 8.72414 25.832 8.72414 27.9827C8.72414 30.2926 10.6039 32.1724 12.9138 32.1724H13.3225C14.3737 34.9096 16.3186 37.1981 18.8035 38.6896H18.0345C10.8469 38.6896 5 44.5365 5 51.7241V60.1034C5 60.6173 5.41617 61.0344 5.93103 61.0344H45.0345C45.5493 61.0344 45.9655 60.6173 45.9655 60.1034V51.7241C45.9655 44.5365 40.1186 38.6896 32.931 38.6896ZM34.7931 40.7202V48.931H32.931V40.5517C33.5669 40.5517 34.1861 40.6178 34.7931 40.7202ZM38.5172 59.1724H34.7931V53.5862C34.7931 53.0722 34.3769 52.6551 33.8621 52.6551H17.1034C16.5886 52.6551 16.1724 53.0722 16.1724 53.5862V59.1724H12.4483V50.7931H38.5172V59.1724ZM32.931 59.1724H18.0345V54.5172H32.931V59.1724ZM40.3793 27.9827C40.3793 29.2108 39.4203 30.2097 38.2128 30.2945C38.4074 29.3979 38.5172 28.4706 38.5172 27.5172V25.7026C39.5786 25.9186 40.3793 26.859 40.3793 27.9827ZM27.221 5.17237L26.5227 10.7586H24.4428L23.7445 5.17237H27.221ZM22.1599 7.5102L22.6971 11.8051C22.7548 12.2715 23.1514 12.6206 23.6207 12.6206H27.3448C27.8141 12.6206 28.2107 12.2715 28.2684 11.8051L28.8056 7.5102C33.6126 8.88813 37.1505 13.1709 37.5434 18.2069H13.4221C13.8141 13.1644 17.3502 8.8872 22.1599 7.5102ZM11.5172 20.0689H39.4483V21.931H11.5172V20.0689ZM10.5862 27.9827C10.5862 26.859 11.3869 25.9186 12.4483 25.7026V27.5172C12.4483 28.4706 12.5581 29.3979 12.7527 30.2945C11.5452 30.2097 10.5862 29.2108 10.5862 27.9827ZM14.3103 27.5172V23.7931H36.6552V27.5172C36.6552 33.6779 31.6434 38.6896 25.4828 38.6896C19.3221 38.6896 14.3103 33.6779 14.3103 27.5172ZM31.069 40.5517V48.931H19.8966V40.5517H31.069ZM18.0345 48.931H16.1724V40.7202C16.7794 40.6178 17.3986 40.5517 18.0345 40.5517V48.931ZM6.86207 51.7241C6.86207 46.8706 9.97824 42.7424 14.3103 41.2034V48.931H11.5172C11.0024 48.931 10.5862 49.3481 10.5862 49.862V59.1724H6.86207V51.7241ZM44.1035 59.1724H40.3793V49.862C40.3793 49.3481 39.9631 48.931 39.4483 48.931H36.6552V41.2034C40.9873 42.7424 44.1035 46.8706 44.1035 51.7241V59.1724Z" fill="#F3F3F3"/>
<path id="Vector_2" d="M25.4828 34.9655C24.1424 34.9655 23.0193 34.016 22.7507 32.7544C22.6833 32.4378 22.4273 32.1724 22.1035 32.1724H21.4138C21.0901 32.1724 20.8238 32.4361 20.8642 32.7574C21.1528 35.0491 23.114 36.8275 25.4828 36.8275C27.8516 36.8275 29.8128 35.0491 30.1014 32.7574C30.1419 32.4361 29.8755 32.1724 29.5518 32.1724H28.8621C28.5384 32.1724 28.2823 32.4378 28.2149 32.7544C27.9463 34.016 26.8232 34.9655 25.4828 34.9655Z" fill="url(#paint0_linear_144_2644)"/>
<path id="Vector_3" d="M55.2759 38.0686V26.2761C57.5281 25.2063 59.0001 22.9197 59.0001 20.3929C59.0001 17.6408 57.2544 15.1735 54.6559 14.2537C54.371 14.154 54.0544 14.1959 53.8077 14.371C53.56 14.546 53.4139 14.83 53.4139 15.1316V20.0074L52.4828 20.9385L51.5518 20.0074V15.1316C51.5518 14.829 51.4056 14.546 51.158 14.3719C50.9112 14.1969 50.5947 14.155 50.3098 14.2546C47.7113 15.1744 45.9656 17.6417 45.9656 20.3938C45.9656 22.9207 47.4375 25.2073 49.6897 26.277V38.0686C47.4375 39.1383 45.9656 41.425 45.9656 43.9518C45.9656 46.7039 47.7113 49.1712 50.3098 50.091C50.5947 50.1916 50.9112 50.1478 51.158 49.9737C51.4056 49.7987 51.5518 49.5147 51.5518 49.2131V44.3372L52.4828 43.4062L53.4139 44.3372V49.2131C53.4139 49.5157 53.56 49.7987 53.8077 49.9728C53.9669 50.0854 54.155 50.1441 54.3449 50.1441C54.4492 50.1441 54.5553 50.1264 54.6559 50.091C57.2544 49.1702 59.0001 46.703 59.0001 43.9509C59.0001 41.425 57.5281 39.1374 55.2759 38.0686ZM55.2759 47.6694V43.9518C55.2759 43.7051 55.1782 43.4677 55.0031 43.2935L53.1411 41.4315C52.9595 41.2499 52.7212 41.1587 52.4828 41.1587C52.2445 41.1587 52.0061 41.2499 51.8246 41.4315L49.9625 43.2935C49.7875 43.4677 49.6897 43.7041 49.6897 43.9509V47.6685C48.5408 46.8045 47.8276 45.4359 47.8276 43.9509C47.8276 41.9864 49.0752 40.2249 50.9317 39.5675C51.3032 39.4353 51.5518 39.0843 51.5518 38.6896V25.6551C51.5518 25.2603 51.3032 24.9093 50.9317 24.7771C49.0752 24.1198 47.8276 22.3583 47.8276 20.3938C47.8276 18.9088 48.5408 17.5402 49.6897 16.6762V20.3938C49.6897 20.6405 49.7875 20.878 49.9625 21.0521L51.8246 22.9141C52.1886 23.2782 52.777 23.2782 53.1411 22.9141L55.0031 21.0521C55.1782 20.877 55.2759 20.6405 55.2759 20.3938V16.6762C56.4248 17.5402 57.138 18.9088 57.138 20.3938C57.138 22.3583 55.8904 24.1198 54.0339 24.7771C53.6624 24.9093 53.4139 25.2603 53.4139 25.6551V38.6896C53.4139 39.0843 53.6624 39.4353 54.0339 39.5675C55.8904 40.2249 57.138 41.9864 57.138 43.9509C57.138 45.4368 56.4248 46.8054 55.2759 47.6694Z" fill="url(#paint1_linear_144_2644)"/>
</g>
</g>
<defs>
<linearGradient id="paint0_linear_144_2644" x1="21.4354" y1="31.7887" x2="26.7683" y2="38.4156" gradientUnits="userSpaceOnUse">
<stop stop-color="#D8AE5E"/>
<stop offset="1" stop-color="#F2D7A5"/>
</linearGradient>
<linearGradient id="paint1_linear_144_2644" x1="46.8164" y1="11.2387" x2="64.8933" y2="15.3116" gradientUnits="userSpaceOnUse">
<stop stop-color="#D8AE5E"/>
<stop offset="1" stop-color="#F2D7A5"/>
</linearGradient>
</defs>
</svg>
