<svg width="49" height="48" viewBox="0 0 49 48" fill="none" xmlns="http://www.w3.org/2000/svg">
<path d="M40.4771 17C38.8229 17 37.4768 18.3458 37.4768 20C37.4768 21.6542 38.8229 23 40.4771 23C42.1313 23 43.4768 21.6542 43.4768 20C43.4768 18.3458 42.1313 17 40.4771 17ZM40.4771 21.9393C39.4076 21.9393 38.5375 21.0692 38.5375 20C38.5375 18.9308 39.4076 18.0607 40.4771 18.0607C41.546 18.0607 42.4161 18.9308 42.4161 20C42.4161 21.0692 41.546 21.9393 40.4771 21.9393Z" fill="url(#paint0_linear_501_632)"/>
<path d="M40.4768 15C37.72 15 35.4768 17.3375 35.4768 20.2108C35.4768 22.8923 39.609 29.0879 40.0805 29.7856C40.171 29.9201 40.3192 30 40.4768 30C40.6345 30 40.7826 29.9201 40.8731 29.7856C41.3446 29.0879 45.4768 22.8923 45.4768 20.2108C45.4768 17.3375 43.2336 15 40.4768 15ZM40.4768 28.6042C39.0678 26.4337 36.4464 22.0219 36.4464 20.2108C36.4464 17.8948 38.2545 16.0105 40.4768 16.0105C42.6991 16.0105 44.5072 17.8948 44.5072 20.2108C44.5072 22.0219 41.8858 26.4337 40.4768 28.6042Z" fill="url(#paint1_linear_501_632)"/>
<path d="M9.70239 18.1923C7.36304 18.1923 5.46021 20.0955 5.46021 22.4348C5.46021 24.7742 7.36304 26.6774 9.70239 26.6774C12.0417 26.6774 13.9453 24.7742 13.9453 22.4348C13.9453 20.0955 12.0417 18.1923 9.70239 18.1923ZM9.70239 25.1774C8.19067 25.1774 6.96021 23.9469 6.96021 22.4348C6.96021 20.9227 8.19067 19.6923 9.70239 19.6923C11.2148 19.6923 12.4453 20.9227 12.4453 22.4348C12.4453 23.9469 11.2148 25.1774 9.70239 25.1774Z" fill="#F3F3F3"/>
<path d="M9.70239 14.6997C5.4375 14.6997 1.96802 18.1696 1.96802 22.4348C1.96802 26.4152 8.35986 35.6122 9.08936 36.6478C9.22925 36.8474 9.4585 36.9661 9.70239 36.9661C9.94629 36.9661 10.1755 36.8474 10.3154 36.6478C11.0449 35.6122 17.4375 26.4152 17.4375 22.4348C17.4375 18.1696 13.9673 14.6997 9.70239 14.6997ZM9.70239 34.894C7.52271 31.6725 3.46802 25.1246 3.46802 22.4348C3.46802 18.9968 6.2644 16.1997 9.70239 16.1997C13.1404 16.1997 15.9375 18.9968 15.9375 22.4348C15.9375 25.1232 11.8821 31.6721 9.70239 34.894Z" fill="#F3F3F3"/>
<path d="M9.47681 40L40.4768 34" stroke="#F3F3F3" stroke-width="1.5" stroke-linecap="round"/>
<defs>
<linearGradient id="paint0_linear_501_632" x1="37.8685" y1="16.5056" x2="44.1768" y2="20.425" gradientUnits="userSpaceOnUse">
<stop stop-color="#D8AE5E"/>
<stop offset="1" stop-color="#F2D7A5"/>
</linearGradient>
<linearGradient id="paint1_linear_501_632" x1="36.1296" y1="13.7639" x2="48.5681" y2="18.916" gradientUnits="userSpaceOnUse">
<stop stop-color="#D8AE5E"/>
<stop offset="1" stop-color="#F2D7A5"/>
</linearGradient>
</defs>
</svg>
