<svg width="48" height="48" viewBox="0 0 48 48" fill="none" xmlns="http://www.w3.org/2000/svg">
<path d="M27.928 38.4189C27.4728 38.4189 26.978 38.3804 26.4439 38.3033C24.8362 38.0714 23.2057 38.0709 21.5968 38.3033C18.553 38.7426 16.7891 37.9286 16.3507 35.883C16.0147 34.3152 16.8015 33.4463 17.6344 32.5265C18.343 31.7438 19.1464 30.8568 19.5853 29.2675C20.3719 26.42 22.8306 25.7364 24.0359 25.7666C25.2208 25.729 27.7169 26.4216 28.4576 29.2757C28.8746 30.8821 29.6866 31.77 30.4032 32.5529C31.2365 33.4641 32.0238 34.3245 31.69 35.883C31.3286 37.5694 30.0653 38.4189 27.928 38.4189ZM24.0202 37.0045C24.8839 37.0045 25.747 37.0663 26.6047 37.1904C29.7824 37.6489 30.4012 36.5295 30.5901 35.6475C30.7935 34.6978 30.4037 34.2196 29.5732 33.312C28.8083 32.4757 27.8563 31.4353 27.3692 29.5585C26.6656 26.8475 24.1409 26.8891 24.0355 26.8906C23.8932 26.8876 21.4139 26.87 20.6691 29.5668C20.1589 31.4136 19.2214 32.4492 18.4678 33.2813C17.6351 34.201 17.2442 34.6856 17.4503 35.6475C17.6394 36.5295 18.2583 37.6494 21.4357 37.1904C22.2933 37.0666 23.157 37.0045 24.0202 37.0045Z" fill="url(#paint0_linear_502_655)"/>
<path d="M20.4078 25.5856C18.9648 25.5856 17.8345 24.0963 17.8345 22.1951C17.8345 20.2939 18.9648 18.8047 20.4078 18.8047C21.8505 18.8047 22.9807 20.2939 22.9807 22.1951C22.9807 24.0962 21.8505 25.5856 20.4078 25.5856ZM20.4078 19.9292C19.6226 19.9292 18.959 20.9668 18.959 22.195C18.959 23.4232 19.6226 24.461 20.4078 24.461C21.1929 24.461 21.8562 23.4232 21.8562 22.195C21.8562 20.9668 21.1929 19.9292 20.4078 19.9292Z" fill="url(#paint1_linear_502_655)"/>
<path d="M16.0368 31.8731C14.5938 31.8731 13.4635 30.384 13.4635 28.4828C13.4635 26.5816 14.5938 25.0923 16.0368 25.0923C17.4796 25.0923 18.6099 26.5816 18.6099 28.4828C18.6099 30.3839 17.4796 31.8731 16.0368 31.8731ZM16.0368 26.2167C15.2516 26.2167 14.588 27.2545 14.588 28.4827C14.588 29.7109 15.2516 30.7485 16.0368 30.7485C16.822 30.7485 17.4853 29.7109 17.4853 28.4827C17.4853 27.2545 16.822 26.2167 16.0368 26.2167Z" fill="url(#paint2_linear_502_655)"/>
<path d="M27.5922 25.5856C26.1492 25.5856 25.0189 24.0963 25.0189 22.1951C25.0189 20.2939 26.1492 18.8047 27.5922 18.8047C29.035 18.8047 30.1652 20.2939 30.1652 22.1951C30.1651 24.0962 29.0349 25.5856 27.5922 25.5856ZM27.5922 19.9292C26.807 19.9292 26.1435 20.9668 26.1435 22.195C26.1435 23.4232 26.807 24.461 27.5922 24.461C28.3774 24.461 29.0406 23.4232 29.0406 22.195C29.0406 20.9668 28.3774 19.9292 27.5922 19.9292Z" fill="url(#paint3_linear_502_655)"/>
<path d="M31.9633 31.8731C30.5205 31.8731 29.3903 30.384 29.3903 28.4828C29.3903 26.5816 30.5205 25.0923 31.9633 25.0923C33.4062 25.0923 34.5365 26.5816 34.5365 28.4828C34.5364 30.3839 33.4061 31.8731 31.9633 31.8731ZM31.9633 26.2167C31.1781 26.2167 30.5148 27.2545 30.5148 28.4827C30.5148 29.7109 31.1781 30.7485 31.9633 30.7485C32.7484 30.7485 33.412 29.7109 33.412 28.4827C33.412 27.2545 32.7483 26.2167 31.9633 26.2167Z" fill="url(#paint4_linear_502_655)"/>
<path d="M40.821 9.75628H7.17921C6.86865 9.75628 6.61694 9.50447 6.61694 9.19401V4.41484C6.61694 3.48479 7.37352 2.72812 8.30376 2.72812H39.6964C40.6265 2.72812 41.3831 3.48479 41.3831 4.41484V9.19401C41.3831 9.50447 41.1314 9.75628 40.821 9.75628ZM7.74149 8.63174H40.2587V4.41484C40.2587 4.10495 40.0063 3.85257 39.6964 3.85257H8.30376C7.99378 3.85257 7.74149 4.10495 7.74149 4.41484V8.63174Z" fill="#F3F3F3"/>
<path d="M42.8615 45.272H5.13857C4.82801 45.272 4.57629 45.0202 4.57629 44.7097V31.1321C4.57629 29.7998 4.64493 28.4529 4.78029 27.1291L6.61985 9.1369C6.64903 8.84995 6.89085 8.63174 7.17914 8.63174H40.8208C41.109 8.63174 41.3509 8.84995 41.38 9.1369L43.2195 27.1291C43.355 28.4521 43.4238 29.799 43.4238 31.1321V44.7097C43.4238 45.0202 43.1719 45.272 42.8615 45.272ZM5.70074 44.1474H42.2992V31.1321C42.2992 29.8371 42.2325 28.5286 42.101 27.2436L40.3132 9.75629H7.68679L5.89869 27.2433C5.76746 28.5296 5.70084 29.838 5.70084 31.1321L5.70074 44.1474Z" fill="#F3F3F3"/>
<path d="M45.0378 45.2719H2.9623C2.65183 45.2719 2.40002 45.0201 2.40002 44.7097C2.40002 44.3992 2.65183 44.1474 2.9623 44.1474H45.0378C45.3482 44.1474 45.6 44.3992 45.6 44.7097C45.6 45.0201 45.3482 45.2719 45.0378 45.2719Z" fill="#F3F3F3"/>
<defs>
<linearGradient id="paint0_linear_502_655" x1="17.2829" y1="24.7224" x2="31.5851" y2="35.6054" gradientUnits="userSpaceOnUse">
<stop stop-color="#D8AE5E"/>
<stop offset="1" stop-color="#F2D7A5"/>
</linearGradient>
<linearGradient id="paint1_linear_502_655" x1="18.1704" y1="18.246" x2="24.3057" y2="21.139" gradientUnits="userSpaceOnUse">
<stop stop-color="#D8AE5E"/>
<stop offset="1" stop-color="#F2D7A5"/>
</linearGradient>
<linearGradient id="paint2_linear_502_655" x1="13.7994" y1="24.5335" x2="19.9348" y2="27.4266" gradientUnits="userSpaceOnUse">
<stop stop-color="#D8AE5E"/>
<stop offset="1" stop-color="#F2D7A5"/>
</linearGradient>
<linearGradient id="paint3_linear_502_655" x1="25.3549" y1="18.246" x2="31.4901" y2="21.139" gradientUnits="userSpaceOnUse">
<stop stop-color="#D8AE5E"/>
<stop offset="1" stop-color="#F2D7A5"/>
</linearGradient>
<linearGradient id="paint4_linear_502_655" x1="29.7262" y1="24.5335" x2="35.8615" y2="27.4265" gradientUnits="userSpaceOnUse">
<stop stop-color="#D8AE5E"/>
<stop offset="1" stop-color="#F2D7A5"/>
</linearGradient>
</defs>
</svg>
