<svg width="64" height="64" viewBox="0 0 64 64" fill="none" xmlns="http://www.w3.org/2000/svg">
<path d="M52.8122 52.4724C49.9776 52.4724 48.5036 47.9118 48.5036 47.9118C54.765 42.9984 58.8091 35.3638 58.8091 26.8094C58.8091 12.0315 46.7776 0 31.9997 0C17.2217 0 5.1902 12.0315 5.1902 26.8094C5.1902 35.3764 9.23429 42.9984 15.4957 47.9118C15.4957 47.9118 14.3619 52.4724 11.1871 52.4724C7.30674 52.4724 4.14453 55.6346 4.14453 59.515V62.2236C4.14453 63.2063 4.93823 64 5.92091 64H58.0784C59.0611 64 59.8548 63.2063 59.8548 62.2236V59.515C59.8548 55.6346 56.6926 52.4724 52.8122 52.4724ZM8.74296 26.8094C8.74296 13.9843 19.1745 3.55276 31.9997 3.55276C44.8248 3.55276 55.2563 13.9843 55.2563 26.8094C55.2563 39.6346 44.8248 50.0661 31.9997 50.0661C19.1745 50.0661 8.74296 39.6346 8.74296 26.8094ZM56.302 60.4472H7.69729V59.515C7.69729 57.5874 9.25949 56.0252 11.1871 56.0252C16.4532 56.0252 18.4815 49.9402 18.4815 49.9402C22.45 52.2709 27.0737 53.6189 31.9997 53.6189C36.9256 53.6189 41.5493 52.2709 45.5178 49.9402C45.5178 49.9402 47.2185 56.0252 52.8122 56.0252C54.7398 56.0252 56.302 57.5874 56.302 59.515V60.4472Z" fill="#F3F3F3"/>
<path d="M32.0004 12.7622C24.2523 12.7622 17.9531 19.0614 17.9531 26.8095C17.9531 34.5575 24.2523 40.8567 32.0004 40.8567C39.7484 40.8567 46.0476 34.5575 46.0476 26.8095C46.0476 19.0614 39.7484 12.7622 32.0004 12.7622ZM32.0004 37.2913C26.2177 37.2913 21.5185 32.5921 21.5185 26.8095C21.5185 21.0268 26.2177 16.3276 32.0004 16.3276C37.783 16.3276 42.4823 21.0268 42.4823 26.8095C42.4823 32.5921 37.783 37.2913 32.0004 37.2913Z" fill="#F3F3F3"/>
<path d="M31.9996 19.2629C27.8421 19.2629 24.4531 22.6519 24.4531 26.8094C24.4531 30.9669 27.8421 34.3559 31.9996 34.3559C36.1571 34.3559 39.546 30.9669 39.546 26.8094C39.546 22.6519 36.1571 19.2629 31.9996 19.2629ZM31.9996 30.8031C29.7949 30.8031 28.0059 29.0141 28.0059 26.8094C28.0059 24.6047 29.7949 22.8157 31.9996 22.8157C34.2043 22.8157 35.9933 24.6047 35.9933 26.8094C35.9933 29.0141 34.2043 30.8031 31.9996 30.8031Z" fill="url(#paint0_linear_152_3966)"/>
<path d="M31.999 4.52295C31.0164 4.52295 30.2227 5.31665 30.2227 6.29933V7.97492C30.2227 8.95759 31.0164 9.76389 31.999 9.76389C32.9817 9.76389 33.7754 8.97019 33.7754 7.98752V6.29933C33.7754 5.31665 32.9817 4.52295 31.999 4.52295Z" fill="url(#paint1_linear_152_3966)"/>
<defs>
<linearGradient id="paint0_linear_152_3966" x1="25.4384" y1="18.0192" x2="41.3069" y2="27.8785" gradientUnits="userSpaceOnUse">
<stop stop-color="#D8AE5E"/>
<stop offset="1" stop-color="#F2D7A5"/>
</linearGradient>
<linearGradient id="paint1_linear_152_3966" x1="30.4546" y1="4.09106" x2="34.8518" y2="5.94308" gradientUnits="userSpaceOnUse">
<stop stop-color="#D8AE5E"/>
<stop offset="1" stop-color="#F2D7A5"/>
</linearGradient>
</defs>
</svg>
