<svg width="48" height="48" viewBox="0 0 48 48" fill="none" xmlns="http://www.w3.org/2000/svg">
<path d="M23.6372 40.2581C22.3544 40.2581 21.3146 41.2979 21.3146 42.5806C21.3146 43.8634 22.3544 44.9032 23.6372 44.9032C24.9199 44.9032 25.9597 43.8634 25.9597 42.5806C25.9597 41.2979 24.9199 40.2581 23.6372 40.2581ZM23.6372 43.3548C23.2096 43.3548 22.863 43.0082 22.863 42.5806C22.863 42.1531 23.2096 41.8064 23.6372 41.8064C24.0647 41.8064 24.4113 42.1531 24.4113 42.5806C24.4113 43.0082 24.0647 43.3548 23.6372 43.3548Z" fill="url(#paint0_linear_500_609)"/>
<path d="M27.5081 3.0968H19.7661C19.3386 3.0968 18.9919 3.44345 18.9919 3.871C18.9919 4.29854 19.3386 4.64519 19.7661 4.64519H27.5081C27.9356 4.64519 28.2823 4.29854 28.2823 3.871C28.2823 3.44345 27.9356 3.0968 27.5081 3.0968Z" fill="url(#paint1_linear_500_609)"/>
<path d="M33.7016 0H13.5726C12.2898 0 11.25 1.03984 11.25 2.32258V45.6774C11.25 46.9602 12.2898 48 13.5726 48H33.7016C34.9844 48 36.0242 46.9602 36.0242 45.6774V2.32258C36.0242 1.03984 34.9844 0 33.7016 0ZM34.4758 45.6774C34.4758 46.105 34.1292 46.4516 33.7016 46.4516H13.5726C13.145 46.4516 12.7984 46.105 12.7984 45.6774V2.32258C12.7984 1.89503 13.145 1.54839 13.5726 1.54839H33.7016C34.1292 1.54839 34.4758 1.89503 34.4758 2.32258V45.6774Z" fill="#F3F3F3"/>
<defs>
<linearGradient id="paint0_linear_500_609" x1="21.6178" y1="39.8753" x2="26.5017" y2="42.9097" gradientUnits="userSpaceOnUse">
<stop stop-color="#D8AE5E"/>
<stop offset="1" stop-color="#F2D7A5"/>
</linearGradient>
<linearGradient id="paint1_linear_500_609" x1="19.5984" y1="2.9692" x2="20.5072" y2="6.35708" gradientUnits="userSpaceOnUse">
<stop stop-color="#D8AE5E"/>
<stop offset="1" stop-color="#F2D7A5"/>
</linearGradient>
</defs>
</svg>
