<svg width="32" height="32" viewBox="0 0 32 32" fill="none" xmlns="http://www.w3.org/2000/svg">
<path d="M22.6 21.2667C23.9052 19.9613 24.794 18.2983 25.1541 16.4878C25.5141 14.6774 25.3292 12.8008 24.6228 11.0954C23.9163 9.39003 22.7201 7.93242 21.1852 6.9069C19.6504 5.88138 17.8459 5.33401 16 5.33401C14.1541 5.33401 12.3496 5.88138 10.8148 6.9069C9.27994 7.93242 8.08367 9.39003 7.37722 11.0954C6.67077 12.8008 6.48589 14.6774 6.84594 16.4878C7.20599 18.2983 8.09481 19.9613 9.4 21.2667L15.2929 27.1596C15.6834 27.5501 16.3166 27.5501 16.7071 27.1596L22.6 21.2667ZM16.7071 30.9302C16.3166 31.3208 15.6834 31.3208 15.2929 30.9302L7.51467 23.152C5.83646 21.4738 4.69358 19.3356 4.23057 17.0078C3.76756 14.68 4.00521 12.2672 4.91346 10.0745C5.82172 7.88184 7.35979 6.0077 9.33318 4.68913C11.3066 3.37056 13.6266 2.66678 16 2.66678C18.3734 2.66678 20.6934 3.37056 22.6668 4.68913C24.6402 6.0077 26.1783 7.88184 27.0865 10.0745C27.9948 12.2672 28.2324 14.68 27.7694 17.0078C27.3064 19.3356 26.1636 21.4738 24.4853 23.152L16.7071 30.9302ZM16.3333 14.6667C16.3333 15.219 16.7811 15.6667 17.3333 15.6667H21.8333C22.2936 15.6667 22.6667 16.0398 22.6667 16.5C22.6667 16.9602 22.2936 17.3333 21.8333 17.3333H15.6667C15.1144 17.3333 14.6667 16.8856 14.6667 16.3333V8.83334C14.6667 8.3731 15.0398 8.00001 15.5 8.00001C15.9602 8.00001 16.3333 8.3731 16.3333 8.83334V14.6667Z" fill="url(#paint0_linear_339_285)"/>
<defs>
<linearGradient id="paint0_linear_339_285" x1="5.56667" y1="0.27939" x2="33.2158" y2="14.5107" gradientUnits="userSpaceOnUse">
<stop stop-color="#D8AE5E"/>
<stop offset="1" stop-color="#F2D7A5"/>
</linearGradient>
</defs>
</svg>
