<svg width="32" height="32" viewBox="0 0 32 32" fill="none" xmlns="http://www.w3.org/2000/svg">
<g clip-path="url(#clip0_108_69)">
<path d="M31.6749 12.7766C31.4646 11.7488 31.1508 10.7379 30.7422 9.77175C30.3411 8.82344 29.8447 7.90887 29.2668 7.0535C28.6946 6.2065 28.0375 5.41006 27.3137 4.68631C26.5899 3.96256 25.7935 3.30544 24.9465 2.73319C24.0911 2.15531 23.1766 1.65887 22.2283 1.25781C21.2622 0.849187 20.2512 0.535375 19.2234 0.325063C18.1694 0.109375 17.0849 0 16 0C14.9151 0 13.8306 0.109375 12.7766 0.325063C11.7488 0.535375 10.7378 0.849187 9.77169 1.25781C8.82337 1.65894 7.90881 2.15531 7.05344 2.73319C6.2065 3.30544 5.41006 3.9625 4.68631 4.68631C3.96256 5.41006 3.30544 6.2065 2.73319 7.0535C2.15531 7.90887 1.65887 8.82344 1.25781 9.77175C0.849187 10.7378 0.535375 11.7488 0.325063 12.7766C0.109375 13.8306 0 14.9151 0 16C0 17.0849 0.109375 18.1694 0.325063 19.2234C0.535375 20.2512 0.849187 21.2622 1.25781 22.2283C1.65894 23.1766 2.15531 24.0911 2.73319 24.9465C3.30544 25.7935 3.9625 26.5899 4.68631 27.3137C5.41006 28.0374 6.2065 28.6946 7.0535 29.2668C7.90887 29.8447 8.82344 30.3411 9.77175 30.7422C10.7378 31.1508 11.7488 31.4646 12.7766 31.6749C13.8306 31.8906 14.9151 32 16 32C17.0849 32 18.1694 31.8906 19.2234 31.6749C20.2513 31.4646 21.2622 31.1508 22.2283 30.7422C23.1766 30.3411 24.0911 29.8447 24.9465 29.2668C25.7935 28.6946 26.5899 28.0375 27.3137 27.3137C28.0374 26.5899 28.6946 25.7935 29.2668 24.9465C29.8447 24.0911 30.3411 23.1766 30.7422 22.2283C31.1508 21.2622 31.4646 20.2512 31.6749 19.2234C31.8906 18.1694 32 17.0849 32 16C32 14.9151 31.8906 13.8306 31.6749 12.7766ZM16 29.8362C8.37069 29.8362 2.16381 23.6293 2.16381 16C2.16381 8.37069 8.37069 2.16381 16 2.16381C23.6293 2.16381 29.8362 8.37069 29.8362 16C29.8362 23.6293 23.6293 29.8362 16 29.8362Z" fill="url(#paint0_linear_108_69)"/>
<path d="M20.564 12.1807L17.0048 15.0233L16.6729 5.45847C16.6522 4.86128 16.1514 4.39409 15.5542 4.41472C14.957 4.43547 14.4897 4.93635 14.5104 5.53347L14.9169 17.2494C14.9311 17.6581 15.1746 18.0239 15.5461 18.1948C15.6906 18.2613 15.8447 18.2938 15.9981 18.2938C16.2391 18.2938 16.4781 18.2133 16.6734 18.0573L21.9144 13.8713C22.3812 13.4985 22.4574 12.8177 22.0846 12.3508C21.7117 11.884 21.0309 11.8078 20.564 12.1807Z" fill="url(#paint1_linear_108_69)"/>
</g>
<defs>
<linearGradient id="paint0_linear_108_69" x1="2.08889" y1="-2.63704" x2="35.7333" y2="18.2667" gradientUnits="userSpaceOnUse">
<stop stop-color="#D8AE5E"/>
<stop offset="1" stop-color="#F2D7A5"/>
</linearGradient>
<linearGradient id="paint1_linear_108_69" x1="15.0197" y1="3.27027" x2="25.1627" y2="6.81693" gradientUnits="userSpaceOnUse">
<stop stop-color="#D8AE5E"/>
<stop offset="1" stop-color="#F2D7A5"/>
</linearGradient>
<clipPath id="clip0_108_69">
<rect width="32" height="32" fill="white"/>
</clipPath>
</defs>
</svg>
