<?xml version="1.0" encoding="UTF-8"?>
<svg xmlns="http://www.w3.org/2000/svg" width="64" height="64" viewBox="0 0 64 64" fill="none">
  <g clip-path="url(#clip0_357_488)">
    <path d="M49.5565 51.5065V38.0271C49.5565 29.0644 43.062 21.5899 34.532 20.0626L39.0646 10.5629C39.2494 10.1756 39.2226 9.72061 38.9936 9.35761C38.7646 8.99462 38.3657 8.77449 37.9364 8.77449H32.5379L32.5565 1.25327C32.558 0.668524 32.1539 0.161026 31.5838 0.0312764C31.0134 -0.0984731 30.4298 0.184526 30.1782 0.712274L23.5483 14.619C23.3637 15.0062 23.3906 15.4611 23.6196 15.824C23.8486 16.1868 24.2476 16.4068 24.6767 16.4068H30.0348V19.8222C20.5628 20.4774 13.0566 28.3915 13.0566 38.0271V51.5063C10.4154 51.6371 8.30664 53.8268 8.30664 56.4999V62.7499C8.30664 63.4403 8.86626 63.9999 9.55664 63.9999H53.0565C53.7468 63.9999 54.3065 63.4403 54.3065 62.7499V56.4999C54.3065 53.8268 52.1977 51.6371 49.5565 51.5065ZM26.6573 13.907L30.0427 6.80575L30.0347 10.0215C30.0339 10.3536 30.1652 10.6724 30.3997 10.9074C30.6342 11.1424 30.9526 11.2746 31.2847 11.2746H35.9549L32.5347 18.443V15.157C32.5347 14.4666 31.975 13.907 31.2847 13.907H26.6573ZM15.5566 38.0271C15.5566 29.7708 21.9427 22.9784 30.0348 22.3287V23.9654C30.0348 24.5494 30.4392 25.0557 31.0088 25.1846C31.1011 25.2054 31.1937 25.2156 31.2851 25.2156C31.7584 25.2156 32.202 24.9454 32.4128 24.5037L33.408 22.4177C41.1025 23.4483 47.0562 30.055 47.0562 38.027V51.5H32.5724V40.8376C34.2433 40.3025 35.4532 38.7371 35.4532 36.8886C35.4532 34.5985 33.5967 32.742 31.3066 32.742C29.0164 32.742 27.1599 34.5985 27.1599 36.8886C27.1599 38.7489 28.3849 40.3231 30.0723 40.8484V51.5001H15.5566V38.0271ZM51.8065 61.5H10.8066V56.5001C10.8066 55.1216 11.9281 54.0001 13.3066 54.0001H49.3065C50.685 54.0001 51.8065 55.1216 51.8065 56.5001V61.5Z" fill="#F3F3F3"></path>
    <path d="M61.5923 11.1003L56.9521 8.42128L60.7313 1.87528C61.0233 1.36953 60.9262 0.728905 60.4973 0.332405C60.0684 -0.0640951 59.4222 -0.11072 58.9408 0.22003L46.2101 8.9674C45.8563 9.2104 45.6521 9.6179 45.6689 10.0467C45.6857 10.4754 45.9213 10.8657 46.2929 11.0802L50.9682 13.7794L47.1913 20.2838C46.8977 20.7894 46.9938 21.431 47.4228 21.8284C47.6608 22.0489 47.9658 22.1615 48.2727 22.1615C48.5188 22.1615 48.7661 22.089 48.9806 21.9415L61.6756 13.2128C62.0292 12.9697 62.2333 12.5623 62.2164 12.1335C62.1996 11.7048 61.9639 11.3147 61.5923 11.1003ZM52.1446 16.732L53.7593 13.9512C53.9261 13.664 53.9717 13.3223 53.8862 13.0014C53.8006 12.6805 53.5909 12.4069 53.3033 12.2409L49.2588 9.90578L55.8051 5.40803L54.1621 8.25378C53.9963 8.5409 53.9513 8.88203 54.0372 9.20228C54.1231 9.52253 54.3324 9.79553 54.6196 9.96128L58.6271 12.2749L52.1446 16.732Z" fill="url(#paint0_linear_357_488)"></path>
    <path d="M13.2878 21.5555C13.5153 21.9516 13.9336 22.1832 14.372 22.1832C14.4947 22.1832 14.6191 22.1651 14.7412 22.1274C15.2998 21.9546 15.664 21.4177 15.6181 20.8349L14.4065 5.47623C14.3727 5.04848 14.122 4.66798 13.7422 4.46835C13.3626 4.2686 12.907 4.2776 12.5353 4.4921L7.89497 7.1711L4.11572 0.625227C3.82372 0.119477 3.22035 -0.117023 2.6626 0.0564767C2.10485 0.229602 1.74122 0.765977 1.7871 1.3481L2.9971 16.7471C3.03072 17.1749 3.28135 17.5556 3.6611 17.7554C4.04085 17.9551 4.49647 17.9462 4.86822 17.7317L9.54347 15.0325L13.2878 21.5555ZM5.3341 14.576L4.71197 6.65798L6.35485 9.50373C6.5206 9.79085 6.7936 10.0004 7.11385 10.0861C7.4341 10.1719 7.77535 10.127 8.06235 9.96123L12.0698 7.64748L12.6886 15.49L11.0877 12.7011C10.9223 12.4131 10.6492 12.2027 10.3286 12.1164C10.2217 12.0876 10.1125 12.0734 10.0036 12.0734C9.78597 12.0734 9.57022 12.1302 9.3786 12.2409L5.3341 14.576Z" fill="url(#paint1_linear_357_488)"></path>
  </g>
  <defs>
    <linearGradient id="paint0_linear_357_488" x1="46.7483" y1="-1.82601" x2="66.593" y2="7.3815" gradientUnits="userSpaceOnUse">
      <stop stop-color="#D8AE5E"></stop>
      <stop offset="1" stop-color="#F2D7A5"></stop>
    </linearGradient>
    <linearGradient id="paint1_linear_357_488" x1="2.68657" y1="-1.82806" x2="20.2192" y2="4.96758" gradientUnits="userSpaceOnUse">
      <stop stop-color="#D8AE5E"></stop>
      <stop offset="1" stop-color="#F2D7A5"></stop>
    </linearGradient>
    <clipPath id="clip0_357_488">
      <rect width="64" height="64" fill="white"></rect>
    </clipPath>
  </defs>
</svg>
