<?xml version="1.0" encoding="UTF-8"?>
<svg xmlns="http://www.w3.org/2000/svg" width="64" height="64" viewBox="0 0 64 64" fill="none">
  <path d="M41.3334 4H5.098C4.49409 4 4 4.49409 4 5.098V58.9019C4 59.5058 4.49409 59.9999 5.098 59.9999H41.3333C41.9372 59.9999 42.4313 59.5058 42.4313 58.9019V5.098C42.4314 4.49409 41.9373 4 41.3334 4ZM40.2353 57.8039H6.19609V6.19609H40.2354L40.2353 57.8039Z" fill="#F3F3F3"></path>
  <path d="M53.9611 8.94092C50.634 8.94092 47.9219 11.6531 47.9219 14.9801V18.8233V45.1763V51.7646C47.9219 52.0062 47.9988 52.2367 48.1415 52.4234L53.0827 59.0116C53.2914 59.2862 53.6207 59.4508 53.9612 59.4508C54.3016 59.4508 54.631 59.2861 54.8396 59.0116L59.7808 52.4234C59.9236 52.2367 60.0004 52.0062 60.0004 51.7646V45.1763V18.8233V14.9801C60.0002 11.6531 57.2881 8.94092 53.9611 8.94092ZM50.1179 19.9213H57.8041V44.0782H50.1179V19.9213ZM53.9611 11.137C56.0803 11.137 57.8042 12.861 57.8042 14.9802V17.7253H50.118V14.9802C50.1179 12.8609 51.8418 11.137 53.9611 11.137ZM53.9611 56.5189L50.1179 51.3911V46.2743H57.8041V51.4021L53.9611 56.5189Z" fill="url(#paint0_linear_152_3950)"></path>
  <path d="M12.2347 13.3335H21.0191C21.623 13.3335 22.1171 12.8395 22.1171 12.2355C22.1171 11.6316 21.623 11.1375 21.0191 11.1375H12.2347C11.6308 11.1375 11.1367 11.6315 11.1367 12.2354C11.1367 12.8394 11.6308 13.3335 12.2347 13.3335Z" fill="url(#paint1_linear_152_3950)"></path>
  <path d="M12.2347 19.9216H34.1955C34.7994 19.9216 35.2935 19.4275 35.2935 18.8236C35.2935 18.2197 34.7994 17.7256 34.1955 17.7256H12.2347C11.6308 17.7256 11.1367 18.2197 11.1367 18.8236C11.1367 19.4275 11.6308 19.9216 12.2347 19.9216Z" fill="url(#paint2_linear_152_3950)"></path>
  <path d="M12.2347 26.5097H34.1955C34.7994 26.5097 35.2935 26.0156 35.2935 25.4117C35.2935 24.8078 34.7994 24.3137 34.1955 24.3137H12.2347C11.6308 24.3137 11.1367 24.8078 11.1367 25.4117C11.1367 26.0156 11.6308 26.5097 12.2347 26.5097Z" fill="url(#paint3_linear_152_3950)"></path>
  <path d="M12.2347 33.0981H34.1955C34.7994 33.0981 35.2935 32.604 35.2935 32.0001C35.2935 31.3962 34.7994 30.9021 34.1955 30.9021H12.2347C11.6308 30.9021 11.1367 31.3962 11.1367 32.0001C11.1367 32.604 11.6308 33.0981 12.2347 33.0981Z" fill="url(#paint4_linear_152_3950)"></path>
  <path d="M12.2347 39.6862H34.1955C34.7994 39.6862 35.2935 39.1921 35.2935 38.5882C35.2935 37.9843 34.7994 37.4902 34.1955 37.4902H12.2347C11.6308 37.4902 11.1367 37.9843 11.1367 38.5882C11.1367 39.1921 11.6308 39.6862 12.2347 39.6862Z" fill="url(#paint5_linear_152_3950)"></path>
  <path d="M33.1317 46.2746C32.7803 46.2636 32.4399 46.4284 32.2203 46.7138L30.1011 49.5467L28.6297 45.8683C28.476 45.495 28.1246 45.2314 27.7183 45.1875C27.3121 45.1436 26.9167 45.3303 26.6861 45.6706L24.49 48.9647C24.1496 49.4698 24.2923 50.1505 24.7975 50.491C25.3026 50.8314 25.9833 50.6887 26.3238 50.1835L27.367 48.6242L28.7834 52.1709C28.9262 52.5442 29.2666 52.7968 29.6619 52.8517C29.7058 52.8627 29.7607 52.8627 29.8047 52.8627C30.1451 52.8627 30.4745 52.698 30.6831 52.4235L33.0439 49.2721L34.3835 51.2705C34.724 51.7756 35.4048 51.9074 35.9098 51.578C36.4149 51.2376 36.5467 50.5568 36.2173 50.0517L34.0212 46.7576C33.8125 46.4723 33.483 46.2856 33.1317 46.2746Z" fill="url(#paint6_linear_152_3950)"></path>
  <defs>
    <linearGradient id="paint0_linear_152_3950" x1="48.7103" y1="4.77853" x2="65.9317" y2="7.33721" gradientUnits="userSpaceOnUse">
      <stop stop-color="#D8AE5E"></stop>
      <stop offset="1" stop-color="#F2D7A5"></stop>
    </linearGradient>
    <linearGradient id="paint1_linear_152_3950" x1="11.8535" y1="10.9565" x2="13.3559" y2="15.6237" gradientUnits="userSpaceOnUse">
      <stop stop-color="#D8AE5E"></stop>
      <stop offset="1" stop-color="#F2D7A5"></stop>
    </linearGradient>
    <linearGradient id="paint2_linear_152_3950" x1="12.7136" y1="17.5446" x2="13.4514" y2="22.5873" gradientUnits="userSpaceOnUse">
      <stop stop-color="#D8AE5E"></stop>
      <stop offset="1" stop-color="#F2D7A5"></stop>
    </linearGradient>
    <linearGradient id="paint3_linear_152_3950" x1="12.7136" y1="24.1328" x2="13.4514" y2="29.1754" gradientUnits="userSpaceOnUse">
      <stop stop-color="#D8AE5E"></stop>
      <stop offset="1" stop-color="#F2D7A5"></stop>
    </linearGradient>
    <linearGradient id="paint4_linear_152_3950" x1="12.7136" y1="30.7211" x2="13.4514" y2="35.7638" gradientUnits="userSpaceOnUse">
      <stop stop-color="#D8AE5E"></stop>
      <stop offset="1" stop-color="#F2D7A5"></stop>
    </linearGradient>
    <linearGradient id="paint5_linear_152_3950" x1="12.7136" y1="37.3093" x2="13.4514" y2="42.3519" gradientUnits="userSpaceOnUse">
      <stop stop-color="#D8AE5E"></stop>
      <stop offset="1" stop-color="#F2D7A5"></stop>
    </linearGradient>
    <linearGradient id="paint6_linear_152_3950" x1="25.0939" y1="44.5481" x2="34.1" y2="53.3577" gradientUnits="userSpaceOnUse">
      <stop stop-color="#D8AE5E"></stop>
      <stop offset="1" stop-color="#F2D7A5"></stop>
    </linearGradient>
  </defs>
</svg>
