<?xml version="1.0" encoding="UTF-8"?>
<svg xmlns="http://www.w3.org/2000/svg" width="64" height="64" viewBox="0 0 64 64" fill="none">
  <g clip-path="url(#clip0_152_3892)">
    <path d="M61.1875 24.625H51.6875V4.6875C51.6875 3.435 51.2 2.2575 50.315 1.3725C49.43 0.4875 48.2525 0 47 0H17C15.7474 0 14.57 0.4875 13.6849 1.3725C12.7997 2.2575 12.3125 3.435 12.3125 4.6875V24.625H2.8125C1.26175 24.625 0 25.8866 0 27.4375V61.1875C0 62.7384 1.26175 64 2.8125 64H61.1875C62.7383 64 64 62.7384 64 61.1875V27.4375C64 25.8866 62.7383 24.625 61.1875 24.625ZM51.6875 30.25H53.5625V35.875H51.6875V30.25ZM13.25 34C13.7675 34 14.1875 33.5788 14.1875 33.0625C14.1875 33.0612 14.1875 33.0613 14.1875 33.06V4.6875C14.19 3.14 15.4525 1.8775 17 1.875H47C48.5475 1.8775 49.8099 3.14 49.8125 4.6875V35.875H10.4375V30.25H12.3125V33.0625C12.3125 33.5788 12.7338 34 13.25 34ZM62.125 43.375H4.70612C4.18862 43.375 3.76863 43.795 3.76863 44.3125C3.76863 44.83 4.18862 45.25 4.70612 45.25H62.125V61.1875C62.125 61.7045 61.7045 62.125 61.1875 62.125H2.8125C2.2955 62.125 1.875 61.7045 1.875 61.1875V44.4985C1.88713 44.4384 1.89363 44.3761 1.89363 44.3125C1.89363 44.2487 1.88713 44.1866 1.875 44.1265V27.4375C1.875 26.9205 2.2955 26.5 2.8125 26.5H12.3125V28.375H9.5C8.98213 28.375 8.5625 28.7948 8.5625 29.3125V36.8125C8.5625 37.3302 8.98213 37.75 9.5 37.75H54.5C55.0179 37.75 55.4375 37.3302 55.4375 36.8125V29.3125C55.4375 28.7948 55.0179 28.375 54.5 28.375H51.6875V26.5H61.1875C61.7045 26.5 62.125 26.9205 62.125 27.4375V43.375Z" fill="#F3F3F3"></path>
    <path d="M45.125 15H18.875C18.3571 15 17.9375 15.4197 17.9375 15.9375C17.9375 16.4553 18.3571 16.875 18.875 16.875H45.125C45.6429 16.875 46.0625 16.4553 46.0625 15.9375C46.0625 15.4197 45.6429 15 45.125 15Z" fill="url(#paint0_linear_152_3892)"></path>
    <path d="M37.624 7.5H26.375C25.8571 7.5 25.4375 7.91975 25.4375 8.4375C25.4375 8.95525 25.8571 9.375 26.375 9.375H37.624C38.1419 9.375 38.5615 8.95525 38.5615 8.4375C38.5615 7.91975 38.1419 7.5 37.624 7.5Z" fill="url(#paint1_linear_152_3892)"></path>
    <path d="M36.3744 30H18.875C18.3571 30 17.9375 30.4197 17.9375 30.9375C17.9375 31.4553 18.3571 31.875 18.875 31.875H36.3744C36.8923 31.875 37.3119 31.4553 37.3119 30.9375C37.3119 30.4197 36.8923 30 36.3744 30Z" fill="url(#paint2_linear_152_3892)"></path>
    <path d="M45.125 26.25H18.875C18.3571 26.25 17.9375 26.6697 17.9375 27.1875C17.9375 27.7053 18.3571 28.125 18.875 28.125H45.125C45.6429 28.125 46.0625 27.7053 46.0625 27.1875C46.0625 26.6697 45.6429 26.25 45.125 26.25Z" fill="url(#paint3_linear_152_3892)"></path>
    <path d="M45.125 22.5H18.875C18.3571 22.5 17.9375 22.9197 17.9375 23.4375C17.9375 23.9553 18.3571 24.375 18.875 24.375H45.125C45.6429 24.375 46.0625 23.9553 46.0625 23.4375C46.0625 22.9197 45.6429 22.5 45.125 22.5Z" fill="url(#paint4_linear_152_3892)"></path>
    <path d="M45.125 11.25H18.875C18.3571 11.25 17.9375 11.6697 17.9375 12.1875C17.9375 12.7053 18.3571 13.125 18.875 13.125H45.125C45.6429 13.125 46.0625 12.7053 46.0625 12.1875C46.0625 11.6697 45.6429 11.25 45.125 11.25Z" fill="url(#paint5_linear_152_3892)"></path>
  </g>
  <defs>
    <linearGradient id="paint0_linear_152_3892" x1="19.7734" y1="14.8455" x2="20.2399" y2="19.1931" gradientUnits="userSpaceOnUse">
      <stop stop-color="#D8AE5E"></stop>
      <stop offset="1" stop-color="#F2D7A5"></stop>
    </linearGradient>
    <linearGradient id="paint1_linear_152_3892" x1="26.2942" y1="7.34549" x2="27.2547" y2="11.5223" gradientUnits="userSpaceOnUse">
      <stop stop-color="#D8AE5E"></stop>
      <stop offset="1" stop-color="#F2D7A5"></stop>
    </linearGradient>
    <linearGradient id="paint2_linear_152_3892" x1="19.2022" y1="29.8455" x2="19.871" y2="34.139" gradientUnits="userSpaceOnUse">
      <stop stop-color="#D8AE5E"></stop>
      <stop offset="1" stop-color="#F2D7A5"></stop>
    </linearGradient>
    <linearGradient id="paint3_linear_152_3892" x1="19.7734" y1="26.0955" x2="20.2399" y2="30.4431" gradientUnits="userSpaceOnUse">
      <stop stop-color="#D8AE5E"></stop>
      <stop offset="1" stop-color="#F2D7A5"></stop>
    </linearGradient>
    <linearGradient id="paint4_linear_152_3892" x1="19.7734" y1="22.3455" x2="20.2399" y2="26.6931" gradientUnits="userSpaceOnUse">
      <stop stop-color="#D8AE5E"></stop>
      <stop offset="1" stop-color="#F2D7A5"></stop>
    </linearGradient>
    <linearGradient id="paint5_linear_152_3892" x1="19.7734" y1="11.0955" x2="20.2399" y2="15.4431" gradientUnits="userSpaceOnUse">
      <stop stop-color="#D8AE5E"></stop>
      <stop offset="1" stop-color="#F2D7A5"></stop>
    </linearGradient>
    <clipPath id="clip0_152_3892">
      <rect width="64" height="64" fill="white"></rect>
    </clipPath>
  </defs>
</svg>
