<?xml version="1.0" encoding="UTF-8"?>
<svg xmlns="http://www.w3.org/2000/svg" width="64" height="64" viewBox="0 0 64 64" fill="none">
  <g id="Frame">
    <g id="_x32_5_Thumbs">
      <g id="Group">
        <path id="Vector" d="M12.662 40.8154C10.6986 40.8154 9.10144 42.4125 9.10144 44.3759C9.10144 46.3325 10.6985 47.9242 12.662 47.9242C14.6179 47.9242 16.2095 46.3325 16.2095 44.3759C16.2097 42.4125 14.618 40.8154 12.662 40.8154ZM12.662 45.848C11.8435 45.848 11.1778 45.1876 11.1778 44.3759C11.1778 43.5575 11.8435 42.8918 12.662 42.8918C13.473 42.8918 14.1333 43.5575 14.1333 44.3759C14.1333 45.1876 13.473 45.848 12.662 45.848Z" fill="url(#paint0_linear_144_2652)"></path>
        <path id="Vector_2" d="M54.1663 23.696H42.1508C43.3031 22.0997 44.0979 20.3722 44.4806 18.6102C45.3147 14.687 44.0373 10.4732 40.6748 8.3532C38.4219 6.93509 35.5498 8.59727 35.418 11.2027C35.0425 18.4456 26.8066 22.0156 20.2942 23.3349C20.2055 21.5982 18.7765 20.2088 17.0183 20.2088H8.282C6.47279 20.2088 5.00073 21.6862 5.00073 23.5016V48.7716C5.00073 50.587 6.47279 52.0644 8.282 52.0644H17.0183C17.9543 52.0644 18.7955 51.6673 19.3957 51.0381C23.0829 54.3392 27.7733 56.1643 32.7526 56.1643H44.7033C47.3682 56.1643 49.5364 53.9967 49.5364 51.3319C49.5364 50.339 49.2336 49.382 48.6592 48.5555C51.1255 48.3338 53.0652 46.2595 53.0652 43.7427C53.0652 42.691 52.7536 41.7225 52.1501 40.898C54.3818 40.4667 56.0728 38.4981 56.0728 36.1419C56.0728 35.1106 55.7389 34.0995 55.1401 33.2763C57.3228 32.834 59 30.9018 59 28.5297C58.9995 25.8641 56.8312 23.696 54.1663 23.696ZM17.018 49.9879H8.28166C7.61734 49.9879 7.07661 49.4425 7.07661 48.7713V23.5012C7.07661 22.83 7.61734 22.2846 8.28166 22.2846H17.018C17.6892 22.2846 18.2346 22.83 18.2346 23.5012V48.7713C18.2346 49.4423 17.6892 49.9879 17.018 49.9879ZM54.1663 31.2967C52.5267 31.2964 40.2218 31.2931 40.9666 31.2933C40.3935 31.2933 39.9284 31.7583 39.9284 32.3315C39.9284 32.9046 40.3935 33.3697 40.9666 33.3697C41.1629 33.3697 39.3267 33.3692 51.2283 33.3731C52.8398 33.3731 53.9959 34.6749 53.9959 36.1414C53.9959 37.6676 52.7543 38.909 51.2283 38.909C50.3904 38.9071 42.7777 38.8892 42.6171 38.8887C42.0439 38.8887 41.5789 39.3537 41.5789 39.9269C41.5789 40.5 42.0439 40.9651 42.6171 40.9651C42.8415 40.9659 47.9965 40.9854 48.22 40.9854C48.954 40.9854 49.6548 41.2719 50.1814 41.7809C50.7092 42.3087 50.9885 42.9873 50.9885 43.7423C50.9885 45.2623 49.7469 46.4985 48.2202 46.4985C48.078 46.4982 40.0222 46.4834 40.5295 46.4844C39.9563 46.4844 39.4913 46.9495 39.4913 47.5226C39.4913 48.0957 39.9563 48.5608 40.5295 48.5608C40.6967 48.5613 44.5364 48.5749 44.703 48.5749C46.2228 48.5749 47.4599 49.7998 47.4599 51.3319C47.4599 52.8518 46.2231 54.0881 44.703 54.0881H32.7522C28.0813 54.0881 23.6801 52.3159 20.311 49.0888C20.311 40.7265 20.311 34.3543 20.311 25.4504C28.3645 23.9278 37.0638 19.5598 37.4914 11.3092C37.6795 7.60976 43.8521 11.5862 42.4509 18.1746C42.0177 20.1674 40.9299 22.1264 39.3198 23.8591C39.0181 24.0407 38.8059 24.3569 38.8059 24.7345C38.8059 25.3077 39.271 25.7727 39.8441 25.7727H39.9367H54.1663C55.6863 25.7727 56.9232 27.0095 56.9232 28.5297C56.9231 30.0765 55.6841 31.2967 54.1663 31.2967Z" fill="#F3F3F3"></path>
      </g>
    </g>
  </g>
  <defs>
    <linearGradient id="paint0_linear_144_2652" x1="9.56544" y1="40.2296" x2="17.0392" y2="44.8727" gradientUnits="userSpaceOnUse">
      <stop stop-color="#D8AE5E"></stop>
      <stop offset="1" stop-color="#F2D7A5"></stop>
    </linearGradient>
  </defs>
</svg>
