<?xml version="1.0" encoding="UTF-8"?>
<svg xmlns="http://www.w3.org/2000/svg" width="64" height="64" viewBox="0 0 64 64" fill="none">
  <path d="M58.8199 12.8353C57.7314 14.3099 56.4533 16.5712 53.5326 16.4381C55.5653 16.0859 59.0075 12.8671 59 8.59658C58.9979 7.54452 59 5.79247 57.8657 3.00034C55.9094 8.76883 51.2777 9.29246 47.9026 9.74418C42.4432 10.4747 40.4133 12.4555 39.9226 13.0404C38.9044 11.0935 38.4808 10.9726 37.8263 10.9288C37.663 10.9178 37.4937 10.9065 37.2892 10.8411C37.2811 10.8384 37.275 10.836 37.2706 10.8339C37.2737 10.7873 37.3106 10.6836 37.3381 10.6058C37.4568 10.2709 37.6558 9.70993 37.2367 9.03424C36.5748 7.96678 35.6548 7.5887 34.9997 7.45925C34.1343 7.28835 33.3744 7.47672 33.0342 7.72432C32.7057 7.96335 32.3181 7.97192 31.827 7.98287C31.4961 7.99007 31.121 7.99829 30.7097 8.08459C30.1289 8.2065 29.4988 8.78425 28.943 9.29384C28.5856 9.62158 28.1804 9.99315 27.9946 10.0168C27.8389 10.0366 27.7409 10.012 27.5039 9.95308C27.2038 9.87842 26.7504 9.76542 25.8145 9.65068C25.251 9.58185 24.9169 9.56884 24.6724 9.55924C24.1811 9.54007 24.0329 9.53425 22.9095 9.08733C22.643 8.98151 22.3926 8.87843 22.1505 8.77876C20.8579 8.24657 19.8372 7.82602 18.4937 7.87158C16.936 7.92431 16.3082 8.15274 16.2821 8.16232L16.3472 8.34143C12.9576 8.02294 7.98373 8.45411 6.13429 3C5.00001 5.79247 5.00171 7.54452 5.00001 8.59624C4.99221 12.8671 8.4344 16.0856 10.467 16.4376C7.5463 16.5706 6.26858 14.3096 5.17973 12.8349C5.69381 22.1627 11.9749 22.0945 13.8193 21.923L13.8416 21.9417C11.0651 23.4665 8.31469 22.5055 6.78503 20.7472C7.75518 25.9811 12.4371 27.9068 16.8542 25.4219C12.9417 29.2456 9.51781 26.7072 7.76672 25.1778C10.6538 36.076 17.769 31.2212 19.252 29.2456C18.1004 33.1333 12.8939 33.4678 10.291 31.6037C11.9478 36.3835 17.5323 37.6983 20.5141 34.1213C20.727 36.2404 17.3903 37.3633 15.3079 36.9328C17.4221 39.2277 22.5494 39.9445 24.4425 36.1442C24.8684 38.0565 25.2943 39.4425 27.5663 40.3513C26.139 41.6983 24.8209 41.6418 23.5432 42.3586C23.0383 45.338 26.525 44.8921 26.2883 47.5689C28.3234 47.1863 28.7179 45.8161 30.0275 44.0315C30.1224 46.5651 27.5191 48.1904 26.6199 48.238C28.1587 49.7288 29.7643 50.6439 30.7372 50.2931C30.903 50.7953 31.0776 51.1942 29.8847 52.0932C28.1503 53.4003 28.1503 53.4003 29.4124 55.7583C30.6745 58.1161 30.9583 57.7021 31.9997 62L31.9993 61.9884L31.9997 62C33.041 57.7021 33.3249 58.1161 34.5866 55.7583C35.8491 53.4003 35.8491 53.4003 34.1142 52.0932C32.9214 51.1942 33.096 50.7953 33.2614 50.2931C34.2343 50.6439 35.8403 49.7288 37.3795 48.238C36.4798 48.1904 33.8769 46.5648 33.9715 44.0315C35.2808 45.8161 35.6751 47.1863 37.7104 47.5689C37.474 44.8921 40.9603 45.338 40.4554 42.3586C39.1773 41.6418 37.8599 41.6987 36.4323 40.3513C38.7043 39.4425 39.1302 38.0565 39.5561 36.1442C41.4493 39.9445 46.5768 39.2277 48.6908 36.9328C46.6083 37.3633 43.2716 36.2404 43.4846 34.1213C46.4665 37.698 52.0508 36.3835 53.7077 31.6037C51.1044 33.4682 45.8986 33.1336 44.747 29.2456C46.2298 31.2212 53.3452 36.076 56.2319 25.1778C54.4808 26.7072 51.0573 29.2456 47.1447 25.4219C51.5622 27.9071 56.2438 25.9811 57.2139 20.7472C55.6758 22.5154 52.903 23.4777 50.1105 21.9164C51.8623 22.0918 58.2993 22.2829 58.8199 12.8353ZM48.1352 21.8168C46.8809 22.1037 46.2305 22.4024 45.8515 23.6929C45.4726 24.9836 44.6208 24.9956 44.1479 25.2106C43.6745 25.4257 43.2485 26.0353 42.7751 26.274C42.3022 26.513 40.9061 26.8716 40.3614 27.2301C39.8173 27.5883 38.2078 28.9987 39.9593 29.9784C41.7107 30.9585 41.2214 29.4452 41.9 29.5086C42.5364 29.5682 42.5625 30.1699 42.2784 30.2651C41.9942 30.3613 41.8759 30.5521 41.9942 30.6716C42.1126 30.7911 42.2072 31.15 41.7104 31.2212C41.2132 31.2931 41.0003 31.0058 40.4798 31.4842C39.9593 31.9623 39.6042 31.9859 39.2258 32.0339C38.847 32.0818 38.3737 32.5116 38.019 32.8226C37.6639 33.1333 37.6639 33.1333 37.6639 33.1333C37.6639 33.1333 35.6761 33.4918 35.747 31.9859C35.8077 30.701 35.2027 31.0777 35.3683 30.4568C35.5341 29.8353 35.6287 29.1425 35.5103 28.6881C35.392 28.2343 34.1618 28.0429 34.1139 27.8993C34.0664 27.7562 32.9939 26.5531 33.0414 26.0911C33.0885 25.6291 33.5303 25.5336 33.625 25.5017C33.7195 25.4699 34.4611 25.5651 34.6192 25.5812C34.7769 25.5969 34.7826 25.2722 33.9783 24.2846L32.9155 24.147L31.1386 23.7037L30.8644 24.1312L29.118 24.5113L29.6185 24.848L30.1235 25.3099C30.1235 25.3099 29.9973 27.0948 29.6026 27.6041C29.2081 28.1144 27.5357 29.8031 26.6521 29.8504V30.1641C26.6521 30.1641 25.7847 30.8034 24.885 30.7431C24.1753 30.6952 23.9465 29.4127 24.9088 28.4325C26.2309 27.0863 25.1142 27.1137 25.5636 26.5541C25.8949 26.1418 26.1631 26.634 26.3683 26.2997C26.5731 25.965 26.9915 24.8082 26.3527 23.5893C25.7138 22.3705 26.3211 22.4178 25.6585 22.1072C24.9959 21.7969 24.3475 21.428 23.7813 21.1195C23.1658 20.7849 22.6612 20.6418 21.8722 20.9284C21.0834 21.2151 19.3242 22.1633 17.5969 22.0914C17.4815 22.0867 17.3659 22.0794 17.2503 22.0699L16.7291 21.3428L14.4568 20.6418L12.1607 19.5432C12.1607 19.5432 12.08 19.4613 11.9946 19.3346L11.7982 18.8463C11.785 18.7086 11.8132 18.5661 11.9169 18.4349C12.2957 17.9568 12.39 17.2161 12.8871 16.2839C13.3842 15.3518 14.3547 13.5353 16.3188 13.1291C16.3188 13.1291 16.2112 13.1551 16.1525 12.8681C16.1525 12.8681 16.1525 12.8681 16.1525 12.8678L16.8552 12.6113L16.235 9.3774C16.2533 9.12158 16.7332 8.36267 16.7263 8.36164C17.0635 8.30103 17.7592 8.27432 18.507 8.24897C19.7701 8.20685 20.7097 8.59315 22.0102 9.12843C22.2533 9.22842 22.5046 9.33185 22.7731 9.4387C23.9556 9.90925 24.133 9.9161 24.6589 9.93665C24.8966 9.94589 25.2221 9.95856 25.7701 10.0257C26.6836 10.1373 27.1238 10.2473 27.4151 10.3199C27.666 10.3825 27.8176 10.4202 28.042 10.3918C28.3452 10.3534 28.7205 10.0093 29.1957 9.57364C29.7158 9.09658 30.3059 8.55548 30.7867 8.45445C31.1642 8.37535 31.5056 8.36781 31.8358 8.36062C32.3476 8.34931 32.8304 8.3387 33.2536 8.03082C33.5388 7.82295 34.2058 7.68733 34.9281 7.83014C35.5106 7.94521 36.3293 8.28253 36.9199 9.23494C37.2427 9.75514 37.1007 10.1562 36.9864 10.4784C36.9159 10.6771 36.8552 10.8483 36.9332 11.0075C36.978 11.0986 37.0596 11.1637 37.1767 11.201C37.4242 11.2805 37.6253 11.2938 37.8023 11.3055C38.3011 11.3387 38.6307 11.3606 39.6307 13.2904L39.7985 13.2017C39.7972 13.2038 39.7966 13.2051 39.7966 13.2051C39.7966 13.2051 40.0383 14.2901 41.9003 13.8941C42.3499 13.7983 43.2726 13.9181 43.5801 14.539C43.8877 15.1603 44.9294 15.0651 45.3787 15.0891C45.828 15.1131 46.491 15.6148 47.2482 15.6867C48.0054 15.7586 49.1651 16.3555 49.1176 17.5027C49.0701 18.6503 49.3893 21.5305 48.1352 21.8168Z" fill="url(#paint0_linear_305_3785)"></path>
  <defs>
    <linearGradient id="paint0_linear_305_3785" x1="8.525" y1="-1.86204" x2="67.9881" y2="31.9521" gradientUnits="userSpaceOnUse">
      <stop stop-color="#D8AE5E"></stop>
      <stop offset="1" stop-color="#F2D7A5"></stop>
    </linearGradient>
  </defs>
</svg>
