<?xml version="1.0" encoding="UTF-8"?>
<svg xmlns="http://www.w3.org/2000/svg" width="64" height="64" viewBox="0 0 64 64" fill="none">
  <path d="M61.7564 38.1476C61.0111 38.1476 60.4062 37.544 60.4062 36.7974V12.3511C60.4062 11.6045 61.0111 11.001 61.7564 11.001C62.5017 11.001 63.1066 11.6045 63.1066 12.3511V36.7974C63.1066 37.544 62.5017 38.1476 61.7564 38.1476Z" fill="#F3F3F3"></path>
  <path d="M2.35017 38.1476C1.60488 38.1476 1 37.544 1 36.7974V12.3511C1 11.6045 1.60488 11.001 2.35017 11.001C3.09547 11.001 3.70035 11.6045 3.70035 12.3511V36.7974C3.70035 37.544 3.09547 38.1476 2.35017 38.1476Z" fill="#F3F3F3"></path>
  <path d="M48.3558 17.3818C47.7631 17.3818 47.219 16.9889 47.0543 16.3894C46.8571 15.6711 47.2798 14.9271 47.9994 14.73L61.4012 11.0495C62.1209 10.8496 62.8634 11.2736 63.0606 11.9932C63.2577 12.7115 62.8351 13.4555 62.1154 13.6526L48.7136 17.3332C48.5935 17.3656 48.4733 17.3818 48.3558 17.3818Z" fill="#F3F3F3"></path>
  <path d="M15.7531 17.3818C15.6357 17.3818 15.5142 17.3656 15.3954 17.3332L1.99353 13.6526C1.27389 13.4555 0.851288 12.7129 1.04841 11.9932C1.24554 11.2736 1.98678 10.851 2.70778 11.0495L16.1096 14.73C16.8292 14.9272 17.2518 15.6698 17.0547 16.3894C16.89 16.9889 16.3459 17.3818 15.7531 17.3818Z" fill="#F3F3F3"></path>
  <path d="M9.51265 40.115C9.39518 40.115 9.27367 40.0988 9.15485 40.0664L1.99353 38.1006C1.27389 37.9035 0.851287 37.1609 1.04841 36.4412C1.24554 35.7216 1.98543 35.2976 2.70778 35.4974L9.86909 37.4633C10.5887 37.6604 11.0113 38.403 10.8142 39.1227C10.6495 39.7208 10.1067 40.115 9.51265 40.115Z" fill="#F3F3F3"></path>
  <path d="M54.5941 40.1148C54.0014 40.1148 53.4573 39.7219 53.2926 39.1224C53.0954 38.4041 53.518 37.6602 54.2377 37.4631L61.399 35.4972C62.1186 35.2987 62.8612 35.7213 63.0584 36.441C63.2555 37.1593 62.8329 37.9032 62.1132 38.1004L54.9519 40.0662C54.8331 40.0986 54.7116 40.1148 54.5941 40.1148Z" fill="#F3F3F3"></path>
  <path d="M29.1256 25.6844C28.8416 25.6844 28.555 25.5917 28.3135 25.3981C27.7336 24.9371 27.6275 24.0808 28.0773 23.4862L30.0332 20.8926C30.483 20.2953 31.3163 20.1876 31.8949 20.6498C32.4747 21.1107 32.5809 21.9671 32.1311 22.5617L30.1752 25.1553C29.9124 25.5031 29.521 25.6844 29.1256 25.6844Z" fill="url(#paint0_linear_152_3918)"></path>
  <path d="M49.2786 37.5728C48.9947 37.5728 48.708 37.4801 48.4665 37.2878L30.2704 22.8059C29.6905 22.3436 29.5833 21.4871 30.0332 20.8926C30.4804 20.2953 31.316 20.1877 31.8958 20.6486L50.092 35.1305C50.6719 35.5928 50.7781 36.4492 50.3282 37.0437C50.0668 37.3915 49.6754 37.5728 49.2786 37.5728Z" fill="url(#paint1_linear_152_3918)"></path>
  <path d="M15.5759 18.7872C14.9111 18.7872 14.3366 18.2731 14.2596 17.5776C14.176 16.829 14.7002 16.1526 15.4286 16.0694L24.2341 15.0412C24.9507 14.9485 25.6195 15.4926 25.7017 16.2412C25.784 16.9899 25.2612 17.6663 24.5327 17.7494L15.7272 18.7776C15.6768 18.7845 15.6264 18.7872 15.5759 18.7872Z" fill="url(#paint2_linear_152_3918)"></path>
  <path d="M28.0637 52.3153C27.7797 52.3153 27.4931 52.2225 27.2516 52.0303L9.56759 37.9574C8.98772 37.4951 8.88157 36.6387 9.3314 36.0442C9.77857 35.4469 10.6132 35.3405 11.1931 35.8001L28.8771 49.873C29.4569 50.3352 29.5631 51.1916 29.1133 51.7862C28.8519 52.1339 28.4591 52.3153 28.0637 52.3153Z" fill="url(#paint3_linear_152_3918)"></path>
  <path d="M51.9378 38.5097C50.7038 38.5097 49.4803 38.0938 48.4679 37.2878C47.888 36.8256 47.7819 35.9692 48.2317 35.3746C48.6802 34.7774 49.5135 34.6724 50.092 35.1305C50.9758 35.8369 52.162 35.9801 53.1811 35.5055C53.8486 35.1974 54.6354 35.5014 54.9353 36.1901C55.2365 36.876 54.938 37.6847 54.2705 37.9928C53.5221 38.3392 52.726 38.5097 51.9378 38.5097Z" fill="url(#paint4_linear_152_3918)"></path>
  <path d="M48.5103 18.5908C48.4135 18.5908 48.314 18.5799 48.2158 18.5581L32.5434 14.9049C31.8282 14.7385 31.381 14.0076 31.5429 13.2739C31.7048 12.5389 32.42 12.0835 33.1299 12.2444L48.8023 15.8976C49.5175 16.064 49.9647 16.7949 49.8028 17.5299C49.6634 18.1626 49.1167 18.5908 48.5103 18.5908Z" fill="url(#paint5_linear_152_3918)"></path>
  <path d="M23.4433 19.0872C23.2124 19.0872 22.9789 19.0258 22.7666 18.8949C22.1363 18.5117 21.9293 17.6731 22.3035 17.0267C24.5301 13.1758 28.8784 11.2585 33.1312 12.243C33.8464 12.4094 34.2936 13.1403 34.1317 13.8739C33.9698 14.6103 33.2639 15.0671 32.5447 14.9035C29.4158 14.1726 26.2206 15.5867 24.5858 18.419C24.3377 18.8499 23.8958 19.0872 23.4433 19.0872Z" fill="url(#paint6_linear_152_3918)"></path>
  <path d="M23.6994 28.3873C21.6679 28.3873 19.7027 27.6264 18.2152 26.245C17.6712 25.7404 17.63 24.8786 18.121 24.3195C18.6119 23.7631 19.4506 23.7168 19.9959 24.2241C21.1198 25.2686 22.6644 25.7786 24.2182 25.6368C25.7601 25.4936 27.1653 24.7109 28.073 23.4931C28.5201 22.8959 29.3508 22.7827 29.9333 23.2395C30.5145 23.6977 30.6246 24.5541 30.1801 25.1513C28.8227 26.9718 26.7367 28.1391 24.4584 28.3532C24.205 28.3764 23.9515 28.3873 23.6994 28.3873Z" fill="url(#paint7_linear_152_3918)"></path>
  <path d="M44.8772 41.9761C44.5932 41.9761 44.3066 41.8833 44.0651 41.6911L34.9756 34.4555C34.3958 33.9933 34.2896 33.1369 34.7395 32.5423C35.188 31.9451 36.0226 31.8387 36.6011 32.2982L45.6906 39.5338C46.2705 39.996 46.3766 40.8524 45.9268 41.447C45.6667 41.7961 45.274 41.9761 44.8772 41.9761Z" fill="url(#paint8_linear_152_3918)"></path>
  <path d="M40.5846 46.4652C40.3006 46.4652 40.014 46.3725 39.7725 46.1802L30.1868 38.5519C29.6069 38.0897 29.5007 37.2333 29.9506 36.6387C30.3977 36.0415 31.2311 35.9337 31.8122 36.3946L41.398 44.0229C41.9779 44.4852 42.084 45.3416 41.6342 45.9361C41.3728 46.2852 40.98 46.4652 40.5846 46.4652Z" fill="url(#paint9_linear_152_3918)"></path>
  <path d="M35.0128 49.9384C34.7288 49.9384 34.4422 49.8457 34.2007 49.6534L25.3992 42.6483C24.8193 42.1861 24.7132 41.3297 25.163 40.7351C25.6115 40.1379 26.4475 40.0315 27.0247 40.491L35.8262 47.4961C36.4061 47.9584 36.5122 48.8148 36.0624 49.4093C35.801 49.7584 35.4082 49.9384 35.0128 49.9384Z" fill="url(#paint10_linear_152_3918)"></path>
  <path d="M19.1042 26.5968C18.8734 26.5968 18.6398 26.5354 18.4275 26.4045C17.7972 26.0214 17.5902 25.1827 17.9644 24.5363L22.3035 17.0267C22.6777 16.3776 23.4924 16.1622 24.1227 16.5508C24.753 16.934 24.96 17.7726 24.5858 18.419L20.2467 25.9286C19.9986 26.3582 19.5567 26.5968 19.1042 26.5968Z" fill="url(#paint11_linear_152_3918)"></path>
  <path d="M46.6646 42.6565C45.8114 42.6565 44.917 42.3674 44.0651 41.6911C43.4853 41.2302 43.3804 40.3738 43.8289 39.7779C44.2774 39.1833 45.1107 39.0742 45.6906 39.5338C46.9074 40.5047 47.8429 39.3906 48.018 39.1574C48.1932 38.9242 49.0053 37.7147 47.7911 36.7465C47.2113 36.2855 47.1051 35.4292 47.5549 34.8346C48.0048 34.2373 48.8381 34.1296 49.4166 34.5919C51.6313 36.3551 51.4455 39.0619 50.1173 40.8251C49.2972 41.9133 48.0326 42.6565 46.6646 42.6565Z" fill="url(#paint12_linear_152_3918)"></path>
  <path d="M42.3839 47.1375C41.4683 47.1375 40.5634 46.8088 39.7725 46.1802C39.1926 45.7179 39.0865 44.8629 39.5363 44.2684C39.9835 43.6711 40.8208 43.5647 41.398 44.0229C41.808 44.3502 42.2273 44.4715 42.6466 44.3843C43.0421 44.2997 43.4348 44.0325 43.7254 43.6493C43.9006 43.4161 44.714 42.2065 43.4985 41.2397C42.9187 40.7774 42.8125 39.921 43.2623 39.3265C43.7122 38.7292 44.5455 38.6242 45.124 39.0824C46.1431 39.8938 46.7376 41.0201 46.7999 42.2515C46.853 43.3247 46.5067 44.4143 45.8246 45.3184C45.1426 46.2238 44.2031 46.8402 43.1787 47.0543C42.9133 47.1102 42.648 47.1375 42.3839 47.1375Z" fill="url(#paint13_linear_152_3918)"></path>
  <path d="M36.7989 50.6203C35.9456 50.6203 35.0513 50.3312 34.2007 49.6534C33.6209 49.1925 33.5147 48.3348 33.9645 47.7402C34.4157 47.1429 35.2477 47.0366 35.8262 47.4975C37.0417 48.4616 37.9772 47.3529 38.1523 47.1211C38.4416 46.7366 38.5955 46.2784 38.5756 45.8625C38.5531 45.4247 38.3354 45.0361 37.9254 44.7088C37.3455 44.2479 37.2394 43.3915 37.6892 42.797C38.1377 42.1997 38.9737 42.0933 39.5509 42.5543C40.57 43.3656 41.1645 44.4906 41.2255 45.7234C41.2786 46.7952 40.9322 47.8848 40.2502 48.7902C39.4315 49.8757 38.1669 50.6203 36.7989 50.6203Z" fill="url(#paint14_linear_152_3918)"></path>
  <path d="M29.8603 52.9875C28.9487 52.9875 28.0464 52.663 27.2503 52.0289C26.6704 51.568 26.5656 50.7116 27.0141 50.1171C27.4639 49.5198 28.2959 49.4121 28.8758 49.8743C29.3734 50.2712 29.8842 50.3652 30.3924 50.1471C31.0187 49.8852 31.5203 49.2184 31.6119 48.5284C31.6862 47.9679 31.4726 47.4825 30.975 47.087C30.3951 46.6261 30.2889 45.7697 30.7374 45.1738C31.1859 44.5779 32.0192 44.4702 32.5991 44.9297C33.8451 45.9211 34.4449 47.3666 34.2419 48.8952C34.0216 50.5548 32.9056 52.0371 31.3969 52.6712C30.8953 52.8839 30.3778 52.9875 29.8603 52.9875Z" fill="url(#paint15_linear_152_3918)"></path>
  <path d="M9.50953 40.1147C9.39207 40.1147 9.27055 40.0985 9.15174 40.0661C8.43209 39.869 8.00949 39.1264 8.20662 38.4067L14.4471 15.6739C14.6442 14.9542 15.3882 14.5289 16.1065 14.7301C16.8261 14.9272 17.2487 15.6698 17.0516 16.3895L10.8111 39.1223C10.6464 39.7205 10.1036 40.1147 9.50953 40.1147Z" fill="#F3F3F3"></path>
  <path d="M54.5963 40.1146C54.0036 40.1146 53.4595 39.7217 53.2948 39.1222L47.0543 16.388C46.8571 15.6697 47.2798 14.9258 47.9994 14.7287C48.7163 14.5288 49.4616 14.9528 49.6588 15.6724L55.8993 38.4053C56.0964 39.1236 55.6738 39.8675 54.9541 40.0646C54.8353 40.0984 54.7138 40.1146 54.5963 40.1146Z" fill="#F3F3F3"></path>
  <defs>
    <linearGradient id="paint0_linear_152_3918" x1="12.0555" y1="8.60885" x2="57.168" y2="40.056" gradientUnits="userSpaceOnUse">
      <stop stop-color="#D8AE5E"></stop>
      <stop offset="1" stop-color="#F2D7A5"></stop>
    </linearGradient>
    <linearGradient id="paint1_linear_152_3918" x1="12.0555" y1="8.60885" x2="57.168" y2="40.056" gradientUnits="userSpaceOnUse">
      <stop stop-color="#D8AE5E"></stop>
      <stop offset="1" stop-color="#F2D7A5"></stop>
    </linearGradient>
    <linearGradient id="paint2_linear_152_3918" x1="12.0555" y1="8.60885" x2="57.168" y2="40.056" gradientUnits="userSpaceOnUse">
      <stop stop-color="#D8AE5E"></stop>
      <stop offset="1" stop-color="#F2D7A5"></stop>
    </linearGradient>
    <linearGradient id="paint3_linear_152_3918" x1="12.0555" y1="8.60885" x2="57.168" y2="40.056" gradientUnits="userSpaceOnUse">
      <stop stop-color="#D8AE5E"></stop>
      <stop offset="1" stop-color="#F2D7A5"></stop>
    </linearGradient>
    <linearGradient id="paint4_linear_152_3918" x1="12.0555" y1="8.60885" x2="57.168" y2="40.056" gradientUnits="userSpaceOnUse">
      <stop stop-color="#D8AE5E"></stop>
      <stop offset="1" stop-color="#F2D7A5"></stop>
    </linearGradient>
    <linearGradient id="paint5_linear_152_3918" x1="12.0555" y1="8.60885" x2="57.168" y2="40.056" gradientUnits="userSpaceOnUse">
      <stop stop-color="#D8AE5E"></stop>
      <stop offset="1" stop-color="#F2D7A5"></stop>
    </linearGradient>
    <linearGradient id="paint6_linear_152_3918" x1="12.0555" y1="8.60885" x2="57.168" y2="40.056" gradientUnits="userSpaceOnUse">
      <stop stop-color="#D8AE5E"></stop>
      <stop offset="1" stop-color="#F2D7A5"></stop>
    </linearGradient>
    <linearGradient id="paint7_linear_152_3918" x1="12.0555" y1="8.60885" x2="57.168" y2="40.056" gradientUnits="userSpaceOnUse">
      <stop stop-color="#D8AE5E"></stop>
      <stop offset="1" stop-color="#F2D7A5"></stop>
    </linearGradient>
    <linearGradient id="paint8_linear_152_3918" x1="12.0555" y1="8.60885" x2="57.168" y2="40.056" gradientUnits="userSpaceOnUse">
      <stop stop-color="#D8AE5E"></stop>
      <stop offset="1" stop-color="#F2D7A5"></stop>
    </linearGradient>
    <linearGradient id="paint9_linear_152_3918" x1="12.0555" y1="8.60885" x2="57.168" y2="40.056" gradientUnits="userSpaceOnUse">
      <stop stop-color="#D8AE5E"></stop>
      <stop offset="1" stop-color="#F2D7A5"></stop>
    </linearGradient>
    <linearGradient id="paint10_linear_152_3918" x1="12.0555" y1="8.60885" x2="57.168" y2="40.056" gradientUnits="userSpaceOnUse">
      <stop stop-color="#D8AE5E"></stop>
      <stop offset="1" stop-color="#F2D7A5"></stop>
    </linearGradient>
    <linearGradient id="paint11_linear_152_3918" x1="12.0555" y1="8.60885" x2="57.168" y2="40.056" gradientUnits="userSpaceOnUse">
      <stop stop-color="#D8AE5E"></stop>
      <stop offset="1" stop-color="#F2D7A5"></stop>
    </linearGradient>
    <linearGradient id="paint12_linear_152_3918" x1="12.0555" y1="8.60885" x2="57.168" y2="40.056" gradientUnits="userSpaceOnUse">
      <stop stop-color="#D8AE5E"></stop>
      <stop offset="1" stop-color="#F2D7A5"></stop>
    </linearGradient>
    <linearGradient id="paint13_linear_152_3918" x1="12.0555" y1="8.60885" x2="57.168" y2="40.056" gradientUnits="userSpaceOnUse">
      <stop stop-color="#D8AE5E"></stop>
      <stop offset="1" stop-color="#F2D7A5"></stop>
    </linearGradient>
    <linearGradient id="paint14_linear_152_3918" x1="12.0555" y1="8.60885" x2="57.168" y2="40.056" gradientUnits="userSpaceOnUse">
      <stop stop-color="#D8AE5E"></stop>
      <stop offset="1" stop-color="#F2D7A5"></stop>
    </linearGradient>
    <linearGradient id="paint15_linear_152_3918" x1="12.0555" y1="8.60885" x2="57.168" y2="40.056" gradientUnits="userSpaceOnUse">
      <stop stop-color="#D8AE5E"></stop>
      <stop offset="1" stop-color="#F2D7A5"></stop>
    </linearGradient>
  </defs>
</svg>
