<?xml version="1.0" encoding="UTF-8"?>
<svg xmlns="http://www.w3.org/2000/svg" width="64" height="64" viewBox="0 0 64 64" fill="none">
  <g clip-path="url(#clip0_152_3940)">
    <path fill-rule="evenodd" clip-rule="evenodd" d="M54.2075 18.75L63.5 30.7875C63.8293 31.2101 64.0056 31.7319 64 32.2676V45.6625C63.9993 46.3049 63.7439 46.9209 63.2898 47.3752C62.8357 47.8296 62.2199 48.0853 61.5775 48.0863H59.3488C59.1076 50.2071 58.0943 52.1649 56.5021 53.5863C54.9098 55.0078 52.8501 55.7935 50.7156 55.7935C48.5812 55.7935 46.5214 55.0078 44.9292 53.5863C43.337 52.1649 42.3236 50.2071 42.0825 48.0863H27.7563C27.5151 50.2071 26.5018 52.1649 24.9096 53.5863C23.3173 55.0078 21.2576 55.7935 19.1231 55.7935C16.9887 55.7935 14.9289 55.0078 13.3367 53.5863C11.7445 52.1649 10.7311 50.2071 10.49 48.0863H2.4225C1.7801 48.0853 1.16432 47.8296 0.710188 47.3752C0.256061 46.9209 0.000661159 46.3049 0 45.6625V43.8526C0.000661808 43.2103 0.256101 42.5945 0.710265 42.1403C1.16443 41.6862 1.78022 41.4307 2.4225 41.43H2.58375C2.36353 40.9642 2.24953 40.4553 2.25 39.94V11.6975C2.25231 10.7725 2.62071 9.88605 3.27467 9.23185C3.92864 8.57765 4.81499 8.20894 5.74 8.2063H33.9825C34.9075 8.20894 35.7939 8.57765 36.4478 9.23185C37.1018 9.88605 37.4702 10.7725 37.4725 11.6975V39.9426C37.4731 40.458 37.3587 40.967 37.1375 41.4325H38.855V18.8075C38.855 18.5423 38.9604 18.288 39.1479 18.1004C39.3354 17.9129 39.5898 17.8075 39.855 17.8075H52.29C52.661 17.8039 53.0277 17.8873 53.3607 18.051C53.6937 18.2147 53.9837 18.4541 54.2075 18.75ZM38.8587 43.43H27C27.3914 44.2693 27.6447 45.1663 27.75 46.0863H38.8587V43.43ZM2 43.8526V45.6625C2 45.7747 2.04447 45.8823 2.12367 45.9617C2.20287 46.0412 2.31033 46.086 2.4225 46.0863H10.5C10.6054 45.1663 10.8586 44.2693 11.25 43.43H2.4225C2.31055 43.4304 2.20327 43.475 2.12411 43.5542C2.04495 43.6333 2.00033 43.7406 2 43.8526ZM15.4075 52.6661C16.5079 53.4014 17.8016 53.7938 19.125 53.7938C20.8991 53.7921 22.6001 53.0866 23.8546 51.8321C25.1091 50.5777 25.8146 48.8767 25.8162 47.1026C25.8162 45.7791 25.4238 44.4855 24.6886 43.3851C23.9533 42.2847 22.9083 41.4271 21.6856 40.9206C20.463 40.4142 19.1176 40.2817 17.8196 40.5399C16.5216 40.7981 15.3294 41.4353 14.3936 42.3711C13.4578 43.3069 12.8205 44.4992 12.5623 45.7971C12.3041 47.0951 12.4366 48.4405 12.9431 49.6632C13.4495 50.8858 14.3072 51.9309 15.4075 52.6661ZM47.985 30.3975H60.6688L55.9225 24.245H47.985C47.8223 24.2473 47.6668 24.313 47.5517 24.428C47.4367 24.5431 47.371 24.6986 47.3688 24.8613V29.7813C47.371 29.944 47.4367 30.0995 47.5517 30.2146C47.6668 30.3296 47.8223 30.3953 47.985 30.3975ZM46.9985 52.6667C48.099 53.4018 49.3928 53.794 50.7163 53.7938C52.4902 53.7918 54.1908 53.0862 55.445 51.8317C56.6993 50.5773 57.4046 48.8765 57.4062 47.1026C57.4062 45.7791 57.0138 44.4854 56.2785 43.385C55.5432 42.2846 54.4981 41.4269 53.2753 40.9205C52.0526 40.4141 50.7071 40.2817 49.4091 40.54C48.1111 40.7982 46.9189 41.4356 45.9831 42.3716C45.0474 43.3075 44.4102 44.4999 44.1522 45.7979C43.8941 47.096 44.0268 48.4414 44.5335 49.664C45.0401 50.8867 45.8979 51.9316 46.9985 52.6667ZM59.345 46.0863H61.5775C61.6897 46.086 61.7971 46.0412 61.8763 45.9617C61.9555 45.8823 62 45.7747 62 45.6625V32.3975H47.9912C47.2981 32.3952 46.634 32.1189 46.1438 31.6287C45.6537 31.1386 45.3773 30.4745 45.375 29.7813V24.8613C45.3786 24.1701 45.6547 23.5082 46.1434 23.0193C46.632 22.5304 47.2938 22.254 47.985 22.25H54.375L52.6237 19.9713C52.5868 19.9176 52.5367 19.8743 52.4783 19.8455C52.4199 19.8166 52.3551 19.8031 52.29 19.8063H40.855V46.0863H42.0875C42.3371 43.9731 43.3535 42.025 44.944 40.6114C46.5345 39.1977 48.5884 38.4169 50.7163 38.4169C52.8441 38.4169 54.898 39.1977 56.4885 40.6114C58.0789 42.025 59.0954 43.9731 59.345 46.0863ZM15.5337 10.2061H23.6875H25.6875H33.7325C34.1277 10.2067 34.5065 10.3641 34.7858 10.6436C35.0651 10.9232 35.2222 11.3021 35.2225 11.6973V39.9398C35.2225 41.1616 34.2292 41.4422 33.7325 41.4298H25.4475C24.6335 40.4833 23.6246 39.7236 22.49 39.2029C21.3553 38.6822 20.1216 38.4126 18.8731 38.4126C17.6247 38.4126 16.391 38.6822 15.2563 39.2029C14.1216 39.7236 13.1128 40.4833 12.2987 41.4298H5.49C5.09493 41.4295 4.71613 41.2724 4.43678 40.993C4.15742 40.7137 4.00033 40.3349 4 39.9398V11.6973C4 11.302 4.15694 10.9229 4.43634 10.6433C4.71573 10.3636 5.09471 10.2064 5.49 10.2061H13.5337H15.5337Z" fill="#F3F3F3"></path>
    <path d="M19 16C17.4178 16 15.871 16.4692 14.5554 17.3482C13.2398 18.2273 12.2145 19.4767 11.609 20.9385C11.0035 22.4003 10.845 24.0089 11.1537 25.5607C11.4624 27.1126 12.2243 28.538 13.3431 29.6569C14.462 30.7757 15.8874 31.5376 17.4393 31.8463C18.9911 32.155 20.5997 31.9965 22.0615 31.391C23.5233 30.7855 24.7727 29.7601 25.6518 28.4446C26.5308 27.129 27 25.5822 27 24C26.9975 21.879 26.1538 19.8457 24.6541 18.3459C23.1543 16.8462 21.121 16.0025 19 16ZM19 30.5455C17.7054 30.5455 16.4399 30.1616 15.3635 29.4423C14.2871 28.7231 13.4482 27.7009 12.9528 26.5048C12.4574 25.3088 12.3278 23.9927 12.5803 22.723C12.8329 21.4533 13.4563 20.2871 14.3717 19.3717C15.2871 18.4563 16.4534 17.8329 17.723 17.5803C18.9927 17.3278 20.3088 17.4574 21.5048 17.9528C22.7009 18.4482 23.7231 19.2871 24.4423 20.3635C25.1616 21.4399 25.5455 22.7054 25.5455 24C25.5435 25.7354 24.8533 27.3991 23.6262 28.6262C22.3991 29.8533 20.7354 30.5435 19 30.5455Z" fill="url(#paint0_linear_152_3940)"></path>
    <path d="M21.5582 20.2805L17.1371 25.2471L16.3556 24.5649C16.2047 24.4376 16.0027 24.3672 15.793 24.3688C15.5832 24.3704 15.3826 24.4439 15.2343 24.5735C15.086 24.703 15.0019 24.8783 15 25.0616C14.9982 25.2449 15.0788 25.4214 15.2245 25.5532L16.646 26.7952C16.7959 26.9263 16.9994 27 17.2115 27H17.2619C17.375 26.994 17.4853 26.967 17.5855 26.9207C17.6856 26.8744 17.7733 26.8099 17.8426 26.7316L22.8204 21.1402C22.8877 21.068 22.9378 20.9848 22.9677 20.8955C22.9977 20.8062 23.0069 20.7125 22.9949 20.62C22.9829 20.5276 22.9498 20.4381 22.8977 20.3569C22.8456 20.2758 22.7754 20.2045 22.6914 20.1473C22.6073 20.0902 22.511 20.0483 22.4081 20.0241C22.3053 19.9998 22.1979 19.9938 22.0924 20.0064C21.9868 20.0189 21.8852 20.0497 21.7935 20.097C21.7017 20.1444 21.6217 20.2072 21.5582 20.2819V20.2805Z" fill="url(#paint1_linear_152_3940)"></path>
  </g>
  <defs>
    <linearGradient id="paint0_linear_152_3940" x1="12.0444" y1="14.6815" x2="28.8667" y2="25.1333" gradientUnits="userSpaceOnUse">
      <stop stop-color="#D8AE5E"></stop>
      <stop offset="1" stop-color="#F2D7A5"></stop>
    </linearGradient>
    <linearGradient id="paint1_linear_152_3940" x1="15.5222" y1="19.4231" x2="23.2725" y2="24.9264" gradientUnits="userSpaceOnUse">
      <stop stop-color="#D8AE5E"></stop>
      <stop offset="1" stop-color="#F2D7A5"></stop>
    </linearGradient>
    <clipPath id="clip0_152_3940">
      <rect width="64" height="64" fill="white"></rect>
    </clipPath>
  </defs>
</svg>
